<svg width="111" height="219" viewBox="0 0 111 219" fill="none" xmlns="http://www.w3.org/2000/svg">
<rect width="111" height="218.669" rx="24" fill="#E24C5E"/>
<rect x="9.14062" y="11.2512" width="90.5783" height="195.723" rx="17.4935" fill="white"/>
<path d="M39.2001 80.1196V74.6383L47.3055 67.466C50.2599 64.9392 52.8062 62.7622 54.9443 60.9351C57.0824 59.0691 58.7345 57.3198 59.9008 55.687C61.067 54.0543 61.6501 52.2661 61.6501 50.3224C61.6501 48.8451 61.2808 47.5817 60.5422 46.5321C59.8425 45.4825 58.9289 44.6856 57.8016 44.1413C56.6742 43.5971 55.508 43.325 54.3029 43.325C52.6312 43.325 51.2706 43.6554 50.221 44.3163C49.2103 44.9771 48.4328 45.7741 47.8886 46.7071C47.3832 47.64 47.0333 48.5536 46.839 49.4477C46.6446 50.3029 46.5474 50.9444 46.5474 51.372H38.9669C38.9669 50.5167 39.1029 49.4671 39.3751 48.2232C39.6861 46.9403 40.1914 45.6186 40.8912 44.258C41.5909 42.8974 42.5239 41.6145 43.6901 40.4094C44.8564 39.2043 46.3336 38.2324 48.1218 37.4938C49.91 36.7552 52.0287 36.3859 54.4778 36.3859C57.199 36.3859 59.687 36.9301 61.9417 38.0186C64.2353 39.1071 66.0624 40.6621 67.423 42.6835C68.8225 44.705 69.5222 47.1347 69.5222 49.9725C69.5222 52.5771 68.8613 54.9484 67.5396 57.0865C66.2567 59.2246 64.488 61.3238 62.2332 63.3842C59.9785 65.4057 57.4128 67.5826 54.5361 69.9151L50.9208 73.1805H70.2802V80.1196H39.2001Z" fill="#E24C5E"/>
<rect x="3.88986" y="4.93088" width="101.555" height="208.835" rx="18.9513" stroke="white" stroke-width="2.91558"/>
<mask id="mask0_636_26970" style="mask-type:alpha" maskUnits="userSpaceOnUse" x="9" y="11" width="91" height="196">
<rect x="9.14062" y="11.2512" width="90.5783" height="195.723" rx="17.4935" fill="white"/>
</mask>
<g mask="url(#mask0_636_26970)">
<path d="M105.784 95.738L107.698 127.426L115.757 96.7203L111.452 128.173L125.347 99.6293L114.988 129.637L134.185 104.353L118.171 131.764L141.931 110.711L120.878 134.471L148.289 118.457L123.004 137.653L153.013 127.295L124.469 141.19L155.922 136.885L125.216 144.944L156.904 146.858L125.216 148.772L155.922 156.831L124.469 152.526L153.013 166.421L123.004 156.062L148.289 175.259L120.878 159.245L141.931 183.005L118.171 161.952L134.185 189.363L114.988 164.078L125.347 194.087L111.452 165.543L115.757 196.996L107.698 166.29L105.784 197.978L103.87 166.29L95.8109 196.996L100.116 165.543L86.2212 194.087L96.5794 164.078L77.3833 189.363L93.3967 161.952L69.6367 183.005L90.6901 159.245L63.2793 175.259L88.5635 156.062L58.5553 166.421L87.0987 152.526L55.6463 156.831L86.3519 148.772L54.6641 146.858L86.3519 144.944L55.6463 136.885L87.0987 141.19L58.5553 127.295L88.5635 137.653L63.2793 118.457L90.6901 134.471L69.6367 110.711L93.3967 131.764L77.3833 104.353L96.5794 129.637L86.2212 99.6293L100.116 128.173L95.8109 96.7203L103.87 127.426L105.784 95.738Z" fill="#E24C5E"/>
<path d="M9.14093 78.5144L10.5876 102.466L16.6792 79.2569L13.4253 103.031L23.9277 81.4557L16.0983 104.138L30.608 85.0264L18.504 105.745L36.4633 89.8317L20.5498 107.791L41.2687 95.687L22.1573 110.197L44.8394 102.367L23.2645 112.87L47.0382 109.616L23.8289 115.707L47.7806 117.154L23.8289 118.601L47.0382 124.692L23.2645 121.438L44.8394 131.941L22.1573 124.111L41.2687 138.621L20.5498 126.517L36.4633 144.477L18.504 128.563L30.608 149.282L16.0983 130.17L23.9277 152.853L13.4253 131.278L16.6792 155.051L10.5876 131.842L9.14093 155.794L7.69429 131.842L1.6027 155.051L4.8566 131.278L-5.64585 152.853L2.18356 130.17L-12.3261 149.282L-0.222115 128.563L-18.1815 144.477L-2.26797 126.517L-22.9868 138.621L-3.8754 124.111L-26.5575 131.941L-4.9826 121.438L-28.7563 124.692L-5.54706 118.601L-29.4988 117.154L-5.54706 115.707L-28.7563 109.616L-4.9826 112.87L-26.5575 102.367L-3.8754 110.197L-22.9868 95.687L-2.26797 107.791L-18.1815 89.8317L-0.222115 105.745L-12.3261 85.0264L2.18356 104.138L-5.64585 81.4557L4.8566 103.031L1.6027 79.2569L7.69429 102.466L9.14093 78.5144Z" fill="#E24C5E"/>
<path d="M30.2471 181.319L31.7103 185.273L35.6644 186.736L31.7103 188.199L30.2471 192.153L28.784 188.199L24.8298 186.736L28.784 185.273L30.2471 181.319Z" fill="#E24C5E"/>
<path d="M40.8662 150.705L41.8505 153.365L44.5106 154.349L41.8505 155.334L40.8662 157.994L39.8818 155.334L37.2217 154.349L39.8818 153.365L40.8662 150.705Z" fill="#E24C5E"/>
<path d="M26.289 55.9485L27.2733 58.6086L29.9335 59.593L27.2733 60.5773L26.289 63.2374L25.3047 60.5773L22.6445 59.593L25.3047 58.6086L26.289 55.9485Z" fill="#E24C5E"/>
<path d="M84.6015 26.7925L85.5858 29.4526L88.246 30.437L85.5858 31.4213L84.6015 34.0814L83.6172 31.4213L80.957 30.437L83.6172 29.4526L84.6015 26.7925Z" fill="#E24C5E"/>
</g>
<circle cx="83.8202" cy="67.9015" r="2.30064" fill="#E24C5E"/>
<circle cx="53.6561" cy="184.532" r="2.30064" fill="#E24C5E"/>
<circle cx="31.5933" cy="23.6893" r="1.09334" fill="#E24C5E"/>
<circle cx="57.0523" cy="96.8314" r="1.09334" fill="#E24C5E"/>
<circle cx="73.982" cy="200.854" r="1.09334" fill="#E24C5E"/>
</svg>
