<svg width="163" height="163" viewBox="0 0 163 163" fill="none" xmlns="http://www.w3.org/2000/svg">
<g clip-path="url(#clip0_636_26988)">
<rect width="162.967" height="162.967" rx="24" fill="#E24C5E"/>
<rect x="169.456" y="19.719" width="92.768" height="92.768" transform="rotate(45 169.456 19.719)" stroke="#FFECEC" stroke-opacity="0.5" stroke-width="4.34578"/>
<rect x="168.37" y="0.966797" width="117.751" height="117.751" transform="rotate(45 168.37 0.966797)" stroke="#FFECEC" stroke-opacity="0.5" stroke-width="4.34578"/>
<rect x="157.506" y="-9.90625" width="133.128" height="133.128" transform="rotate(45 157.506 -9.90625)" stroke="#FFECEC" stroke-opacity="0.5" stroke-width="4.34578"/>
<rect x="157.506" y="-29.8176" width="161.287" height="161.287" transform="rotate(45 157.506 -29.8176)" stroke="#FFECEC" stroke-opacity="0.5" stroke-width="4.34578"/>
<rect x="195.112" y="31.5396" width="76.0511" height="76.0511" transform="rotate(45 195.112 31.5396)" stroke="#FFECEC" stroke-opacity="0.5" stroke-width="4.34578"/>
<rect x="177.135" y="31.5396" width="76.0511" height="76.0511" transform="rotate(45 177.135 31.5396)" stroke="#FFECEC" stroke-opacity="0.5" stroke-width="4.34578"/>
<rect width="92.768" height="92.768" transform="matrix(-0.707107 0.707107 0.707107 0.707107 -6.54443 19.7192)" stroke="#FFECEC" stroke-opacity="0.5" stroke-width="4.34578"/>
<rect width="117.751" height="117.751" transform="matrix(-0.707107 0.707107 0.707107 0.707107 -5.45654 0.967041)" stroke="#FFECEC" stroke-opacity="0.5" stroke-width="4.34578"/>
<rect width="133.128" height="133.128" transform="matrix(-0.707107 0.707107 0.707107 0.707107 5.40674 -9.90625)" stroke="#FFECEC" stroke-opacity="0.5" stroke-width="4.34578"/>
<rect width="161.287" height="161.287" transform="matrix(-0.707107 0.707107 0.707107 0.707107 5.40674 -29.8176)" stroke="#FFECEC" stroke-opacity="0.5" stroke-width="4.34578"/>
<rect width="76.0511" height="76.0511" transform="matrix(-0.707107 0.707107 0.707107 0.707107 -32.2046 31.5396)" stroke="#FFECEC" stroke-opacity="0.5" stroke-width="4.34578"/>
<rect width="76.0511" height="76.0511" transform="matrix(-0.707107 0.707107 0.707107 0.707107 -14.2195 31.5396)" stroke="#FFECEC" stroke-opacity="0.5" stroke-width="4.34578"/>
<rect x="81.4849" y="31.0393" width="76.0511" height="76.0511" transform="rotate(45 81.4849 31.0393)" fill="white"/>
<path d="M75.567 97.0505C75.6829 94.3562 76.0306 91.8066 76.61 89.402C77.2184 86.9973 77.9572 84.781 78.8263 82.7529C79.7245 80.6959 80.6661 78.8417 81.6511 77.1903C82.6361 75.5389 83.5632 74.1193 84.4324 72.9315C85.3305 71.7147 86.0838 70.7586 86.6922 70.0633H70.3086V64.8918H93.2543V69.1506C93.2543 69.1506 92.9791 69.4549 92.4286 70.0633C91.9071 70.6427 91.2118 71.5119 90.3427 72.6707C89.5025 73.8006 88.5899 75.1913 87.6048 76.8427C86.6198 78.4651 85.6782 80.3193 84.7801 82.4053C83.9109 84.4623 83.1576 86.7221 82.5203 89.1847C81.9118 91.6473 81.5642 94.2692 81.4773 97.0505H75.567Z" fill="#E24C5E"/>
</g>
<defs>
<clipPath id="clip0_636_26988">
<rect width="162.967" height="162.967" rx="24" fill="white"/>
</clipPath>
</defs>
</svg>
