<svg width="131" height="131" viewBox="0 0 131 131" fill="none" xmlns="http://www.w3.org/2000/svg">
<g clip-path="url(#clip0_636_26846)">
<rect width="130.95" height="130.95" rx="24" fill="#E24C5E"/>
<path d="M22.5845 91.4751V84.9101L32.2923 76.3198C35.8309 73.2934 38.8806 70.686 41.4414 68.4977C44.0022 66.2628 45.981 64.1676 47.3778 62.2121C48.7746 60.2566 49.473 58.1148 49.473 55.7868C49.473 54.0175 49.0307 52.5043 48.146 51.2472C47.3079 49.9901 46.2138 49.0356 44.8635 48.3838C43.5133 47.7319 42.1165 47.406 40.6731 47.406C38.671 47.406 37.0414 47.8018 35.7843 48.5933C34.5738 49.3848 33.6426 50.3393 32.9907 51.4567C32.3854 52.5742 31.9664 53.6683 31.7336 54.7392C31.5008 55.7635 31.3844 56.5318 31.3844 57.0439H22.3052C22.3052 56.0196 22.4681 54.7625 22.7941 53.2726C23.1665 51.7361 23.7718 50.153 24.6099 48.5234C25.448 46.8938 26.5654 45.3573 27.9622 43.914C29.359 42.4706 31.1283 41.3066 33.2701 40.422C35.4118 39.5373 37.9494 39.095 40.8827 39.095C44.1419 39.095 47.1217 39.7469 49.8222 41.0505C52.5692 42.3542 54.7576 44.2166 56.3872 46.6378C58.0633 49.0589 58.9014 51.9689 58.9014 55.3678C58.9014 58.4873 58.1099 61.3275 56.5268 63.8883C54.9904 66.4491 52.8719 68.9633 50.1714 71.431C47.4709 73.8521 44.3979 76.4595 40.9525 79.2531L36.6224 83.1641H59.8093V91.4751H22.5845ZM88.2452 92.1037C84.8928 92.1037 81.8897 91.4053 79.2358 90.0085C76.6284 88.6117 74.4401 86.7027 72.6708 84.2816C70.9015 81.8139 69.5513 78.997 68.6201 75.8309C67.6889 72.6183 67.2233 69.1961 67.2233 65.5644C67.2233 61.9793 67.6889 58.5804 68.6201 55.3678C69.5513 52.1551 70.9015 49.3382 72.6708 46.9171C74.4401 44.4494 76.6284 42.5172 79.2358 41.1204C81.8897 39.7236 84.8928 39.0252 88.2452 39.0252C91.5975 39.0252 94.5773 39.7236 97.1847 41.1204C99.8386 42.5172 102.05 44.4494 103.819 46.9171C105.589 49.3382 106.939 52.1551 107.87 55.3678C108.801 58.5804 109.267 61.9793 109.267 65.5644C109.267 69.1961 108.801 72.6183 107.87 75.8309C106.939 78.997 105.589 81.8139 103.819 84.2816C102.05 86.7027 99.8386 88.6117 97.1847 90.0085C94.5773 91.4053 91.5975 92.1037 88.2452 92.1037ZM88.2452 83.653C91.5044 83.653 94.1816 82.1398 96.2768 79.1134C98.4185 76.087 99.4894 71.5707 99.4894 65.5644C99.4894 59.6047 98.4185 55.135 96.2768 52.1551C94.1816 49.1287 91.5044 47.6155 88.2452 47.6155C84.986 47.6155 82.2855 49.1287 80.1437 52.1551C78.0485 55.135 77.0009 59.6047 77.0009 65.5644C77.0009 71.5241 78.0485 76.0404 80.1437 79.1134C82.2855 82.1398 84.986 83.653 88.2452 83.653Z" fill="white"/>
<mask id="mask0_636_26846" style="mask-type:alpha" maskUnits="userSpaceOnUse" x="10" y="-4" width="113" height="138">
<path d="M34.0876 107.144C39.5634 103.625 38.4396 99.906 41.3257 99.906C44.1554 99.906 44.6722 104.063 48.31 107.144" stroke="white" stroke-width="3.49201" stroke-linecap="round"/>
<path d="M33.1618 114.384C39.6864 110.865 37.9126 106.47 41.3516 106.47C44.7232 106.47 44.3509 110.627 48.6855 113.708" stroke="white" stroke-width="5.23801" stroke-linecap="round"/>
<path d="M33.2966 121.773C41.2297 118.255 36.5749 114.311 40.7562 114.311C44.8557 114.311 43.0541 118.692 48.3244 121.773" stroke="white" stroke-width="6.98401" stroke-linecap="round"/>
<rect x="38.5798" y="99.906" width="5.24099" height="32.8204" rx="1.746" fill="white"/>
<path d="M119.26 113.462C115.395 110.978 116.188 108.353 114.151 108.353C112.154 108.353 111.789 111.287 109.222 113.462" stroke="white" stroke-width="3.49201" stroke-linecap="round"/>
<path d="M119.915 118.571C115.31 116.088 116.562 112.986 114.135 112.986C111.755 112.986 112.018 115.92 108.958 118.094" stroke="white" stroke-width="3.49201" stroke-linecap="round"/>
<path d="M119.821 123.787C114.222 121.304 117.507 118.52 114.556 118.52C111.663 118.52 112.934 121.612 109.214 123.787" stroke="white" stroke-width="5.23801" stroke-linecap="round"/>
<rect width="3.69913" height="23.1648" rx="1.746" transform="matrix(-1 0 0 1 116.093 108.353)" fill="white"/>
<path d="M69.499 113.462C65.6342 110.978 66.4274 108.353 64.3903 108.353C62.3932 108.353 62.0283 111.287 59.4608 113.462" stroke="white" stroke-width="3.49201" stroke-linecap="round"/>
<path d="M70.1544 118.571C65.5492 116.088 66.8012 112.986 64.374 112.986C61.9942 112.986 62.257 115.92 59.1976 118.094" stroke="white" stroke-width="3.49201" stroke-linecap="round"/>
<path d="M70.0605 122.041C64.4613 119.557 67.7467 116.774 64.7955 116.774C61.902 116.774 63.1737 119.866 59.4539 122.041" stroke="white" stroke-width="3.49201" stroke-linecap="round"/>
<rect width="3.69913" height="23.1648" rx="1.746" transform="matrix(-1 0 0 1 66.332 108.353)" fill="white"/>
<path d="M23.2336 115.208C19.3688 112.724 20.162 110.099 18.125 110.099C16.1278 110.099 15.763 113.033 13.1954 115.208" stroke="white" stroke-width="3.49201" stroke-linecap="round"/>
<path d="M23.8887 120.318C19.2836 117.834 20.5356 114.732 18.1083 114.732C15.7286 114.732 15.9913 117.666 12.932 119.841" stroke="white" stroke-width="3.49201" stroke-linecap="round"/>
<path d="M23.7949 123.787C18.1957 121.303 21.4811 118.52 18.5299 118.52C15.6364 118.52 16.908 121.612 13.1883 123.787" stroke="white" stroke-width="3.49201" stroke-linecap="round"/>
<rect width="3.69913" height="23.1648" rx="1.746" transform="matrix(-1 0 0 1 20.0664 110.099)" fill="white"/>
<path d="M85.7517 109.426C90.2156 106.557 89.2994 103.525 91.6522 103.525C93.959 103.525 94.3803 106.914 97.3459 109.426" stroke="white" stroke-width="6.98401" stroke-linecap="round"/>
<path d="M84.6384 117.02C89.9574 114.151 88.8657 111.119 91.6692 111.119C94.4178 111.119 94.9199 114.508 98.4534 117.02" stroke="white" stroke-width="6.98401" stroke-linecap="round"/>
<path d="M82.6394 124.614C89.1065 121.746 87.7792 118.714 91.1879 118.714C94.5298 118.714 95.1403 122.102 99.4367 124.614" stroke="white" stroke-width="6.98401" stroke-linecap="round"/>
<rect x="89.4128" y="106.028" width="4.27249" height="26.7554" rx="1.746" fill="white"/>
<path d="M98.7605 23.0118C93.2847 26.5304 94.4086 30.2498 91.5224 30.2498C88.6928 30.2497 88.1759 26.0931 84.5381 23.0118" stroke="white" stroke-width="3.49201" stroke-linecap="round"/>
<path d="M99.6866 15.7719C93.162 19.2905 94.9358 23.6856 91.4968 23.6855C88.1252 23.6855 88.4974 19.5289 84.1629 16.4476" stroke="white" stroke-width="5.23801" stroke-linecap="round"/>
<path d="M99.552 8.38303C91.6189 11.9016 96.2738 15.8455 92.0924 15.8455C87.9929 15.8454 89.7945 11.4643 84.5243 8.38303" stroke="white" stroke-width="6.98401" stroke-linecap="round"/>
<rect x="94.2703" y="30.2498" width="5.24099" height="32.8204" rx="1.746" transform="rotate(180 94.2703 30.2498)" fill="white"/>
<path d="M13.585 16.6942C17.4498 19.1776 16.6566 21.8028 18.6936 21.8027C20.6908 21.8027 21.0556 18.8689 23.6232 16.6942" stroke="white" stroke-width="3.49201" stroke-linecap="round"/>
<path d="M12.9296 11.5844C17.5347 14.0678 16.2828 17.1699 18.71 17.1699C21.0898 17.1699 20.827 14.2361 23.8864 12.0614" stroke="white" stroke-width="3.49201" stroke-linecap="round"/>
<path d="M13.0234 6.36871C18.6227 8.85213 15.3372 11.6358 18.2885 11.6357C21.1819 11.6357 19.9103 8.54346 23.6301 6.36871" stroke="white" stroke-width="5.23801" stroke-linecap="round"/>
<rect width="3.69913" height="23.1648" rx="1.746" transform="matrix(1 0 0 -1 16.752 21.8027)" fill="white"/>
<path d="M63.3435 16.6942C67.2083 19.1776 66.4151 21.8028 68.4522 21.8027C70.4494 21.8027 70.8142 18.8689 73.3817 16.6942" stroke="white" stroke-width="3.49201" stroke-linecap="round"/>
<path d="M62.6884 11.5842C67.2935 14.0676 66.0416 17.1697 68.4688 17.1697C70.8486 17.1697 70.5858 14.2359 73.6452 12.0611" stroke="white" stroke-width="3.49201" stroke-linecap="round"/>
<path d="M62.7822 8.11505C68.3815 10.5985 65.096 13.3821 68.0473 13.3821C70.9407 13.3821 69.6691 10.2898 73.3889 8.11505" stroke="white" stroke-width="3.49201" stroke-linecap="round"/>
<rect width="3.69913" height="23.1648" rx="1.746" transform="matrix(1 0 0 -1 66.5107 21.8027)" fill="white"/>
<path d="M109.612 14.9481C113.477 17.4315 112.684 20.0567 114.721 20.0566C116.718 20.0566 117.083 17.1228 119.651 14.9481" stroke="white" stroke-width="3.49201" stroke-linecap="round"/>
<path d="M108.957 9.83759C113.562 12.321 112.31 15.4231 114.737 15.4231C117.117 15.4231 116.854 12.4893 119.913 10.3145" stroke="white" stroke-width="3.49201" stroke-linecap="round"/>
<path d="M109.051 6.36846C114.65 8.85188 111.365 11.6355 114.316 11.6355C117.209 11.6355 115.938 8.54321 119.657 6.36847" stroke="white" stroke-width="3.49201" stroke-linecap="round"/>
<rect width="3.69913" height="23.1648" rx="1.746" transform="matrix(1 0 0 -1 112.78 20.0566)" fill="white"/>
<path d="M47.0928 20.7307C42.6289 23.5991 43.5451 26.6311 41.1923 26.6311C38.8855 26.6311 38.4641 23.2425 35.4986 20.7307" stroke="white" stroke-width="6.98401" stroke-linecap="round"/>
<path d="M48.2031 13.1372C42.8842 16.0056 43.9758 19.0376 41.1724 19.0376C38.4237 19.0376 37.9217 15.649 34.3881 13.1372" stroke="white" stroke-width="6.98401" stroke-linecap="round"/>
<path d="M50.2041 5.54272C43.737 8.41107 45.0643 11.4431 41.6556 11.4431C38.3137 11.4431 37.7032 8.05456 33.4069 5.54272" stroke="white" stroke-width="6.98401" stroke-linecap="round"/>
<rect x="43.4307" y="24.1287" width="4.27249" height="26.7554" rx="1.746" transform="rotate(180 43.4307 24.1287)" fill="white"/>
</mask>
<g mask="url(#mask0_636_26846)">
<rect width="130.913" height="130.95" rx="20.952" fill="white"/>
</g>
</g>
<defs>
<clipPath id="clip0_636_26846">
<rect width="130.95" height="130.95" rx="24" fill="white"/>
</clipPath>
</defs>
</svg>
