<svg width="137" height="183" viewBox="0 0 137 183" fill="none" xmlns="http://www.w3.org/2000/svg">
<g clip-path="url(#clip0_636_26545)">
<rect width="136.51" height="182.013" rx="24" fill="#E24C5E"/>
<circle cx="13.3817" cy="7.91841" r="2.04605" transform="rotate(13.7073 13.3817 7.91841)" fill="white"/>
<rect x="14.5287" y="6.49463" width="2.9446" height="2.06746" transform="rotate(-16.6985 14.5287 6.49463)" fill="white"/>
<circle cx="2.04605" cy="2.04605" r="2.04605" transform="matrix(-0.624677 0.780883 0.780883 0.624677 24.7316 11.8232)" fill="white"/>
<rect width="2.9446" height="2.06746" transform="matrix(-0.933982 0.35732 0.35732 0.933982 23.2736 14.2725)" fill="white"/>
<circle cx="22.8409" cy="29.4458" r="2.04605" transform="rotate(-5.10319 22.8409 29.4458)" fill="white"/>
<rect x="23.4675" y="27.7285" width="2.9446" height="2.06746" transform="rotate(-35.509 23.4675 27.7285)" fill="white"/>
<circle cx="37.243" cy="33.6651" r="2.04605" transform="rotate(163.865 37.243 33.6651)" fill="white"/>
<rect x="36.9554" y="35.4709" width="2.9446" height="2.06746" transform="rotate(133.459 36.9554 35.4709)" fill="white"/>
<circle cx="40.9959" cy="49.429" r="2.04605" transform="rotate(-20.0939 40.9959 49.429)" fill="white"/>
<rect x="41.158" y="47.6074" width="2.9446" height="2.06746" transform="rotate(-50.4997 41.158 47.6074)" fill="white"/>
<circle cx="58.0842" cy="48.5113" r="2.04605" transform="rotate(141.679 58.0842 48.5113)" fill="white"/>
<rect x="58.5016" y="50.2925" width="2.9446" height="2.06746" transform="rotate(111.274 58.5016 50.2925)" fill="white"/>
<circle cx="72.7123" cy="58.9268" r="2.04605" transform="rotate(-64.1954 72.7123 58.9268)" fill="white"/>
<rect x="71.5623" y="57.5063" width="2.9446" height="2.06746" transform="rotate(-94.6012 71.5623 57.5063)" fill="white"/>
<circle cx="104.027" cy="42.9152" r="2.04605" transform="rotate(-104.962 104.027 42.9152)" fill="white"/>
<rect x="102.227" y="42.5911" width="2.9446" height="2.06746" transform="rotate(-135.368 102.227 42.5911)" fill="white"/>
<circle cx="119.824" cy="19.8685" r="2.04605" transform="rotate(-127.076 119.824 19.8685)" fill="white"/>
<rect x="118.033" y="20.2458" width="2.9446" height="2.06746" transform="rotate(-157.482 118.033 20.2458)" fill="white"/>
<circle cx="2.04605" cy="2.04605" r="2.04605" transform="matrix(0.884085 0.467326 0.467326 -0.884085 83.2499 46.2598)" fill="white"/>
<rect width="2.9446" height="2.06746" transform="matrix(0.525967 0.850505 0.850505 -0.525967 85.9286 47.2336)" fill="white"/>
<circle cx="2.04605" cy="2.04605" r="2.04605" transform="matrix(0.996737 0.0807192 0.0807192 -0.996737 103.584 28.5396)" fill="white"/>
<rect width="2.9446" height="2.06746" transform="matrix(0.818794 0.574087 0.574087 -0.818794 106.43 28.3779)" fill="white"/>
<circle cx="2.04605" cy="2.04605" r="2.04605" transform="matrix(0.972428 -0.233203 -0.233203 -0.972428 113.547 8.37183)" fill="white"/>
<rect width="2.9446" height="2.06746" transform="matrix(0.956712 0.291037 0.291037 -0.956712 116.202 7.33325)" fill="white"/>
<mask id="mask0_636_26545" style="mask-type:alpha" maskUnits="userSpaceOnUse" x="14" y="-62" width="109" height="118">
<path d="M122.021 -9.32822C122.021 18.9601 98.1495 54.6443 68.7023 54.6443C39.2552 54.6443 15.3835 18.9601 15.3835 -9.32822C15.3835 -37.6166 39.2552 -60.5488 68.7023 -60.5488C98.1495 -60.5488 122.021 -37.6166 122.021 -9.32822Z" stroke="white"/>
</mask>
<g mask="url(#mask0_636_26545)">
<rect x="0.000244141" y="0.269043" width="136.51" height="181.744" rx="24" fill="white"/>
</g>
<path d="M60.0006 98.1255V125.063H55.1226V105.26H49.9898V102.312L50.8271 102.057C52.2589 101.644 53.4238 101.171 54.3218 100.637C55.2197 100.103 56.0691 99.3754 56.8699 98.4532L57.1976 98.1255H60.0006ZM65.972 125.063V121.642L71.032 117.164C72.8764 115.587 74.466 114.228 75.8007 113.087C77.1355 111.922 78.1669 110.83 78.8949 109.811C79.623 108.792 79.987 107.675 79.987 106.462C79.987 105.54 79.7565 104.751 79.2954 104.096C78.8585 103.44 78.2882 102.943 77.5844 102.603C76.8807 102.263 76.1526 102.093 75.4003 102.093C74.3567 102.093 73.5074 102.3 72.8521 102.712C72.2211 103.125 71.7358 103.622 71.396 104.205C71.0805 104.787 70.8621 105.358 70.7408 105.916C70.6194 106.45 70.5587 106.85 70.5587 107.117H65.8264C65.8264 106.583 65.9113 105.928 66.0812 105.151C66.2754 104.35 66.5909 103.525 67.0277 102.676C67.4645 101.826 68.047 101.026 68.775 100.273C69.5031 99.521 70.4253 98.9143 71.5416 98.4532C72.658 97.9921 73.9806 97.7615 75.5095 97.7615C77.2083 97.7615 78.7615 98.1013 80.169 98.7808C81.6009 99.4603 82.7415 100.431 83.5909 101.693C84.4645 102.955 84.9014 104.472 84.9014 106.243C84.9014 107.869 84.4888 109.35 83.6637 110.684C82.8628 112.019 81.7586 113.33 80.351 114.616C78.9435 115.878 77.3418 117.237 75.5459 118.693L73.2889 120.732H85.3746V125.063H65.972Z" fill="white"/>
<mask id="mask1_636_26545" style="mask-type:alpha" maskUnits="userSpaceOnUse" x="0" y="0" width="137" height="183">
<rect x="0.0113525" width="136.491" height="182.024" fill="white"/>
</mask>
<g mask="url(#mask1_636_26545)">
<ellipse cx="68.1274" cy="194.742" rx="29.7479" ry="32.3158" stroke="white" stroke-width="4.55033"/>
<path d="M87.413 167.462C89.7163 166.072 95.2618 161.987 99.0167 156.771C102.772 151.556 104.145 146.602 104.362 144.776" stroke="white" stroke-width="7.28052" stroke-linecap="round"/>
<path d="M93.557 149.174C95.263 151.255 96.6193 159.796 96.6193 159.796C96.6193 159.796 108.017 156 109.855 155.954" stroke="white" stroke-width="7.28052" stroke-linecap="round"/>
<path d="M49.2795 167.789C46.9762 166.398 41.4307 162.313 37.6758 157.098C33.9208 151.883 32.5475 146.928 32.3302 145.103" stroke="white" stroke-width="7.28052" stroke-linecap="round"/>
<path d="M43.1343 149.501C41.4283 151.581 40.072 160.123 40.072 160.123C40.072 160.123 28.6742 156.327 26.8365 156.28" stroke="white" stroke-width="7.28052" stroke-linecap="round"/>
<circle cx="27.9291" cy="84.0611" r="1.82013" fill="white"/>
</g>
<circle cx="67.3449" cy="90.0966" r="0.910065" fill="white" fill-opacity="0.8"/>
<circle cx="109.116" cy="64.8752" r="0.910065" fill="white" fill-opacity="0.8"/>
<circle cx="66.4346" cy="16.674" r="0.910065" fill="white" fill-opacity="0.5"/>
<circle cx="96.67" cy="94.403" r="0.910065" fill="white" fill-opacity="0.5"/>
<circle cx="123.598" cy="156.393" r="0.910065" fill="white" fill-opacity="0.5"/>
<circle cx="17.146" cy="53.9464" r="0.910065" fill="white" fill-opacity="0.5"/>
<circle cx="54.596" cy="32.0409" r="0.910065" fill="white"/>
<circle cx="67.3449" cy="144.564" r="0.910065" fill="white"/>
<circle cx="11.818" cy="168.092" r="0.910065" fill="white"/>
<circle cx="22.2668" cy="132.456" r="0.910065" fill="white" fill-opacity="0.5"/>
<circle cx="94.8502" cy="18.4251" r="1.82013" fill="white"/>
<circle cx="39.3369" cy="10.3909" r="1.82013" fill="white" fill-opacity="0.2"/>
<circle cx="110.772" cy="123.646" r="1.82013" fill="white"/>
</g>
<defs>
<clipPath id="clip0_636_26545">
<rect width="136.51" height="182.013" rx="24" fill="white"/>
</clipPath>
</defs>
</svg>
