<svg width="208" height="139" viewBox="0 0 208 139" fill="none" xmlns="http://www.w3.org/2000/svg">
<rect width="207.202" height="138.135" rx="24" fill="#E24C5E"/>
<path d="M194.505 13.0979C196.132 14.7248 196.132 17.3626 194.505 18.9895L191.561 21.9336C191.56 21.9341 191.56 21.9347 191.56 21.9353C191.56 21.9359 191.56 21.9365 191.561 21.937L193.544 23.9199C195.701 26.0777 195.701 29.5761 193.544 31.7339L191.561 33.7168C191.56 33.7173 191.56 33.7179 191.56 33.7185C191.56 33.7191 191.56 33.7197 191.561 33.7202L193.544 35.7031C195.701 37.8609 195.701 41.3594 193.544 43.5171L191.561 45.5C191.56 45.5005 191.56 45.5011 191.56 45.5017C191.56 45.5023 191.56 45.5029 191.561 45.5034L193.543 47.4859C195.701 49.6439 195.701 53.1426 193.543 55.3004L191.561 57.2823C191.56 57.2827 191.56 57.2833 191.56 57.2839C191.56 57.2846 191.56 57.2852 191.561 57.2856L193.544 59.2685C195.701 61.4263 195.701 64.9248 193.544 67.0826L191.561 69.0655C191.56 69.0659 191.56 69.0665 191.56 69.0671C191.56 69.0678 191.56 69.0684 191.561 69.0688L193.544 71.0517C195.701 73.2095 195.701 76.708 193.544 78.8658L191.561 80.8487C191.56 80.8491 191.56 80.8497 191.56 80.8503C191.56 80.851 191.56 80.8516 191.561 80.852L193.544 82.8349C195.701 84.9927 195.701 88.4912 193.544 90.649L191.561 92.6319C191.56 92.6323 191.56 92.6329 191.56 92.6335C191.56 92.6342 191.56 92.6348 191.561 92.6352L193.544 94.6181C195.701 96.7759 195.701 100.274 193.544 102.432L191.561 104.415C191.56 104.416 191.56 104.416 191.56 104.417C191.56 104.417 191.56 104.418 191.561 104.418L193.543 106.401C195.701 108.559 195.701 112.058 193.543 114.215L191.561 116.197C191.56 116.198 191.56 116.198 191.56 116.199C191.56 116.2 191.56 116.2 191.561 116.201L194.505 119.145C196.132 120.772 196.132 123.409 194.505 125.036C192.878 126.663 190.24 126.663 188.613 125.036L185.669 122.091C185.668 122.091 185.668 122.091 185.668 122.091C185.668 122.091 185.667 122.091 185.667 122.091L182.721 125.036C181.095 126.663 178.457 126.663 176.83 125.036C175.203 123.41 172.565 123.409 170.939 125.036C169.312 126.663 166.675 126.663 165.048 125.036C163.421 123.41 160.783 123.41 159.156 125.036C157.529 126.663 154.891 126.663 153.264 125.036C151.638 123.41 149 123.409 147.373 125.036C145.747 126.663 143.109 126.663 141.482 125.036C139.856 123.41 137.218 123.41 135.591 125.036C133.964 126.663 131.326 126.663 129.699 125.036C128.072 123.41 125.435 123.409 123.808 125.036C122.181 126.663 119.544 126.663 117.917 125.036C116.29 123.41 113.652 123.409 112.025 125.036C110.398 126.663 107.761 126.663 106.134 125.036L103.188 122.091C103.188 122.091 103.188 122.091 103.187 122.091C103.187 122.091 103.187 122.091 103.187 122.091L100.241 125.037C98.614 126.664 95.9766 126.664 94.35 125.037C92.7233 123.41 90.086 123.41 88.4594 125.037C86.8327 126.664 84.1954 126.664 82.5687 125.037L79.6228 122.091C79.6226 122.091 79.6223 122.091 79.6219 122.091C79.6216 122.091 79.6213 122.091 79.6211 122.091L76.6757 125.036C75.0487 126.663 72.411 126.663 70.7841 125.036C69.1571 123.409 66.5193 123.41 64.8924 125.036C63.2655 126.663 60.6276 126.663 59.0008 125.036C57.374 123.41 54.7364 123.409 53.1097 125.036C51.4831 126.663 48.8454 126.663 47.2187 125.036C45.5918 123.41 42.9539 123.41 41.327 125.036C39.7002 126.663 37.0622 126.663 35.4354 125.036C33.8086 123.41 31.1709 123.409 29.5443 125.036C27.9177 126.663 25.2802 126.663 23.6534 125.037L20.7088 122.092C20.7079 122.091 20.7067 122.091 20.7054 122.091C20.7042 122.091 20.703 122.091 20.7021 122.092L17.7579 125.036C16.1309 126.663 13.493 126.663 11.8661 125.036C10.2396 123.409 10.2398 120.772 11.8662 119.145C13.4924 117.518 13.4926 114.88 11.8662 113.254C10.2397 111.627 10.2397 108.99 11.8662 107.363L14.8119 104.417L14.8127 104.418C14.8135 104.418 14.8148 104.418 14.8148 104.417C14.8148 104.416 14.8135 104.415 14.8127 104.416L14.8119 104.417L12.8273 102.432C10.67 100.274 10.67 96.7762 12.8273 94.6184L14.8119 92.6335L14.8127 92.6344C14.8135 92.6352 14.8148 92.6346 14.8148 92.6335C14.8148 92.6325 14.8135 92.6319 14.8127 92.6327L14.8119 92.6335L12.8273 90.6487C10.67 88.4909 10.67 84.993 12.8273 82.8352L14.8119 80.8503L14.8127 80.8512C14.8135 80.852 14.8148 80.8514 14.8148 80.8503C14.8148 80.8493 14.8135 80.8487 14.8127 80.8495L14.8119 80.8503L12.8273 78.8655C10.67 76.7077 10.67 73.2097 12.8273 71.052L14.8119 69.0671L14.8127 69.068C14.8135 69.0688 14.8148 69.0682 14.8148 69.0671C14.8148 69.0661 14.8135 69.0655 14.8127 69.0663L14.8119 69.0671L11.8663 66.1211C10.2397 64.4942 10.2398 61.8566 11.8663 60.2296C13.4926 58.6027 13.4926 55.9654 11.8662 54.3387C10.2397 52.7119 10.2397 50.0747 11.8662 48.4479L14.8119 45.5017L14.8127 45.5026C14.8135 45.5033 14.8148 45.5028 14.8148 45.5017C14.8148 45.5006 14.8135 45.5001 14.8127 45.5009L14.8119 45.5017L12.8273 43.5168C10.67 41.3591 10.67 37.8611 12.8273 35.7034L14.8119 33.7185L14.8127 33.7194C14.8135 33.7201 14.8148 33.7196 14.8148 33.7185C14.8148 33.7174 14.8135 33.7169 14.8127 33.7176L14.8119 33.7185L12.8273 31.7336C10.67 29.5759 10.67 26.0779 12.8273 23.9202L14.8119 21.9353L14.8127 21.9362C14.8135 21.9369 14.8148 21.9364 14.8148 21.9353C14.8148 21.9342 14.8135 21.9337 14.8127 21.9344L14.8119 21.9353L11.8662 18.9891C10.2397 17.3623 10.2397 14.7251 11.8662 13.0983C13.493 11.4712 16.1309 11.4711 17.7578 13.098L20.7021 16.0423C20.703 16.0432 20.7042 16.0437 20.7054 16.0437C20.7067 16.0437 20.7079 16.0432 20.7088 16.0423L23.6534 13.0977C25.2802 11.4709 27.9177 11.471 29.5443 13.0979C31.1709 14.7248 33.8086 14.7247 35.4354 13.098C37.0622 11.4711 39.7002 11.471 41.327 13.0979C42.9539 14.7248 45.5918 14.7247 47.2187 13.0978C48.8454 11.4711 51.4831 11.471 53.1097 13.0979C54.7364 14.7248 57.374 14.7247 59.0008 13.098C60.6276 11.4711 63.2655 11.471 64.8924 13.0978C66.5193 14.7248 69.1571 14.7248 70.7841 13.0979C72.411 11.471 75.0487 11.471 76.6757 13.0979L79.6211 16.0434C79.6213 16.0436 79.6216 16.0437 79.6219 16.0437C79.6223 16.0437 79.6226 16.0436 79.6228 16.0434L82.5687 13.0974C84.1954 11.4708 86.8327 11.4708 88.4594 13.0974C90.086 14.7241 92.7233 14.7241 94.35 13.0974C95.9766 11.4708 98.614 11.4708 100.241 13.0974L103.187 16.0434C103.187 16.0436 103.187 16.0437 103.187 16.0437C103.188 16.0437 103.188 16.0436 103.188 16.0434L106.134 13.0979C107.761 11.471 110.398 11.471 112.025 13.0979C113.652 14.7248 116.29 14.7246 117.917 13.0977C119.544 11.471 122.181 11.4708 123.808 13.0975C125.435 14.7242 128.072 14.7241 129.699 13.0976C131.326 11.4709 133.964 11.471 135.591 13.0978C137.217 14.7247 139.856 14.7246 141.482 13.0977C143.109 11.471 145.747 11.4708 147.374 13.0975C149 14.7242 151.638 14.7241 153.264 13.0976C154.891 11.4709 157.529 11.471 159.156 13.0978C160.783 14.7247 163.421 14.7246 165.048 13.0977C166.675 11.471 169.312 11.4708 170.939 13.0975C172.566 14.7242 175.203 14.7241 176.83 13.0976C178.457 11.4709 181.095 11.471 182.721 13.0978C184.348 14.7247 186.986 14.7248 188.613 13.0979C190.24 11.471 192.878 11.471 194.505 13.0979ZM14.8127 116.198C14.8123 116.199 14.8123 116.199 14.8127 116.2C14.8135 116.201 14.8148 116.2 14.8148 116.199C14.8148 116.198 14.8135 116.197 14.8127 116.198ZM14.8127 57.2831C14.8123 57.2836 14.8123 57.2843 14.8127 57.2848C14.8135 57.2856 14.8148 57.285 14.8148 57.2839C14.8148 57.2829 14.8135 57.2823 14.8127 57.2831Z" fill="white"/>
<path d="M93.1433 48.3006V89.1885H85.7393V59.1304H77.9485V54.6548L79.2193 54.268C81.3926 53.6418 83.1608 52.9235 84.5237 52.1131C85.8866 51.3027 87.1759 50.1976 88.3915 48.7979L88.8887 48.3006H93.1433ZM107.567 89.1885C107.714 85.7627 108.156 82.5212 108.893 79.4638C109.666 76.4064 110.606 73.5885 111.711 71.0099C112.853 68.3946 114.05 66.0371 115.302 63.9374C116.555 61.8378 117.733 60.0328 118.839 58.5226C119.98 56.9755 120.938 55.7599 121.712 54.8758H100.881V48.3006H130.055V53.7155C130.055 53.7155 129.705 54.1022 129.005 54.8758C128.342 55.6125 127.458 56.7176 126.353 58.191C125.285 59.6276 124.124 61.3958 122.872 63.4954C121.62 65.5582 120.422 67.9157 119.281 70.5679C118.175 73.1833 117.218 76.0565 116.407 79.1875C115.634 82.3186 115.192 85.6522 115.081 89.1885H107.567Z" fill="#E24C5E"/>
<path d="M176.091 55.0303C176.346 55.965 177.498 56.9195 178.086 57.6391" stroke="#E24C5E" stroke-width="2.07202" stroke-linecap="round"/>
<path d="M159.978 111.52C159.723 110.585 158.572 109.631 157.983 108.911" stroke="#E24C5E" stroke-width="2.07202" stroke-linecap="round"/>
<path d="M169.817 35.6929V38.7756" stroke="#E24C5E" stroke-width="2.07202" stroke-linecap="round"/>
<path d="M96.9535 31.1055V34.1882" stroke="#E24C5E" stroke-width="2.07202" stroke-linecap="round"/>
<path d="M49.8206 48.0859L46.8429 47.2881" stroke="#E24C5E" stroke-width="2.07202" stroke-linecap="round"/>
<path d="M157.986 24.5769L155.008 23.779" stroke="#E24C5E" stroke-width="2.07202" stroke-linecap="round"/>
<path d="M149.949 97.605L147.101 98.7831" stroke="#E24C5E" stroke-width="2.07202" stroke-linecap="round"/>
<path d="M67.6151 116.159L70.4638 117.337" stroke="#E24C5E" stroke-width="2.07202" stroke-linecap="round"/>
<path d="M147.102 71.8994V73.4408" stroke="#E24C5E" stroke-width="2.07202" stroke-linecap="round"/>
<path d="M58.2433 61.1465C58.2433 62.0206 58.0614 63.0221 58.5503 63.7554" stroke="#E24C5E" stroke-width="2.07202" stroke-linecap="round"/>
<path d="M33.7867 90.7468C33.7867 89.8728 33.6047 88.8712 34.0936 88.138" stroke="#E24C5E" stroke-width="2.07202" stroke-linecap="round"/>
<path d="M33.4478 31.1055C33.4478 31.9795 33.2659 32.981 33.7547 33.7143" stroke="#E24C5E" stroke-width="2.07202" stroke-linecap="round"/>
<path d="M170.662 71.8994C170.662 72.8253 170.681 73.754 170.628 74.6788C170.525 76.4763 169.964 77.5116 168.974 78.9587" stroke="#E24C5E" stroke-width="2.07202" stroke-linecap="round"/>
<path d="M60.8735 94.6643C60.8735 95.5902 60.8501 96.5189 60.9155 97.4437C61.0427 99.2412 61.7328 100.276 62.9518 101.724" stroke="#E24C5E" stroke-width="2.07202" stroke-linecap="round"/>
<path d="M65.4398 27.9445C64.5139 27.9445 63.5852 27.921 62.6604 27.9864C60.8629 28.1136 59.8276 28.8037 58.3805 30.0227" stroke="#E24C5E" stroke-width="2.07202" stroke-linecap="round"/>
<path d="M26.6945 109.442C27.6204 109.442 28.5491 109.418 29.4738 109.484C31.2713 109.611 32.3066 110.301 33.7537 111.52" stroke="#E24C5E" stroke-width="2.07202" stroke-linecap="round"/>
<path d="M179.083 101.337C178.828 102.272 177.677 103.227 177.088 103.946" stroke="#E24C5E" stroke-width="2.07202" stroke-linecap="round"/>
<path d="M131.573 37.4712C131.828 38.406 132.979 39.3604 133.568 40.0801" stroke="#E24C5E" stroke-width="2.07202" stroke-linecap="round"/>
<path d="M131.573 106.302C131.318 107.237 130.167 108.191 129.578 108.911" stroke="#E24C5E" stroke-width="2.07202" stroke-linecap="round"/>
<path d="M151.945 50.6943C151.69 49.7596 150.539 48.8051 149.95 48.0855" stroke="#E24C5E" stroke-width="2.07202" stroke-linecap="round"/>
<path d="M31.759 65.1345C32.014 66.0693 33.1652 67.0237 33.754 67.7434" stroke="#E24C5E" stroke-width="2.07202" stroke-linecap="round"/>
<path d="M63.9478 75.4287C63.6928 76.3635 62.5416 77.3179 61.9527 78.0376" stroke="#E24C5E" stroke-width="2.07202" stroke-linecap="round"/>
<path d="M104.177 112.824C103.923 111.889 102.771 110.935 102.182 110.215" stroke="#E24C5E" stroke-width="2.07202" stroke-linecap="round"/>
</svg>
