<svg width="187" height="125" viewBox="0 0 187 125" fill="none" xmlns="http://www.w3.org/2000/svg">
<g clip-path="url(#clip0_636_26502)">
<rect width="186.923" height="124.615" rx="24" fill="white"/>
<path d="M81.5351 43.9562V80.8423H74.8557V53.726H67.8274V49.6885L68.9739 49.3396C70.9345 48.7746 72.5296 48.1266 73.7591 47.3956C74.9886 46.6645 76.1517 45.6676 77.2483 44.4048L77.6969 43.9562H81.5351ZM103.669 81.2909C101.276 81.2909 99.1327 80.7924 97.2386 79.7955C95.3776 78.7986 93.8158 77.4361 92.553 75.7081C91.2903 73.9469 90.3266 71.9364 89.662 69.6768C88.9973 67.3838 88.665 64.9414 88.665 62.3494C88.665 59.7906 88.9973 57.3648 89.662 55.0719C90.3266 52.7789 91.2903 50.7685 92.553 49.0405C93.8158 47.2792 95.3776 45.9002 97.2386 44.9033C99.1327 43.9063 101.276 43.4079 103.669 43.4079C106.061 43.4079 108.188 43.9063 110.049 44.9033C111.943 45.9002 113.522 47.2792 114.784 49.0405C116.047 50.7685 117.011 52.7789 117.675 55.0719C118.34 57.3648 118.672 59.7906 118.672 62.3494C118.672 64.9414 118.34 67.3838 117.675 69.6768C117.011 71.9364 116.047 73.9469 114.784 75.7081C113.522 77.4361 111.943 78.7986 110.049 79.7955C108.188 80.7924 106.061 81.2909 103.669 81.2909ZM103.669 75.2595C105.995 75.2595 107.906 74.1795 109.401 72.0195C110.93 69.8595 111.694 66.6361 111.694 62.3494C111.694 58.0959 110.93 54.9057 109.401 52.7789C107.906 50.6189 105.995 49.5389 103.669 49.5389C101.343 49.5389 99.4152 50.6189 97.8866 52.7789C96.3912 54.9057 95.6435 58.0959 95.6435 62.3494C95.6435 66.6029 96.3912 69.8263 97.8866 72.0195C99.4152 74.1795 101.343 75.2595 103.669 75.2595Z" fill="#E24C5E"/>
<rect x="7.13684" y="0.519775" width="17.7727" height="17.7727" transform="rotate(45 7.13684 0.519775)" fill="#E24C5E"/>
<rect x="157.943" y="0.519775" width="17.7727" height="17.7727" transform="rotate(45 157.943 0.519775)" fill="#E24C5E"/>
<rect x="82.5391" y="0.519775" width="17.7727" height="17.7727" transform="rotate(45 82.5391 0.519775)" fill="#E24C5E"/>
<rect x="32.2708" y="0.519775" width="17.7727" height="17.7727" transform="rotate(45 32.2708 0.519775)" fill="#E24C5E"/>
<rect x="183.075" y="0.519775" width="17.7727" height="17.7727" transform="rotate(45 183.075 0.519775)" fill="#E24C5E"/>
<rect x="107.672" y="0.519775" width="17.7727" height="17.7727" transform="rotate(45 107.672 0.519775)" fill="#E24C5E"/>
<rect x="57.4065" y="0.519775" width="17.7727" height="17.7727" transform="rotate(45 57.4065 0.519775)" fill="#E24C5E"/>
<rect x="132.807" y="0.519775" width="17.7727" height="17.7727" transform="rotate(45 132.807 0.519775)" fill="#E24C5E"/>
<rect x="-5.42908" y="-7.28735" width="201.076" height="20.3738" fill="#E24C5E"/>
<rect x="183.077" y="130.623" width="17.7727" height="17.7727" transform="rotate(-135 183.077 130.623)" fill="#E24C5E"/>
<rect x="32.2683" y="130.623" width="17.7727" height="17.7727" transform="rotate(-135 32.2683 130.623)" fill="#E24C5E"/>
<rect x="107.673" y="130.623" width="17.7727" height="17.7727" transform="rotate(-135 107.673 130.623)" fill="#E24C5E"/>
<rect x="157.942" y="130.623" width="17.7727" height="17.7727" transform="rotate(-135 157.942 130.623)" fill="#E24C5E"/>
<rect x="7.13525" y="130.623" width="17.7727" height="17.7727" transform="rotate(-135 7.13525 130.623)" fill="#E24C5E"/>
<rect x="82.5388" y="130.623" width="17.7727" height="17.7727" transform="rotate(-135 82.5388 130.623)" fill="#E24C5E"/>
<rect x="132.807" y="130.623" width="17.7727" height="17.7727" transform="rotate(-135 132.807 130.623)" fill="#E24C5E"/>
<rect x="57.4036" y="130.623" width="17.7727" height="17.7727" transform="rotate(-135 57.4036 130.623)" fill="#E24C5E"/>
<rect x="195.644" y="138.43" width="201.076" height="20.3738" transform="rotate(180 195.644 138.43)" fill="#E24C5E"/>
<path d="M144.777 63.8963C144.405 65.2862 145.677 66.5581 147.066 66.1857L153.605 64.4337C154.995 64.0612 155.46 62.3239 154.443 61.3064L149.656 56.5198C148.639 55.5023 146.902 55.9678 146.529 57.3577L144.777 63.8963Z" fill="#E24C5E"/>
<path d="M171.425 92.7091C171.797 94.099 170.526 95.3708 169.136 94.9984L162.597 93.2464C161.207 92.874 160.742 91.1366 161.759 90.1191L166.546 85.3325C167.563 84.3151 169.301 84.7806 169.673 86.1705L171.425 92.7091Z" fill="#E24C5E"/>
<path d="M91.5513 99.4979C91.1789 100.888 92.4508 102.16 93.8407 101.787L100.379 100.035C101.769 99.6628 102.235 97.9254 101.217 96.9079L96.4306 92.1214C95.4131 91.1039 93.6758 91.5694 93.3033 92.9593L91.5513 99.4979Z" fill="#E24C5E"/>
<path d="M47.1181 40.9962C46.8556 41.9759 47.752 42.8724 48.7317 42.6099L53.3405 41.375C54.3202 41.1125 54.6483 39.8879 53.9311 39.1707L50.5573 35.7968C49.8401 35.0796 48.6155 35.4078 48.353 36.3875L47.1181 40.9962Z" fill="#E24C5E"/>
<path d="M27.4846 85.2752C27.857 86.6651 26.5851 87.937 25.1952 87.5646L18.6567 85.8126C17.2668 85.4401 16.8012 83.7028 17.8187 82.6853L22.6053 77.8987C23.6228 76.8812 25.3601 77.3468 25.7326 78.7367L27.4846 85.2752Z" fill="#E24C5E"/>
<path d="M19.3106 49.1058C19.55 49.999 18.7326 50.8164 17.8394 50.5771L13.6374 49.4511C12.7442 49.2118 12.445 48.0953 13.0989 47.4414L16.175 44.3654C16.8289 43.7115 17.9454 44.0106 18.1847 44.9039L19.3106 49.1058Z" fill="#E24C5E" fill-opacity="0.5"/>
<path d="M57.538 85.0727C57.9105 83.6828 56.6386 82.4109 55.2487 82.7833L48.7101 84.5353C47.3202 84.9078 46.8547 86.6451 47.8722 87.6626L52.6587 92.4492C53.6762 93.4667 55.4136 93.0011 55.786 91.6112L57.538 85.0727Z" fill="#E24C5E" fill-opacity="0.5"/>
<path d="M37.6615 65.6395C37.4963 66.2562 38.0607 66.8206 38.6774 66.6554L41.5789 65.8779C42.1957 65.7126 42.4023 64.9417 41.9508 64.4902L39.8267 62.3661C39.3752 61.9146 38.6043 62.1212 38.439 62.738L37.6615 65.6395Z" fill="#E24C5E"/>
<path d="M147.41 31.9314C147.605 31.2022 146.938 30.5349 146.209 30.7303L142.778 31.6495C142.049 31.8449 141.805 32.7565 142.339 33.2903L144.85 35.8017C145.384 36.3356 146.295 36.0913 146.491 35.3621L147.41 31.9314Z" fill="#E24C5E"/>
<path d="M135.681 87.2876C135.801 86.8398 135.391 86.43 134.943 86.55L132.836 87.1145C132.388 87.2345 132.238 87.7943 132.566 88.1222L134.109 89.6645C134.436 89.9924 134.996 89.8424 135.116 89.3945L135.681 87.2876Z" fill="#E24C5E" fill-opacity="0.5"/>
<path d="M174.509 44.0525C174.301 44.8296 175.012 45.5407 175.789 45.3325L179.444 44.3529C180.221 44.1447 180.482 43.1734 179.913 42.6046L177.237 39.9285C176.668 39.3596 175.697 39.6199 175.488 40.397L174.509 44.0525Z" fill="#E24C5E" fill-opacity="0.5"/>
</g>
<defs>
<clipPath id="clip0_636_26502">
<rect width="186.923" height="124.615" rx="24" fill="white"/>
</clipPath>
</defs>
</svg>
