<svg width="173" height="116" viewBox="0 0 173 116" fill="none" xmlns="http://www.w3.org/2000/svg">
<g clip-path="url(#clip0_636_26675)">
<rect width="172.918" height="115.279" rx="24" fill="#E24C5E"/>
<path d="M75.7157 40.409V74.5315H69.5368V49.4469H63.0351V45.7118L64.0956 45.389C65.9094 44.8665 67.3849 44.267 68.5223 43.5907C69.6598 42.9144 70.7357 41.9922 71.7501 40.824L72.1651 40.409H75.7157ZM95.7299 74.9926C93.701 74.9926 91.9641 74.7159 90.5193 74.1626C89.0745 73.6093 87.8756 72.8869 86.9226 71.9954C85.9696 71.1039 85.2165 70.1663 84.6631 69.1826C84.1098 68.1989 83.7102 67.2613 83.4642 66.3698C83.2491 65.4783 83.1261 64.7559 83.0954 64.2025H88.9515C88.9515 64.2025 88.9823 64.4023 89.0437 64.802C89.1052 65.1709 89.2436 65.632 89.4587 66.1853C89.7047 66.7387 90.0582 67.3074 90.5193 67.8914C91.0112 68.4448 91.6721 68.9059 92.5021 69.2748C93.3321 69.6437 94.3773 69.8281 95.6377 69.8281C97.1747 69.8281 98.4351 69.5053 99.4188 68.8598C100.433 68.2142 101.186 67.3842 101.678 66.3698C102.17 65.3553 102.416 64.2794 102.416 63.142C102.416 62.0045 102.17 60.9286 101.678 59.9142C101.186 58.869 100.449 58.0082 99.4649 57.3319C98.4812 56.6556 97.2516 56.3175 95.776 56.3175C94.6386 56.3175 93.6856 56.5019 92.9171 56.8708C92.1793 57.2397 91.5952 57.6547 91.1649 58.1158C90.7345 58.5769 90.4271 58.9919 90.2426 59.3608C90.0582 59.7297 89.966 59.9142 89.966 59.9142H83.787L86.6921 40.409H106.197V45.8963H91.0265L89.7815 54.3347H89.966C90.1812 54.0887 90.55 53.7352 91.0726 53.2741C91.5952 52.813 92.333 52.398 93.286 52.0291C94.239 51.6602 95.484 51.4758 97.021 51.4758C99.511 51.4758 101.601 52.0291 103.292 53.1358C105.014 54.2424 106.32 55.6873 107.212 57.4703C108.103 59.2225 108.549 61.0823 108.549 63.0497C108.549 64.5253 108.272 65.9701 107.719 67.3842C107.196 68.7983 106.397 70.0894 105.321 71.2576C104.276 72.395 102.954 73.3019 101.355 73.9782C99.757 74.6545 97.8818 74.9926 95.7299 74.9926Z" fill="white"/>
<path d="M86.6364 -29.6191L91.1842 11.9406L104.005 -27.8529L100.094 13.7716L120.662 -22.6266L108.452 17.3585L135.927 -14.1542L115.918 22.5546L149.173 -2.78254L122.184 29.147L159.859 11.0229L126.995 36.866L167.548 26.6968L130.154 45.3954L171.924 43.5975L131.532 54.3862L172.808 61.0331L131.071 63.4701L170.164 78.2898L128.791 72.2754L164.101 94.6612L124.786 80.4415L154.866 109.477L119.218 87.6341L142.838 122.13L112.317 93.5588L128.509 132.104L104.364 97.9729L112.466 138.988L95.6854 100.696L95.3654 142.502L86.6364 101.616L77.9074 142.502L77.5874 100.696L60.8067 138.988L68.9089 97.9729L44.7635 132.104L60.9562 93.5588L30.4346 122.13L54.0548 87.6341L18.4066 109.477L48.4873 80.4415L9.17189 94.6612L44.4816 72.2754L3.10862 78.2898L42.2018 63.4701L0.464989 61.0331L41.7411 54.3862L1.34923 43.5975L43.1184 45.3954L5.72513 26.6968L46.2774 36.866L13.4135 11.0229L51.0887 29.147L24.0997 -2.78254L57.3552 22.5546L37.3461 -14.1542L64.8206 17.3585L52.6105 -22.6266L73.1791 13.7716L69.2679 -27.8529L82.0886 11.9406L86.6364 -29.6191Z" fill="white" fill-opacity="0.2"/>
<circle cx="20.962" cy="94.3566" r="2.88197" fill="white"/>
<circle cx="142.442" cy="39.4288" r="2.88197" fill="white"/>
<circle cx="39.0136" cy="40.0053" r="2.30557" fill="white"/>
<circle cx="147.631" cy="76.9482" r="2.30557" fill="white"/>
<circle cx="111.821" cy="13.8925" r="2.30557" fill="white"/>
<circle cx="18.0787" cy="13.8922" r="1.44098" fill="white"/>
<circle cx="149.936" cy="95.7974" r="1.44098" fill="white"/>
<rect x="6.6632" y="6.32921" width="159.773" height="102.143" rx="13.5452" stroke="white" stroke-width="0.576393"/>
</g>
<defs>
<clipPath id="clip0_636_26675">
<rect width="172.918" height="115.279" rx="24" fill="white"/>
</clipPath>
</defs>
</svg>
