<svg width="265" height="159" viewBox="0 0 265 159" fill="none" xmlns="http://www.w3.org/2000/svg">
<g clip-path="url(#clip0_636_26026)">
<rect width="264.696" height="158.818" rx="24" fill="white"/>
<rect width="264.696" height="37.1549" fill="#E24C5E"/>
<path d="M106.143 95.6746V91.6935L112.03 86.4843C114.176 84.6491 116.025 83.068 117.578 81.7409C119.131 80.3857 120.331 79.1151 121.178 77.9293C122.025 76.7435 122.449 75.4447 122.449 74.033C122.449 72.9601 122.181 72.0425 121.644 71.2801C121.136 70.5178 120.472 69.939 119.654 69.5437C118.835 69.1484 117.988 68.9508 117.112 68.9508C115.898 68.9508 114.91 69.1908 114.148 69.6708C113.414 70.1508 112.849 70.7296 112.454 71.4072C112.087 72.0848 111.833 72.7483 111.691 73.3977C111.55 74.0189 111.48 74.4847 111.48 74.7953H105.974C105.974 74.1741 106.073 73.4118 106.271 72.5083C106.496 71.5766 106.863 70.6166 107.372 69.6284C107.88 68.6402 108.557 67.7085 109.405 66.8332C110.252 65.958 111.324 65.2521 112.623 64.7157C113.922 64.1792 115.461 63.911 117.24 63.911C119.216 63.911 121.023 64.3063 122.661 65.0968C124.326 65.8874 125.653 67.0168 126.642 68.4849C127.658 69.9531 128.166 71.7178 128.166 73.7789C128.166 75.6706 127.686 77.3929 126.726 78.9457C125.795 80.4986 124.51 82.0233 122.872 83.5197C121.235 84.9879 119.371 86.569 117.282 88.2631L114.656 90.6347H128.717V95.6746H106.143ZM147.757 95.6746V88.983L132.553 88.9407V83.9009L146.402 64.3345H153.474V84.1126H158.557V88.983H153.474V95.6746H147.757ZM138.228 84.1126H147.757V70.6449L138.228 84.1126Z" fill="#E24C5E"/>
<rect y="121.76" width="264.696" height="37.1549" fill="#E24C5E"/>
<path d="M18.1244 29.6941L18.1244 6.73532" stroke="white" stroke-width="0.529393" stroke-linecap="round"/>
<path d="M18.1244 29.6941L18.1244 6.73532" stroke="white" stroke-width="0.529393" stroke-linecap="round"/>
<path d="M15.8272 12.2921L18.1238 14.5886L20.4203 12.2921" stroke="white" stroke-width="0.529393" stroke-linecap="round"/>
<path d="M20.4203 23.7074L18.1238 21.4109L15.8272 23.7074" stroke="white" stroke-width="0.529393" stroke-linecap="round"/>
<path d="M15.8272 8.04841L18.1238 10.345L20.4203 8.04841" stroke="white" stroke-width="0.529393" stroke-linecap="round"/>
<path d="M20.4203 27.9511L18.1238 25.6545L15.8272 27.9511" stroke="white" stroke-width="0.529393" stroke-linecap="round"/>
<path d="M6.42969 17.9998L29.3885 17.9998" stroke="white" stroke-width="0.529393" stroke-linecap="round"/>
<path d="M6.42969 17.9998L29.3885 17.9998" stroke="white" stroke-width="0.529393" stroke-linecap="round"/>
<path d="M23.8318 15.7032L21.5353 17.9998L23.8318 20.2963" stroke="white" stroke-width="0.529393" stroke-linecap="round"/>
<path d="M12.4158 20.2963L14.7124 17.9998L12.4158 15.7032" stroke="white" stroke-width="0.529393" stroke-linecap="round"/>
<path d="M28.0755 15.7032L25.7789 17.9998L28.0755 20.2963" stroke="white" stroke-width="0.529393" stroke-linecap="round"/>
<path d="M8.17219 20.2963L10.4688 17.9998L8.17219 15.7032" stroke="white" stroke-width="0.529393" stroke-linecap="round"/>
<path d="M9.85559 9.73047L26.0899 25.9648" stroke="white" stroke-width="0.529393" stroke-linecap="round"/>
<path d="M9.85559 9.73047L26.0899 25.9648" stroke="white" stroke-width="0.529393" stroke-linecap="round"/>
<path d="M23.7846 20.4116H20.5367V23.6594" stroke="white" stroke-width="0.529393" stroke-linecap="round"/>
<path d="M12.4642 15.5874L15.712 15.5874L15.712 12.3396" stroke="white" stroke-width="0.529393" stroke-linecap="round"/>
<path d="M26.7849 23.4126H23.5371V26.6604" stroke="white" stroke-width="0.529393" stroke-linecap="round"/>
<path d="M9.46384 12.5869L12.7117 12.5869L12.7117 9.33909" stroke="white" stroke-width="0.529393" stroke-linecap="round"/>
<path d="M26.3937 9.73022L10.1594 25.9645" stroke="white" stroke-width="0.529393" stroke-linecap="round"/>
<path d="M26.3937 9.73022L10.1594 25.9645" stroke="white" stroke-width="0.529393" stroke-linecap="round"/>
<path d="M15.7122 23.6594L15.7122 20.4116L12.4643 20.4116" stroke="white" stroke-width="0.529393" stroke-linecap="round"/>
<path d="M20.5361 12.3398V15.5876H23.784" stroke="white" stroke-width="0.529393" stroke-linecap="round"/>
<path d="M12.7118 26.6602L12.7118 23.4124L9.46397 23.4124" stroke="white" stroke-width="0.529393" stroke-linecap="round"/>
<path d="M23.5365 9.33909V12.5869H26.7843" stroke="white" stroke-width="0.529393" stroke-linecap="round"/>
<path d="M56.3853 29.6938L56.3853 6.73508" stroke="white" stroke-width="0.529393" stroke-linecap="round"/>
<path d="M56.3853 29.6938L56.3853 6.73508" stroke="white" stroke-width="0.529393" stroke-linecap="round"/>
<path d="M54.0889 12.2913L56.3855 14.5879L58.6821 12.2913" stroke="white" stroke-width="0.529393" stroke-linecap="round"/>
<path d="M58.6821 23.7072L56.3855 21.4106L54.0889 23.7072" stroke="white" stroke-width="0.529393" stroke-linecap="round"/>
<path d="M54.0889 8.04768L56.3855 10.3442L58.6821 8.04768" stroke="white" stroke-width="0.529393" stroke-linecap="round"/>
<path d="M58.6821 27.9509L56.3855 25.6543L54.0889 27.9509" stroke="white" stroke-width="0.529393" stroke-linecap="round"/>
<path d="M44.6903 17.9995L67.6491 17.9995" stroke="white" stroke-width="0.529393" stroke-linecap="round"/>
<path d="M44.6903 17.9995L67.6491 17.9995" stroke="white" stroke-width="0.529393" stroke-linecap="round"/>
<path d="M62.0918 15.703L59.7953 17.9995L62.0918 20.2961" stroke="white" stroke-width="0.529393" stroke-linecap="round"/>
<path d="M50.6766 20.2961L52.9731 17.9995L50.6766 15.703" stroke="white" stroke-width="0.529393" stroke-linecap="round"/>
<path d="M66.3362 15.703L64.0397 17.9995L66.3362 20.2961" stroke="white" stroke-width="0.529393" stroke-linecap="round"/>
<path d="M46.4329 20.2961L48.7295 17.9995L46.4329 15.703" stroke="white" stroke-width="0.529393" stroke-linecap="round"/>
<path d="M48.1151 9.73047L64.3494 25.9648" stroke="white" stroke-width="0.529393" stroke-linecap="round"/>
<path d="M48.1151 9.73047L64.3494 25.9648" stroke="white" stroke-width="0.529393" stroke-linecap="round"/>
<path d="M62.0446 20.4119H58.7968V23.6597" stroke="white" stroke-width="0.529393" stroke-linecap="round"/>
<path d="M50.7242 15.5874L53.972 15.5874L53.972 12.3396" stroke="white" stroke-width="0.529393" stroke-linecap="round"/>
<path d="M65.0449 23.4126H61.7971V26.6604" stroke="white" stroke-width="0.529393" stroke-linecap="round"/>
<path d="M47.7239 12.5867L50.9717 12.5867L50.9717 9.33884" stroke="white" stroke-width="0.529393" stroke-linecap="round"/>
<path d="M64.6537 9.72998L48.4194 25.9643" stroke="white" stroke-width="0.529393" stroke-linecap="round"/>
<path d="M64.6537 9.72998L48.4194 25.9643" stroke="white" stroke-width="0.529393" stroke-linecap="round"/>
<path d="M53.9728 23.6592L53.9728 20.4114L50.725 20.4114" stroke="white" stroke-width="0.529393" stroke-linecap="round"/>
<path d="M58.7968 12.3396V15.5874H62.0446" stroke="white" stroke-width="0.529393" stroke-linecap="round"/>
<path d="M50.9724 26.6599L50.9724 23.4121L47.7246 23.4121" stroke="white" stroke-width="0.529393" stroke-linecap="round"/>
<path d="M61.7971 9.33884V12.5867H65.0449" stroke="white" stroke-width="0.529393" stroke-linecap="round"/>
<path d="M94.6439 29.6938L94.6439 6.73508" stroke="white" stroke-width="0.529393" stroke-linecap="round"/>
<path d="M94.6439 29.6938L94.6439 6.73508" stroke="white" stroke-width="0.529393" stroke-linecap="round"/>
<path d="M92.3475 12.2918L94.644 14.5884L96.9406 12.2918" stroke="white" stroke-width="0.529393" stroke-linecap="round"/>
<path d="M96.9406 23.7072L94.644 21.4106L92.3475 23.7072" stroke="white" stroke-width="0.529393" stroke-linecap="round"/>
<path d="M92.3475 8.04817L94.644 10.3447L96.9406 8.04817" stroke="white" stroke-width="0.529393" stroke-linecap="round"/>
<path d="M96.9406 27.9509L94.644 25.6543L92.3475 27.9509" stroke="white" stroke-width="0.529393" stroke-linecap="round"/>
<path d="M82.951 17.9993L105.91 17.9993" stroke="white" stroke-width="0.529393" stroke-linecap="round"/>
<path d="M82.951 17.9993L105.91 17.9993" stroke="white" stroke-width="0.529393" stroke-linecap="round"/>
<path d="M100.352 15.703L98.0559 17.9995L100.352 20.2961" stroke="white" stroke-width="0.529393" stroke-linecap="round"/>
<path d="M88.9372 20.2961L91.2338 17.9995L88.9372 15.703" stroke="white" stroke-width="0.529393" stroke-linecap="round"/>
<path d="M104.597 15.703L102.3 17.9995L104.597 20.2961" stroke="white" stroke-width="0.529393" stroke-linecap="round"/>
<path d="M84.6936 20.2961L86.9901 17.9995L84.6936 15.703" stroke="white" stroke-width="0.529393" stroke-linecap="round"/>
<path d="M86.3733 9.72998L102.608 25.9643" stroke="white" stroke-width="0.529393" stroke-linecap="round"/>
<path d="M86.3733 9.72998L102.608 25.9643" stroke="white" stroke-width="0.529393" stroke-linecap="round"/>
<path d="M100.304 20.4116H97.0558V23.6594" stroke="white" stroke-width="0.529393" stroke-linecap="round"/>
<path d="M88.9833 15.5874L92.2311 15.5874L92.2311 12.3396" stroke="white" stroke-width="0.529393" stroke-linecap="round"/>
<path d="M103.304 23.4124H100.056V26.6602" stroke="white" stroke-width="0.529393" stroke-linecap="round"/>
<path d="M85.9829 12.5864L89.2307 12.5864L89.2307 9.3386" stroke="white" stroke-width="0.529393" stroke-linecap="round"/>
<path d="M102.913 9.72998L86.6787 25.9643" stroke="white" stroke-width="0.529393" stroke-linecap="round"/>
<path d="M102.913 9.72998L86.6787 25.9643" stroke="white" stroke-width="0.529393" stroke-linecap="round"/>
<path d="M92.2319 23.6592L92.2319 20.4114L88.9841 20.4114" stroke="white" stroke-width="0.529393" stroke-linecap="round"/>
<path d="M97.0559 12.3396V15.5874H100.304" stroke="white" stroke-width="0.529393" stroke-linecap="round"/>
<path d="M89.2316 26.6599L89.2316 23.4121L85.9837 23.4121" stroke="white" stroke-width="0.529393" stroke-linecap="round"/>
<path d="M100.056 9.33884V12.5867H103.304" stroke="white" stroke-width="0.529393" stroke-linecap="round"/>
<path d="M132.905 29.6938L132.905 6.73508" stroke="white" stroke-width="0.529393" stroke-linecap="round"/>
<path d="M132.905 29.6938L132.905 6.73508" stroke="white" stroke-width="0.529393" stroke-linecap="round"/>
<path d="M130.609 12.2921L132.905 14.5886L135.202 12.2921" stroke="white" stroke-width="0.529393" stroke-linecap="round"/>
<path d="M135.202 23.7072L132.905 21.4106L130.609 23.7072" stroke="white" stroke-width="0.529393" stroke-linecap="round"/>
<path d="M130.609 8.04817L132.905 10.3447L135.202 8.04817" stroke="white" stroke-width="0.529393" stroke-linecap="round"/>
<path d="M135.202 27.9509L132.905 25.6543L130.609 27.9509" stroke="white" stroke-width="0.529393" stroke-linecap="round"/>
<path d="M121.212 17.9998L144.17 17.9998" stroke="white" stroke-width="0.529393" stroke-linecap="round"/>
<path d="M121.212 17.9998L144.17 17.9998" stroke="white" stroke-width="0.529393" stroke-linecap="round"/>
<path d="M138.614 15.7032L136.317 17.9998L138.614 20.2963" stroke="white" stroke-width="0.529393" stroke-linecap="round"/>
<path d="M127.198 20.2963L129.494 17.9998L127.198 15.7032" stroke="white" stroke-width="0.529393" stroke-linecap="round"/>
<path d="M142.857 15.7032L140.561 17.9998L142.857 20.2963" stroke="white" stroke-width="0.529393" stroke-linecap="round"/>
<path d="M122.954 20.2963L125.251 17.9998L122.954 15.7032" stroke="white" stroke-width="0.529393" stroke-linecap="round"/>
<path d="M124.637 9.73071L140.871 25.965" stroke="white" stroke-width="0.529393" stroke-linecap="round"/>
<path d="M124.637 9.73071L140.871 25.965" stroke="white" stroke-width="0.529393" stroke-linecap="round"/>
<path d="M138.566 20.4121H135.318V23.6599" stroke="white" stroke-width="0.529393" stroke-linecap="round"/>
<path d="M127.246 15.5876L130.493 15.5876L130.493 12.3398" stroke="white" stroke-width="0.529393" stroke-linecap="round"/>
<path d="M141.566 23.4126H138.318V26.6604" stroke="white" stroke-width="0.529393" stroke-linecap="round"/>
<path d="M124.245 12.5869L127.493 12.5869L127.493 9.33909" stroke="white" stroke-width="0.529393" stroke-linecap="round"/>
<path d="M141.176 9.73022L124.941 25.9645" stroke="white" stroke-width="0.529393" stroke-linecap="round"/>
<path d="M141.176 9.73022L124.941 25.9645" stroke="white" stroke-width="0.529393" stroke-linecap="round"/>
<path d="M130.494 23.6594L130.494 20.4116L127.246 20.4116" stroke="white" stroke-width="0.529393" stroke-linecap="round"/>
<path d="M135.318 12.3398V15.5876H138.566" stroke="white" stroke-width="0.529393" stroke-linecap="round"/>
<path d="M127.494 26.6602L127.494 23.4124L124.246 23.4124" stroke="white" stroke-width="0.529393" stroke-linecap="round"/>
<path d="M138.318 9.33909V12.5869H141.566" stroke="white" stroke-width="0.529393" stroke-linecap="round"/>
<path d="M171.167 29.6938L171.167 6.73508" stroke="white" stroke-width="0.529393" stroke-linecap="round"/>
<path d="M171.167 29.6938L171.167 6.73508" stroke="white" stroke-width="0.529393" stroke-linecap="round"/>
<path d="M168.871 12.2913L171.167 14.5879L173.464 12.2913" stroke="white" stroke-width="0.529393" stroke-linecap="round"/>
<path d="M173.464 23.7072L171.167 21.4106L168.871 23.7072" stroke="white" stroke-width="0.529393" stroke-linecap="round"/>
<path d="M168.871 8.04768L171.167 10.3442L173.464 8.04768" stroke="white" stroke-width="0.529393" stroke-linecap="round"/>
<path d="M173.464 27.9509L171.167 25.6543L168.871 27.9509" stroke="white" stroke-width="0.529393" stroke-linecap="round"/>
<path d="M159.473 17.9993L182.432 17.9993" stroke="white" stroke-width="0.529393" stroke-linecap="round"/>
<path d="M159.473 17.9993L182.432 17.9993" stroke="white" stroke-width="0.529393" stroke-linecap="round"/>
<path d="M176.874 15.703L174.577 17.9995L176.874 20.2961" stroke="white" stroke-width="0.529393" stroke-linecap="round"/>
<path d="M165.459 20.2961L167.755 17.9995L165.459 15.703" stroke="white" stroke-width="0.529393" stroke-linecap="round"/>
<path d="M181.118 15.703L178.822 17.9995L181.118 20.2961" stroke="white" stroke-width="0.529393" stroke-linecap="round"/>
<path d="M161.215 20.2961L163.511 17.9995L161.215 15.703" stroke="white" stroke-width="0.529393" stroke-linecap="round"/>
<path d="M162.897 9.73047L179.131 25.9648" stroke="white" stroke-width="0.529393" stroke-linecap="round"/>
<path d="M162.897 9.73047L179.131 25.9648" stroke="white" stroke-width="0.529393" stroke-linecap="round"/>
<path d="M176.827 20.4119H173.579V23.6597" stroke="white" stroke-width="0.529393" stroke-linecap="round"/>
<path d="M165.506 15.5874L168.754 15.5874L168.754 12.3396" stroke="white" stroke-width="0.529393" stroke-linecap="round"/>
<path d="M179.827 23.4124H176.579V26.6602" stroke="white" stroke-width="0.529393" stroke-linecap="round"/>
<path d="M162.506 12.5867L165.754 12.5867L165.754 9.33884" stroke="white" stroke-width="0.529393" stroke-linecap="round"/>
<path d="M179.436 9.72998L163.201 25.9643" stroke="white" stroke-width="0.529393" stroke-linecap="round"/>
<path d="M179.436 9.72998L163.201 25.9643" stroke="white" stroke-width="0.529393" stroke-linecap="round"/>
<path d="M168.755 23.6592L168.755 20.4114L165.507 20.4114" stroke="white" stroke-width="0.529393" stroke-linecap="round"/>
<path d="M173.579 12.3396V15.5874H176.827" stroke="white" stroke-width="0.529393" stroke-linecap="round"/>
<path d="M165.755 26.6599L165.755 23.4121L162.507 23.4121" stroke="white" stroke-width="0.529393" stroke-linecap="round"/>
<path d="M176.579 9.33884V12.5867H179.827" stroke="white" stroke-width="0.529393" stroke-linecap="round"/>
<path d="M209.427 29.6938L209.427 6.73508" stroke="white" stroke-width="0.529393" stroke-linecap="round"/>
<path d="M209.427 29.6938L209.427 6.73508" stroke="white" stroke-width="0.529393" stroke-linecap="round"/>
<path d="M207.13 12.2916L209.427 14.5881L211.723 12.2916" stroke="white" stroke-width="0.529393" stroke-linecap="round"/>
<path d="M211.723 23.7072L209.427 21.4106L207.13 23.7072" stroke="white" stroke-width="0.529393" stroke-linecap="round"/>
<path d="M207.13 8.04792L209.427 10.3445L211.723 8.04792" stroke="white" stroke-width="0.529393" stroke-linecap="round"/>
<path d="M211.723 27.9509L209.427 25.6543L207.13 27.9509" stroke="white" stroke-width="0.529393" stroke-linecap="round"/>
<path d="M197.733 17.9995L220.692 17.9995" stroke="white" stroke-width="0.529393" stroke-linecap="round"/>
<path d="M197.733 17.9995L220.692 17.9995" stroke="white" stroke-width="0.529393" stroke-linecap="round"/>
<path d="M215.134 15.703L212.838 17.9995L215.134 20.2961" stroke="white" stroke-width="0.529393" stroke-linecap="round"/>
<path d="M203.719 20.2961L206.016 17.9995L203.719 15.703" stroke="white" stroke-width="0.529393" stroke-linecap="round"/>
<path d="M219.379 15.703L217.082 17.9995L219.379 20.2961" stroke="white" stroke-width="0.529393" stroke-linecap="round"/>
<path d="M199.476 20.2961L201.772 17.9995L199.476 15.703" stroke="white" stroke-width="0.529393" stroke-linecap="round"/>
<path d="M201.157 9.73047L217.391 25.9648" stroke="white" stroke-width="0.529393" stroke-linecap="round"/>
<path d="M201.157 9.73047L217.391 25.9648" stroke="white" stroke-width="0.529393" stroke-linecap="round"/>
<path d="M215.087 20.4121H211.84V23.6599" stroke="white" stroke-width="0.529393" stroke-linecap="round"/>
<path d="M203.768 15.5876L207.016 15.5876L207.016 12.3398" stroke="white" stroke-width="0.529393" stroke-linecap="round"/>
<path d="M218.088 23.4128H214.84V26.6607" stroke="white" stroke-width="0.529393" stroke-linecap="round"/>
<path d="M200.767 12.5869L204.014 12.5869L204.014 9.33909" stroke="white" stroke-width="0.529393" stroke-linecap="round"/>
<path d="M217.696 9.73096L201.462 25.9653" stroke="white" stroke-width="0.529393" stroke-linecap="round"/>
<path d="M217.696 9.73096L201.462 25.9653" stroke="white" stroke-width="0.529393" stroke-linecap="round"/>
<path d="M207.015 23.6597L207.015 20.4119L203.768 20.4119" stroke="white" stroke-width="0.529393" stroke-linecap="round"/>
<path d="M211.839 12.3401V15.5879H215.087" stroke="white" stroke-width="0.529393" stroke-linecap="round"/>
<path d="M204.015 26.6604L204.015 23.4126L200.767 23.4126" stroke="white" stroke-width="0.529393" stroke-linecap="round"/>
<path d="M214.84 9.33933V12.5872H218.088" stroke="white" stroke-width="0.529393" stroke-linecap="round"/>
<path d="M247.686 29.6938L247.686 6.73508" stroke="white" stroke-width="0.529393" stroke-linecap="round"/>
<path d="M247.686 29.6938L247.686 6.73508" stroke="white" stroke-width="0.529393" stroke-linecap="round"/>
<path d="M245.39 12.2918L247.687 14.5884L249.983 12.2918" stroke="white" stroke-width="0.529393" stroke-linecap="round"/>
<path d="M249.983 23.7072L247.687 21.4106L245.39 23.7072" stroke="white" stroke-width="0.529393" stroke-linecap="round"/>
<path d="M245.39 8.04817L247.687 10.3447L249.983 8.04817" stroke="white" stroke-width="0.529393" stroke-linecap="round"/>
<path d="M249.983 27.9509L247.687 25.6543L245.39 27.9509" stroke="white" stroke-width="0.529393" stroke-linecap="round"/>
<path d="M235.994 17.9995L258.952 17.9995" stroke="white" stroke-width="0.529393" stroke-linecap="round"/>
<path d="M235.994 17.9995L258.952 17.9995" stroke="white" stroke-width="0.529393" stroke-linecap="round"/>
<path d="M253.395 15.703L251.099 17.9995L253.395 20.2961" stroke="white" stroke-width="0.529393" stroke-linecap="round"/>
<path d="M241.98 20.2961L244.276 17.9995L241.98 15.703" stroke="white" stroke-width="0.529393" stroke-linecap="round"/>
<path d="M257.64 15.703L255.343 17.9995L257.64 20.2961" stroke="white" stroke-width="0.529393" stroke-linecap="round"/>
<path d="M237.736 20.2961L240.033 17.9995L237.736 15.703" stroke="white" stroke-width="0.529393" stroke-linecap="round"/>
<path d="M239.418 9.73047L255.653 25.9648" stroke="white" stroke-width="0.529393" stroke-linecap="round"/>
<path d="M239.418 9.73047L255.653 25.9648" stroke="white" stroke-width="0.529393" stroke-linecap="round"/>
<path d="M253.348 20.4119H250.1V23.6597" stroke="white" stroke-width="0.529393" stroke-linecap="round"/>
<path d="M242.028 15.5874L245.276 15.5874L245.276 12.3396" stroke="white" stroke-width="0.529393" stroke-linecap="round"/>
<path d="M256.348 23.4126H253.101V26.6604" stroke="white" stroke-width="0.529393" stroke-linecap="round"/>
<path d="M239.027 12.5867L242.275 12.5867L242.275 9.33884" stroke="white" stroke-width="0.529393" stroke-linecap="round"/>
<path d="M255.957 9.72998L239.723 25.9643" stroke="white" stroke-width="0.529393" stroke-linecap="round"/>
<path d="M255.957 9.72998L239.723 25.9643" stroke="white" stroke-width="0.529393" stroke-linecap="round"/>
<path d="M245.275 23.6592L245.275 20.4114L242.027 20.4114" stroke="white" stroke-width="0.529393" stroke-linecap="round"/>
<path d="M250.099 12.3396V15.5874H253.347" stroke="white" stroke-width="0.529393" stroke-linecap="round"/>
<path d="M242.275 26.6602L242.275 23.4124L239.027 23.4124" stroke="white" stroke-width="0.529393" stroke-linecap="round"/>
<path d="M253.099 9.33884V12.5867H256.347" stroke="white" stroke-width="0.529393" stroke-linecap="round"/>
<path d="M18.1244 152.032L18.1244 129.073" stroke="white" stroke-width="0.529393" stroke-linecap="round"/>
<path d="M18.1244 152.032L18.1244 129.073" stroke="white" stroke-width="0.529393" stroke-linecap="round"/>
<path d="M15.8272 134.63L18.1238 136.927L20.4203 134.63" stroke="white" stroke-width="0.529393" stroke-linecap="round"/>
<path d="M20.4203 146.046L18.1238 143.749L15.8272 146.046" stroke="white" stroke-width="0.529393" stroke-linecap="round"/>
<path d="M15.8272 130.387L18.1238 132.683L20.4203 130.387" stroke="white" stroke-width="0.529393" stroke-linecap="round"/>
<path d="M20.4203 150.289L18.1238 147.993L15.8272 150.289" stroke="white" stroke-width="0.529393" stroke-linecap="round"/>
<path d="M6.42969 140.338L29.3885 140.338" stroke="white" stroke-width="0.529393" stroke-linecap="round"/>
<path d="M6.42969 140.338L29.3885 140.338" stroke="white" stroke-width="0.529393" stroke-linecap="round"/>
<path d="M23.8318 138.041L21.5353 140.338L23.8318 142.634" stroke="white" stroke-width="0.529393" stroke-linecap="round"/>
<path d="M12.4158 142.634L14.7124 140.338L12.4158 138.041" stroke="white" stroke-width="0.529393" stroke-linecap="round"/>
<path d="M28.0755 138.041L25.7789 140.338L28.0755 142.634" stroke="white" stroke-width="0.529393" stroke-linecap="round"/>
<path d="M8.17219 142.634L10.4688 140.338L8.17219 138.041" stroke="white" stroke-width="0.529393" stroke-linecap="round"/>
<path d="M9.85559 132.069L26.0899 148.303" stroke="white" stroke-width="0.529393" stroke-linecap="round"/>
<path d="M9.85559 132.069L26.0899 148.303" stroke="white" stroke-width="0.529393" stroke-linecap="round"/>
<path d="M23.7846 142.75H20.5367V145.998" stroke="white" stroke-width="0.529393" stroke-linecap="round"/>
<path d="M12.4642 137.926L15.712 137.926L15.712 134.678" stroke="white" stroke-width="0.529393" stroke-linecap="round"/>
<path d="M26.7849 145.751H23.5371V148.999" stroke="white" stroke-width="0.529393" stroke-linecap="round"/>
<path d="M9.46384 134.926L12.7117 134.926L12.7117 131.678" stroke="white" stroke-width="0.529393" stroke-linecap="round"/>
<path d="M26.3937 132.068L10.1594 148.303" stroke="white" stroke-width="0.529393" stroke-linecap="round"/>
<path d="M26.3937 132.068L10.1594 148.303" stroke="white" stroke-width="0.529393" stroke-linecap="round"/>
<path d="M15.7122 145.998L15.7122 142.75L12.4643 142.75" stroke="white" stroke-width="0.529393" stroke-linecap="round"/>
<path d="M20.5361 134.678V137.926H23.784" stroke="white" stroke-width="0.529393" stroke-linecap="round"/>
<path d="M12.7118 148.998L12.7118 145.75L9.46397 145.75" stroke="white" stroke-width="0.529393" stroke-linecap="round"/>
<path d="M23.5365 131.677V134.925H26.7843" stroke="white" stroke-width="0.529393" stroke-linecap="round"/>
<path d="M56.3853 152.032L56.3853 129.073" stroke="white" stroke-width="0.529393" stroke-linecap="round"/>
<path d="M56.3853 152.032L56.3853 129.073" stroke="white" stroke-width="0.529393" stroke-linecap="round"/>
<path d="M54.0889 134.63L56.3855 136.926L58.6821 134.63" stroke="white" stroke-width="0.529393" stroke-linecap="round"/>
<path d="M58.6821 146.045L56.3855 143.749L54.0889 146.045" stroke="white" stroke-width="0.529393" stroke-linecap="round"/>
<path d="M54.0889 130.387L56.3855 132.683L58.6821 130.387" stroke="white" stroke-width="0.529393" stroke-linecap="round"/>
<path d="M58.6821 150.289L56.3855 147.992L54.0889 150.289" stroke="white" stroke-width="0.529393" stroke-linecap="round"/>
<path d="M44.6903 140.337L67.6491 140.337" stroke="white" stroke-width="0.529393" stroke-linecap="round"/>
<path d="M44.6903 140.337L67.6491 140.337" stroke="white" stroke-width="0.529393" stroke-linecap="round"/>
<path d="M62.0918 138.041L59.7953 140.337L62.0918 142.634" stroke="white" stroke-width="0.529393" stroke-linecap="round"/>
<path d="M50.6766 142.634L52.9731 140.337L50.6766 138.041" stroke="white" stroke-width="0.529393" stroke-linecap="round"/>
<path d="M66.3362 138.041L64.0397 140.337L66.3362 142.634" stroke="white" stroke-width="0.529393" stroke-linecap="round"/>
<path d="M46.4329 142.634L48.7295 140.337L46.4329 138.041" stroke="white" stroke-width="0.529393" stroke-linecap="round"/>
<path d="M48.1151 132.069L64.3494 148.303" stroke="white" stroke-width="0.529393" stroke-linecap="round"/>
<path d="M48.1151 132.069L64.3494 148.303" stroke="white" stroke-width="0.529393" stroke-linecap="round"/>
<path d="M62.0446 142.75H58.7968V145.998" stroke="white" stroke-width="0.529393" stroke-linecap="round"/>
<path d="M50.7242 137.926L53.972 137.926L53.972 134.678" stroke="white" stroke-width="0.529393" stroke-linecap="round"/>
<path d="M65.0449 145.751H61.7971V148.999" stroke="white" stroke-width="0.529393" stroke-linecap="round"/>
<path d="M47.7239 134.925L50.9717 134.925L50.9717 131.677" stroke="white" stroke-width="0.529393" stroke-linecap="round"/>
<path d="M64.6537 132.069L48.4194 148.303" stroke="white" stroke-width="0.529393" stroke-linecap="round"/>
<path d="M64.6537 132.069L48.4194 148.303" stroke="white" stroke-width="0.529393" stroke-linecap="round"/>
<path d="M53.9728 145.998L53.9728 142.75L50.725 142.75" stroke="white" stroke-width="0.529393" stroke-linecap="round"/>
<path d="M58.7968 134.678V137.926H62.0446" stroke="white" stroke-width="0.529393" stroke-linecap="round"/>
<path d="M50.9724 148.998L50.9724 145.75L47.7246 145.75" stroke="white" stroke-width="0.529393" stroke-linecap="round"/>
<path d="M61.7971 131.677V134.925H65.0449" stroke="white" stroke-width="0.529393" stroke-linecap="round"/>
<path d="M94.6439 152.032L94.6439 129.073" stroke="white" stroke-width="0.529393" stroke-linecap="round"/>
<path d="M94.6439 152.032L94.6439 129.073" stroke="white" stroke-width="0.529393" stroke-linecap="round"/>
<path d="M92.3475 134.63L94.644 136.926L96.9406 134.63" stroke="white" stroke-width="0.529393" stroke-linecap="round"/>
<path d="M96.9406 146.045L94.644 143.749L92.3475 146.045" stroke="white" stroke-width="0.529393" stroke-linecap="round"/>
<path d="M92.3475 130.386L94.644 132.683L96.9406 130.386" stroke="white" stroke-width="0.529393" stroke-linecap="round"/>
<path d="M96.9406 150.289L94.644 147.992L92.3475 150.289" stroke="white" stroke-width="0.529393" stroke-linecap="round"/>
<path d="M82.951 140.337L105.91 140.337" stroke="white" stroke-width="0.529393" stroke-linecap="round"/>
<path d="M82.951 140.337L105.91 140.337" stroke="white" stroke-width="0.529393" stroke-linecap="round"/>
<path d="M100.352 138.041L98.0559 140.337L100.352 142.634" stroke="white" stroke-width="0.529393" stroke-linecap="round"/>
<path d="M88.9372 142.634L91.2338 140.337L88.9372 138.041" stroke="white" stroke-width="0.529393" stroke-linecap="round"/>
<path d="M104.597 138.041L102.3 140.337L104.597 142.634" stroke="white" stroke-width="0.529393" stroke-linecap="round"/>
<path d="M84.6936 142.634L86.9901 140.337L84.6936 138.041" stroke="white" stroke-width="0.529393" stroke-linecap="round"/>
<path d="M86.3734 132.068L102.608 148.302" stroke="white" stroke-width="0.529393" stroke-linecap="round"/>
<path d="M86.3734 132.068L102.608 148.302" stroke="white" stroke-width="0.529393" stroke-linecap="round"/>
<path d="M100.304 142.75H97.0559V145.997" stroke="white" stroke-width="0.529393" stroke-linecap="round"/>
<path d="M88.9834 137.925L92.2312 137.925L92.2312 134.677" stroke="white" stroke-width="0.529393" stroke-linecap="round"/>
<path d="M103.304 145.75H100.056V148.998" stroke="white" stroke-width="0.529393" stroke-linecap="round"/>
<path d="M85.983 134.924L89.2308 134.924L89.2308 131.676" stroke="white" stroke-width="0.529393" stroke-linecap="round"/>
<path d="M102.913 132.069L86.6787 148.303" stroke="white" stroke-width="0.529393" stroke-linecap="round"/>
<path d="M102.913 132.069L86.6787 148.303" stroke="white" stroke-width="0.529393" stroke-linecap="round"/>
<path d="M92.2319 145.998L92.2319 142.75L88.9841 142.75" stroke="white" stroke-width="0.529393" stroke-linecap="round"/>
<path d="M97.0559 134.678V137.926H100.304" stroke="white" stroke-width="0.529393" stroke-linecap="round"/>
<path d="M89.2316 148.998L89.2316 145.75L85.9837 145.75" stroke="white" stroke-width="0.529393" stroke-linecap="round"/>
<path d="M100.056 131.677V134.925H103.304" stroke="white" stroke-width="0.529393" stroke-linecap="round"/>
<path d="M132.905 152.032L132.905 129.073" stroke="white" stroke-width="0.529393" stroke-linecap="round"/>
<path d="M132.905 152.032L132.905 129.073" stroke="white" stroke-width="0.529393" stroke-linecap="round"/>
<path d="M130.609 134.63L132.905 136.926L135.202 134.63" stroke="white" stroke-width="0.529393" stroke-linecap="round"/>
<path d="M135.202 146.045L132.905 143.749L130.609 146.045" stroke="white" stroke-width="0.529393" stroke-linecap="round"/>
<path d="M130.609 130.387L132.905 132.683L135.202 130.387" stroke="white" stroke-width="0.529393" stroke-linecap="round"/>
<path d="M135.202 150.289L132.905 147.992L130.609 150.289" stroke="white" stroke-width="0.529393" stroke-linecap="round"/>
<path d="M121.212 140.338L144.171 140.338" stroke="white" stroke-width="0.529393" stroke-linecap="round"/>
<path d="M121.212 140.338L144.171 140.338" stroke="white" stroke-width="0.529393" stroke-linecap="round"/>
<path d="M138.614 138.041L136.317 140.338L138.614 142.634" stroke="white" stroke-width="0.529393" stroke-linecap="round"/>
<path d="M127.198 142.634L129.495 140.338L127.198 138.041" stroke="white" stroke-width="0.529393" stroke-linecap="round"/>
<path d="M142.858 138.041L140.561 140.338L142.858 142.634" stroke="white" stroke-width="0.529393" stroke-linecap="round"/>
<path d="M122.954 142.634L125.251 140.338L122.954 138.041" stroke="white" stroke-width="0.529393" stroke-linecap="round"/>
<path d="M124.637 132.068L140.872 148.302" stroke="white" stroke-width="0.529393" stroke-linecap="round"/>
<path d="M124.637 132.068L140.872 148.302" stroke="white" stroke-width="0.529393" stroke-linecap="round"/>
<path d="M138.566 142.75H135.318V145.997" stroke="white" stroke-width="0.529393" stroke-linecap="round"/>
<path d="M127.246 137.925L130.494 137.925L130.494 134.677" stroke="white" stroke-width="0.529393" stroke-linecap="round"/>
<path d="M141.566 145.75H138.319V148.998" stroke="white" stroke-width="0.529393" stroke-linecap="round"/>
<path d="M124.245 134.924L127.493 134.924L127.493 131.676" stroke="white" stroke-width="0.529393" stroke-linecap="round"/>
<path d="M141.176 132.068L124.941 148.302" stroke="white" stroke-width="0.529393" stroke-linecap="round"/>
<path d="M141.176 132.068L124.941 148.302" stroke="white" stroke-width="0.529393" stroke-linecap="round"/>
<path d="M130.494 145.998L130.494 142.75L127.246 142.75" stroke="white" stroke-width="0.529393" stroke-linecap="round"/>
<path d="M135.318 134.678V137.926H138.566" stroke="white" stroke-width="0.529393" stroke-linecap="round"/>
<path d="M127.494 148.998L127.494 145.75L124.246 145.75" stroke="white" stroke-width="0.529393" stroke-linecap="round"/>
<path d="M138.319 131.677V134.925H141.566" stroke="white" stroke-width="0.529393" stroke-linecap="round"/>
<path d="M171.167 152.032L171.167 129.073" stroke="white" stroke-width="0.529393" stroke-linecap="round"/>
<path d="M171.167 152.032L171.167 129.073" stroke="white" stroke-width="0.529393" stroke-linecap="round"/>
<path d="M168.871 134.63L171.167 136.926L173.464 134.63" stroke="white" stroke-width="0.529393" stroke-linecap="round"/>
<path d="M173.464 146.045L171.167 143.749L168.871 146.045" stroke="white" stroke-width="0.529393" stroke-linecap="round"/>
<path d="M168.871 130.387L171.167 132.683L173.464 130.387" stroke="white" stroke-width="0.529393" stroke-linecap="round"/>
<path d="M173.464 150.289L171.167 147.992L168.871 150.289" stroke="white" stroke-width="0.529393" stroke-linecap="round"/>
<path d="M159.473 140.337L182.432 140.337" stroke="white" stroke-width="0.529393" stroke-linecap="round"/>
<path d="M159.473 140.337L182.432 140.337" stroke="white" stroke-width="0.529393" stroke-linecap="round"/>
<path d="M176.874 138.041L174.577 140.337L176.874 142.634" stroke="white" stroke-width="0.529393" stroke-linecap="round"/>
<path d="M165.459 142.634L167.755 140.337L165.459 138.041" stroke="white" stroke-width="0.529393" stroke-linecap="round"/>
<path d="M181.118 138.041L178.822 140.337L181.118 142.634" stroke="white" stroke-width="0.529393" stroke-linecap="round"/>
<path d="M161.215 142.634L163.511 140.337L161.215 138.041" stroke="white" stroke-width="0.529393" stroke-linecap="round"/>
<path d="M162.897 132.069L179.131 148.303" stroke="white" stroke-width="0.529393" stroke-linecap="round"/>
<path d="M162.897 132.069L179.131 148.303" stroke="white" stroke-width="0.529393" stroke-linecap="round"/>
<path d="M176.827 142.75H173.579V145.998" stroke="white" stroke-width="0.529393" stroke-linecap="round"/>
<path d="M165.506 137.926L168.754 137.926L168.754 134.678" stroke="white" stroke-width="0.529393" stroke-linecap="round"/>
<path d="M179.827 145.75H176.579V148.998" stroke="white" stroke-width="0.529393" stroke-linecap="round"/>
<path d="M162.506 134.925L165.754 134.925L165.754 131.677" stroke="white" stroke-width="0.529393" stroke-linecap="round"/>
<path d="M179.436 132.069L163.201 148.303" stroke="white" stroke-width="0.529393" stroke-linecap="round"/>
<path d="M179.436 132.069L163.201 148.303" stroke="white" stroke-width="0.529393" stroke-linecap="round"/>
<path d="M168.755 145.998L168.755 142.75L165.507 142.75" stroke="white" stroke-width="0.529393" stroke-linecap="round"/>
<path d="M173.579 134.678V137.926H176.827" stroke="white" stroke-width="0.529393" stroke-linecap="round"/>
<path d="M165.755 148.998L165.755 145.75L162.507 145.75" stroke="white" stroke-width="0.529393" stroke-linecap="round"/>
<path d="M176.579 131.677V134.925H179.827" stroke="white" stroke-width="0.529393" stroke-linecap="round"/>
<path d="M209.427 152.032L209.427 129.073" stroke="white" stroke-width="0.529393" stroke-linecap="round"/>
<path d="M209.427 152.032L209.427 129.073" stroke="white" stroke-width="0.529393" stroke-linecap="round"/>
<path d="M207.13 134.63L209.427 136.927L211.723 134.63" stroke="white" stroke-width="0.529393" stroke-linecap="round"/>
<path d="M211.723 146.046L209.427 143.749L207.13 146.046" stroke="white" stroke-width="0.529393" stroke-linecap="round"/>
<path d="M207.13 130.387L209.427 132.683L211.723 130.387" stroke="white" stroke-width="0.529393" stroke-linecap="round"/>
<path d="M211.723 150.289L209.427 147.993L207.13 150.289" stroke="white" stroke-width="0.529393" stroke-linecap="round"/>
<path d="M197.733 140.338L220.692 140.338" stroke="white" stroke-width="0.529393" stroke-linecap="round"/>
<path d="M197.733 140.338L220.692 140.338" stroke="white" stroke-width="0.529393" stroke-linecap="round"/>
<path d="M215.134 138.041L212.838 140.337L215.134 142.634" stroke="white" stroke-width="0.529393" stroke-linecap="round"/>
<path d="M203.719 142.634L206.016 140.337L203.719 138.041" stroke="white" stroke-width="0.529393" stroke-linecap="round"/>
<path d="M219.379 138.041L217.082 140.337L219.379 142.634" stroke="white" stroke-width="0.529393" stroke-linecap="round"/>
<path d="M199.476 142.634L201.772 140.337L199.476 138.041" stroke="white" stroke-width="0.529393" stroke-linecap="round"/>
<path d="M201.157 132.068L217.391 148.302" stroke="white" stroke-width="0.529393" stroke-linecap="round"/>
<path d="M201.157 132.068L217.391 148.302" stroke="white" stroke-width="0.529393" stroke-linecap="round"/>
<path d="M215.087 142.75H211.839V145.998" stroke="white" stroke-width="0.529393" stroke-linecap="round"/>
<path d="M203.768 137.925L207.015 137.925L207.015 134.677" stroke="white" stroke-width="0.529393" stroke-linecap="round"/>
<path d="M218.088 145.75H214.84V148.998" stroke="white" stroke-width="0.529393" stroke-linecap="round"/>
<path d="M200.766 134.925L204.014 134.925L204.014 131.677" stroke="white" stroke-width="0.529393" stroke-linecap="round"/>
<path d="M217.696 132.069L201.462 148.303" stroke="white" stroke-width="0.529393" stroke-linecap="round"/>
<path d="M217.696 132.069L201.462 148.303" stroke="white" stroke-width="0.529393" stroke-linecap="round"/>
<path d="M207.015 145.998L207.015 142.75L203.768 142.75" stroke="white" stroke-width="0.529393" stroke-linecap="round"/>
<path d="M211.839 134.678V137.926H215.087" stroke="white" stroke-width="0.529393" stroke-linecap="round"/>
<path d="M204.015 148.999L204.015 145.751L200.767 145.751" stroke="white" stroke-width="0.529393" stroke-linecap="round"/>
<path d="M214.84 131.677V134.925H218.088" stroke="white" stroke-width="0.529393" stroke-linecap="round"/>
<path d="M247.686 152.032L247.686 129.073" stroke="white" stroke-width="0.529393" stroke-linecap="round"/>
<path d="M247.686 152.032L247.686 129.073" stroke="white" stroke-width="0.529393" stroke-linecap="round"/>
<path d="M245.39 134.63L247.687 136.926L249.983 134.63" stroke="white" stroke-width="0.529393" stroke-linecap="round"/>
<path d="M249.983 146.045L247.687 143.749L245.39 146.045" stroke="white" stroke-width="0.529393" stroke-linecap="round"/>
<path d="M245.39 130.386L247.687 132.683L249.983 130.386" stroke="white" stroke-width="0.529393" stroke-linecap="round"/>
<path d="M249.983 150.289L247.687 147.992L245.39 150.289" stroke="white" stroke-width="0.529393" stroke-linecap="round"/>
<path d="M235.994 140.338L258.952 140.338" stroke="white" stroke-width="0.529393" stroke-linecap="round"/>
<path d="M235.994 140.338L258.952 140.338" stroke="white" stroke-width="0.529393" stroke-linecap="round"/>
<path d="M253.395 138.041L251.099 140.338L253.395 142.634" stroke="white" stroke-width="0.529393" stroke-linecap="round"/>
<path d="M241.98 142.634L244.276 140.338L241.98 138.041" stroke="white" stroke-width="0.529393" stroke-linecap="round"/>
<path d="M257.64 138.041L255.343 140.338L257.64 142.634" stroke="white" stroke-width="0.529393" stroke-linecap="round"/>
<path d="M237.736 142.634L240.033 140.338L237.736 138.041" stroke="white" stroke-width="0.529393" stroke-linecap="round"/>
<path d="M239.418 132.068L255.653 148.302" stroke="white" stroke-width="0.529393" stroke-linecap="round"/>
<path d="M239.418 132.068L255.653 148.302" stroke="white" stroke-width="0.529393" stroke-linecap="round"/>
<path d="M253.348 142.75H250.1V145.997" stroke="white" stroke-width="0.529393" stroke-linecap="round"/>
<path d="M242.028 137.925L245.276 137.925L245.276 134.677" stroke="white" stroke-width="0.529393" stroke-linecap="round"/>
<path d="M256.348 145.75H253.101V148.998" stroke="white" stroke-width="0.529393" stroke-linecap="round"/>
<path d="M239.027 134.924L242.275 134.924L242.275 131.676" stroke="white" stroke-width="0.529393" stroke-linecap="round"/>
<path d="M255.957 132.068L239.723 148.302" stroke="white" stroke-width="0.529393" stroke-linecap="round"/>
<path d="M255.957 132.068L239.723 148.302" stroke="white" stroke-width="0.529393" stroke-linecap="round"/>
<path d="M245.275 145.998L245.275 142.75L242.027 142.75" stroke="white" stroke-width="0.529393" stroke-linecap="round"/>
<path d="M250.099 134.678V137.926H253.347" stroke="white" stroke-width="0.529393" stroke-linecap="round"/>
<path d="M242.275 148.998L242.275 145.75L239.027 145.75" stroke="white" stroke-width="0.529393" stroke-linecap="round"/>
<path d="M253.099 131.677V134.925H256.347" stroke="white" stroke-width="0.529393" stroke-linecap="round"/>
<path d="M131.473 243.089L131.473 -79.8037M99.1741 -1.65535L131.473 30.6436L163.772 -1.65535M163.772 158.895L131.473 126.596L99.1741 158.895M99.1741 -61.3376L131.473 -29.0387L163.772 -61.3376M163.772 218.577L131.473 186.278L99.1741 218.577M-32.9911 78.6201H289.902M211.749 46.3217L179.45 78.6206L211.749 110.919M51.1971 110.919L83.496 78.6206L51.1971 46.3217M271.432 46.3217L239.133 78.6206L271.432 110.919M-8.48248 110.919L23.8164 78.6206L-8.48247 46.3217M15.1713 -37.6775L243.491 190.642M211.076 112.545H165.399V158.222M51.8693 44.6959L97.5469 44.6959V-0.981659M253.277 154.746H207.599V200.424M9.66539 2.49421L55.3429 2.49422L55.3429 -43.1833M247.775 -37.678L19.455 190.642M97.5543 158.221V112.543H51.8768M165.399 -0.982079V44.6955H211.077M55.3504 200.423L55.3503 154.746H9.67281M207.599 -43.1838V2.49378H253.277" stroke="#E24C5E" stroke-opacity="0.3" stroke-width="5.29393" stroke-linecap="round"/>
</g>
<defs>
<clipPath id="clip0_636_26026">
<rect width="264.696" height="158.818" rx="24" fill="white"/>
</clipPath>
</defs>
</svg>
