<svg width="243" height="162" viewBox="0 0 243 162" fill="none" xmlns="http://www.w3.org/2000/svg">
<g clip-path="url(#clip0_407_36378)">
<rect width="242.99" height="161.993" rx="24" fill="#E24C5E"/>
<path d="M128.266 72.4175V120.368H119.583V85.1178H110.447V79.8692L111.937 79.4156C114.486 78.6812 116.56 77.8389 118.158 76.8885C119.756 75.9382 121.268 74.6422 122.694 73.0007L123.277 72.4175H128.266Z" fill="white"/>
<path fill-rule="evenodd" clip-rule="evenodd" d="M57.501 81.2836C56.7262 79.8904 55.1161 77.9727 53.1093 76.9117C51.4015 76.0087 49.2856 75.6095 46.3616 77.1588C43.4086 78.7236 42.367 80.8409 42.0396 82.9956C41.6679 85.4417 42.2581 88.0053 42.8948 89.4682C44.1698 92.3979 42.8285 95.8066 39.8988 97.0816C36.9691 98.3567 33.5604 97.0154 32.2853 94.0857C30.9748 91.0745 29.8346 86.2963 30.6002 81.2574C31.4101 75.9271 34.3736 70.4164 40.9441 66.9348C47.5436 63.4378 53.724 64.1483 58.5175 66.6827C62.9959 69.0504 66.0825 72.8751 67.6591 75.743L67.6805 75.782L95.6668 128.598C97.1628 131.421 96.0868 134.922 93.2635 136.418C90.4402 137.915 86.9387 136.839 85.4427 134.015L57.501 81.2836Z" stroke="white" stroke-width="2.4299" stroke-linecap="round"/>
<path d="M87.1971 113.031L91.487 121.527L84.0348 130.916L79.9104 122.877L87.1971 113.031Z" fill="white"/>
<path d="M79.0097 97.5776L83.2996 106.073L75.8473 115.462L71.7229 107.424L79.0097 97.5776Z" fill="white"/>
<path d="M70.8259 82.4391L75.1158 90.9348L67.6636 100.323L63.5391 92.285L70.8259 82.4391Z" fill="white"/>
<path d="M60.7012 67.6603L66.5276 75.3231L59.0754 84.7117L54.7088 77.3584L60.7012 67.6603Z" fill="white"/>
<path d="M36.1883 69.9178L47.2515 64.5091L51.9737 75.3961L43.7552 78.4132L36.1883 69.9178Z" fill="white"/>
<path d="M30.3392 90.1263L30.5879 81.4217L42.2809 81.131L42.4821 89.3128L30.3392 90.1263Z" fill="white"/>
<path fill-rule="evenodd" clip-rule="evenodd" d="M185.489 81.2837C186.264 79.8905 187.874 77.9728 189.881 76.9118C191.589 76.0088 193.704 75.6096 196.628 77.159C199.581 78.7237 200.623 80.841 200.95 82.9957C201.322 85.4418 200.732 88.0055 200.095 89.4683C198.82 92.398 200.161 95.8067 203.091 97.0818C206.021 98.3569 209.43 97.0155 210.705 94.0858C212.015 91.0746 213.155 86.2964 212.39 81.2575C211.58 75.9273 208.616 70.4165 202.046 66.9349C195.446 63.4379 189.266 64.1484 184.472 66.6828C179.994 69.0505 176.908 72.8753 175.331 75.7432L175.309 75.7822L147.323 128.598C145.827 131.421 146.903 134.923 149.726 136.419C152.55 137.915 156.051 136.839 157.547 134.015L185.489 81.2837Z" stroke="white" stroke-width="2.4299" stroke-linecap="round"/>
<path d="M155.796 113.032L151.506 121.528L158.958 130.916L163.083 122.878L155.796 113.032Z" fill="white"/>
<path d="M163.98 97.5778L159.69 106.073L167.143 115.462L171.267 107.424L163.98 97.5778Z" fill="white"/>
<path d="M172.164 82.4392L167.874 90.9349L175.326 100.323L179.451 92.2852L172.164 82.4392Z" fill="white"/>
<path d="M182.289 67.6604L176.462 75.3232L183.915 84.7118L188.281 77.3585L182.289 67.6604Z" fill="white"/>
<path d="M206.802 69.9179L195.739 64.5092L191.016 75.3963L199.235 78.4133L206.802 69.9179Z" fill="white"/>
<path d="M212.651 90.1264L212.402 81.4218L200.709 81.1311L200.508 89.3129L212.651 90.1264Z" fill="white"/>
<rect x="6.46771" y="6.22168" width="228.617" height="148.143" rx="19.4392" stroke="white" stroke-width="0.809967"/>
<g filter="url(#filter0_d_407_36378)">
<path d="M117.865 15.5226C120.584 16.4034 122.658 19.2206 122.657 22.007C122.657 24.7935 120.581 27.5362 117.964 28.3713C115.36 29.2043 112.199 28.119 110.514 25.8642C108.821 23.6041 108.604 20.1745 110.183 17.9345C111.766 15.687 115.139 14.6366 117.865 15.5226Z" fill="white"/>
<path d="M120.387 23.0126C120.16 22.705 119.714 22.5617 119.361 22.6802C119.007 22.7986 118.748 23.1786 118.753 23.5461C118.758 23.912 119.03 24.2669 119.388 24.3848C119.746 24.5035 120.191 24.3853 120.408 24.0898C120.626 23.7934 120.616 23.3209 120.387 23.0126Z" fill="#E24C5E"/>
<path d="M132.275 15.6742C134.857 16.4786 136.812 19.3809 136.804 22.2411C136.802 25.0938 134.838 27.917 132.288 28.7214C129.74 29.5386 126.611 28.3625 125.024 26.1444C123.432 23.9338 123.377 20.6887 124.951 18.423C126.512 16.1594 129.707 14.8678 132.275 15.6742Z" fill="white"/>
<path d="M126.689 21.4658C126.427 21.1119 125.914 20.947 125.508 21.0833C125.101 21.2196 124.802 21.6567 124.808 22.0797C124.814 22.5006 125.127 22.909 125.538 23.0447C125.951 23.1813 126.462 23.0452 126.712 22.7053C126.963 22.3642 126.951 21.8205 126.689 21.4658Z" fill="#E24C5E"/>
<path d="M124.908 28.4681C127.493 29.2522 129.598 31.8996 129.602 34.5075C129.598 37.1101 127.475 39.6827 124.857 40.5179C122.247 41.3583 119.138 40.4688 117.607 38.393C116.084 36.3227 116.147 33.0716 117.705 30.9073C119.262 28.7431 122.316 27.6787 124.908 28.4681Z" fill="white"/>
<path d="M123.689 29.8906C123.442 29.5562 122.958 29.4005 122.573 29.5292C122.189 29.658 121.907 30.071 121.912 30.4705C121.918 30.8682 122.213 31.254 122.602 31.3822C122.992 31.5112 123.475 31.3827 123.711 31.0615C123.948 30.7393 123.937 30.2257 123.689 29.8906Z" fill="#E24C5E"/>
<path d="M132.209 31.4489C136.793 35.114 139.351 40.7998 139.063 46.654C142.28 46.0574 145.697 46.3145 148.974 47.5772C153.69 49.3945 157.224 52.9504 159.127 57.2306C164.196 51.443 172.064 48.6382 179.788 50.1195C173.17 45.6943 169.483 37.9948 170.105 30.1271C170.005 30.0726 169.905 30.0179 169.804 29.9639C165.475 31.9464 160.384 32.2531 155.59 30.4061C152.355 29.1597 149.677 27.0948 147.7 24.5401C147.694 24.5399 147.688 24.5401 147.683 24.5399C143.975 29.2223 138.167 31.813 132.209 31.4489Z" fill="white"/>
<path d="M132.209 31.4489C136.793 35.114 139.351 40.7998 139.063 46.654C142.28 46.0574 145.697 46.3145 148.974 47.5772C153.69 49.3945 157.224 52.9504 159.127 57.2306C164.196 51.443 172.064 48.6382 179.788 50.1195C173.17 45.6943 169.483 37.9948 170.105 30.1271C170.005 30.0726 169.905 30.0179 169.804 29.9639C165.475 31.9464 160.384 32.2531 155.59 30.4061C152.355 29.1597 149.677 27.0948 147.7 24.5401C147.694 24.5399 147.688 24.5401 147.683 24.5399C143.975 29.2223 138.167 31.813 132.209 31.4489Z" fill="white"/>
<path d="M132.209 31.4489C136.793 35.114 139.351 40.7998 139.063 46.654C142.28 46.0574 145.697 46.3145 148.974 47.5772C153.69 49.3945 157.224 52.9504 159.127 57.2306C164.196 51.443 172.064 48.6382 179.788 50.1195C173.17 45.6943 169.483 37.9948 170.105 30.1271C170.005 30.0726 169.905 30.0179 169.804 29.9639C165.475 31.9464 160.384 32.2531 155.59 30.4061C152.355 29.1597 149.677 27.0948 147.7 24.5401C147.694 24.5399 147.688 24.5401 147.683 24.5399C143.975 29.2223 138.167 31.813 132.209 31.4489Z" fill="white"/>
<path d="M139.578 33.4683C139.578 33.4683 149.01 36.4354 156.977 40.1285C164.943 43.8216 171.672 47.497 171.672 47.497" stroke="#E24C5E" stroke-width="0.809967" stroke-linecap="round"/>
<path d="M143.365 43.9794C143.365 43.9794 148.219 40.3391 149.855 37.0681C151.49 33.7971 149.855 29.1016 149.855 29.1016" stroke="#E24C5E" stroke-width="0.809967" stroke-linecap="round"/>
<path d="M160.05 50.5654C160.05 50.5654 157.843 44.7101 159.139 41.2903C160.435 37.8704 167.754 36.6814 167.754 36.6814" stroke="#E24C5E" stroke-width="0.809967" stroke-linecap="round"/>
<path d="M112.81 31.6421C108.347 35.4536 105.975 41.219 106.452 47.0602C103.218 46.5685 99.8115 46.9376 96.5779 48.3055C91.9233 50.2747 88.5064 53.9426 86.7434 58.282C81.4898 52.6631 73.5374 50.114 65.8669 51.8425C72.3361 47.2046 75.7688 39.3908 74.8921 31.5487C74.9901 31.4909 75.0886 31.4331 75.1879 31.3758C79.5788 33.217 84.6783 33.3583 89.4098 31.3566C92.6019 30.0061 95.2116 27.8564 97.1051 25.2392C97.11 25.2389 97.1148 25.2387 97.1196 25.2384C100.978 29.7981 106.866 32.1994 112.81 31.6421Z" fill="white"/>
<path d="M112.81 31.6421C108.347 35.4536 105.975 41.219 106.452 47.0602C103.218 46.5685 99.8115 46.9376 96.5779 48.3055C91.9233 50.2747 88.5064 53.9426 86.7434 58.282C81.4898 52.6631 73.5374 50.114 65.8669 51.8425C72.3361 47.2046 75.7688 39.3908 74.8921 31.5487C74.9901 31.4909 75.0886 31.4331 75.1879 31.3758C79.5788 33.217 84.6783 33.3583 89.4098 31.3566C92.6019 30.0061 95.2116 27.8564 97.1051 25.2392C97.11 25.2389 97.1148 25.2387 97.1196 25.2384C100.978 29.7981 106.866 32.1994 112.81 31.6421Z" fill="white"/>
<path d="M112.81 31.6421C108.347 35.4536 105.975 41.219 106.452 47.0602C103.218 46.5685 99.8115 46.9376 96.5779 48.3055C91.9233 50.2747 88.5064 53.9426 86.7434 58.282C81.4898 52.6631 73.5374 50.114 65.8669 51.8425C72.3361 47.2046 75.7688 39.3908 74.8921 31.5487C74.9901 31.4909 75.0886 31.4331 75.1879 31.3758C79.5788 33.217 84.6783 33.3583 89.4098 31.3566C92.6019 30.0061 95.2116 27.8564 97.1051 25.2392C97.11 25.2389 97.1148 25.2387 97.1196 25.2384C100.978 29.7981 106.866 32.1994 112.81 31.6421Z" fill="white"/>
<path d="M107.311 33.3967C107.311 33.3967 97.8794 36.3639 89.9129 40.057C81.9463 43.7501 75.2178 47.4255 75.2178 47.4255" stroke="#E24C5E" stroke-width="0.809967" stroke-linecap="round"/>
<path d="M103.524 43.9083C103.524 43.9083 98.6706 40.2679 97.035 36.9969C95.3993 33.7259 97.035 29.0304 97.035 29.0304" stroke="#E24C5E" stroke-width="0.809967" stroke-linecap="round"/>
<path d="M86.8399 50.4942C86.8399 50.4942 89.0466 44.6389 87.7506 41.2191C86.4545 37.7993 79.1359 36.6102 79.1359 36.6102" stroke="#E24C5E" stroke-width="0.809967" stroke-linecap="round"/>
</g>
</g>
<defs>
<filter id="filter0_d_407_36378" x="39.948" y="-10.7098" width="165.759" height="94.9108" filterUnits="userSpaceOnUse" color-interpolation-filters="sRGB">
<feFlood flood-opacity="0" result="BackgroundImageFix"/>
<feColorMatrix in="SourceAlpha" type="matrix" values="0 0 0 0 0 0 0 0 0 0 0 0 0 0 0 0 0 0 127 0" result="hardAlpha"/>
<feOffset/>
<feGaussianBlur stdDeviation="12.9595"/>
<feComposite in2="hardAlpha" operator="out"/>
<feColorMatrix type="matrix" values="0 0 0 0 0 0 0 0 0 0 0 0 0 0 0 0 0 0 0.25 0"/>
<feBlend mode="normal" in2="BackgroundImageFix" result="effect1_dropShadow_407_36378"/>
<feBlend mode="normal" in="SourceGraphic" in2="effect1_dropShadow_407_36378" result="shape"/>
</filter>
<clipPath id="clip0_407_36378">
<rect width="242.99" height="161.993" rx="24" fill="white"/>
</clipPath>
</defs>
</svg>
