<svg width="123" height="164" viewBox="0 0 123 164" fill="none" xmlns="http://www.w3.org/2000/svg">
<rect width="122.335" height="163.113" rx="24" fill="#E24C5E"/>
<path d="M62.7424 94.2151C61.1113 94.2151 59.6976 93.9215 58.5014 93.3343C57.3053 92.7254 56.3049 91.9098 55.5002 90.8876C54.7172 89.8655 54.13 88.691 53.7385 87.3644C53.3688 86.0377 53.1839 84.6458 53.1839 83.1887C53.1839 81.949 53.3253 80.6876 53.608 79.4045C53.9125 78.0995 54.3801 76.8599 55.0108 75.6855C55.6415 74.4893 56.4462 73.4236 57.4249 72.4885C58.4253 71.5315 59.6215 70.7812 61.0134 70.2375C62.4053 69.6938 64.0147 69.4219 65.8415 69.4219C66.842 69.4219 67.701 69.4872 68.4187 69.6177C69.1364 69.7481 69.4953 69.8134 69.4953 69.8134V73.7934C69.4953 73.7934 69.2995 73.7607 68.9081 73.6955C68.5383 73.6302 68.0708 73.565 67.5053 73.4998C66.9616 73.4345 66.407 73.4019 65.8415 73.4019C64.4496 73.4019 63.2535 73.6302 62.253 74.087C61.2744 74.5437 60.4588 75.1526 59.8063 75.9138C59.1756 76.6533 58.6972 77.458 58.371 78.3279C58.0447 79.1978 57.849 80.0352 57.7837 80.8399C57.9795 80.5136 58.3057 80.1222 58.7624 79.6654C59.2191 79.2087 59.839 78.8064 60.6219 78.4584C61.4266 78.1104 62.4379 77.9364 63.6558 77.9364C65.3957 77.9364 66.8528 78.317 68.0273 79.0782C69.2017 79.8394 70.0825 80.829 70.6697 82.0469C71.2569 83.2431 71.5505 84.5045 71.5505 85.8311C71.5505 86.875 71.3656 87.8972 70.9959 88.8976C70.6479 89.8763 70.1042 90.768 69.3648 91.5727C68.6253 92.3774 67.701 93.019 66.5919 93.4974C65.5044 93.9759 64.2213 94.2151 62.7424 94.2151ZM62.7424 90.5288C63.982 90.5288 65.0368 90.1264 65.9068 89.3217C66.7985 88.4953 67.2443 87.3753 67.2443 85.9616C67.2443 84.548 66.7985 83.4388 65.9068 82.6341C65.0368 81.8077 63.982 81.3944 62.7424 81.3944C61.5027 81.3944 60.4371 81.8077 59.5454 82.6341C58.6754 83.4388 58.2405 84.548 58.2405 85.9616C58.2405 87.3753 58.6754 88.4953 59.5454 89.3217C60.4371 90.1264 61.5027 90.5288 62.7424 90.5288Z" fill="white"/>
<path d="M67.0568 41.4966C74.3324 41.2042 79.7265 40.9889 83.8693 41.3882C87.9944 41.7858 90.7815 42.7851 92.9025 44.8491C95.0235 46.9131 96.0987 49.6719 96.6085 53.7847C97.1205 57.9151 97.0513 63.3133 96.9572 70.5942L96.6925 91.1118C96.6038 97.9671 96.5368 103.047 95.964 106.946C95.3937 110.827 94.3323 113.446 92.3204 115.432C90.3086 117.418 87.676 118.445 83.7882 118.965C79.8828 119.488 74.8015 119.489 67.9454 119.489H58.3644C51.4269 119.489 46.2854 119.487 42.338 118.957C38.4082 118.428 35.7537 117.385 33.7365 115.368C31.7193 113.35 30.6759 110.697 30.1476 106.767C29.6169 102.82 29.6154 97.6774 29.6154 90.7397V70.6177C29.6154 63.9305 29.6171 58.9751 30.1222 55.1567C30.625 51.3561 31.6173 48.7687 33.5382 46.769C35.4591 44.7694 38.0048 43.6741 41.7823 43.019C45.5774 42.361 50.5283 42.1606 57.2101 41.8921L67.0568 41.4966Z" stroke="white" stroke-width="1.22335"/>
<path d="M67.0568 41.4966C74.3324 41.2042 79.7265 40.9889 83.8693 41.3882C87.9944 41.7858 90.7815 42.7851 92.9025 44.8491C95.0235 46.9131 96.0987 49.6719 96.6085 53.7847C97.1205 57.9151 97.0513 63.3133 96.9572 70.5942L96.6925 91.1118C96.6038 97.9671 96.5368 103.047 95.964 106.946C95.3937 110.827 94.3323 113.446 92.3204 115.432C90.3086 117.418 87.676 118.445 83.7882 118.965C79.8828 119.488 74.8015 119.489 67.9454 119.489H58.3644C51.4269 119.489 46.2854 119.487 42.338 118.957C38.4082 118.428 35.7537 117.385 33.7365 115.368C31.7193 113.35 30.6759 110.697 30.1476 106.767C29.6169 102.82 29.6154 97.6774 29.6154 90.7397V70.6177C29.6154 63.9305 29.6171 58.9751 30.1222 55.1567C30.625 51.3561 31.6173 48.7687 33.5382 46.769C35.4591 44.7694 38.0048 43.6741 41.7823 43.019C45.5774 42.361 50.5283 42.1606 57.2101 41.8921L67.0568 41.4966Z" stroke="white" stroke-width="1.22335"/>
<path d="M56.4651 125.463C49.2037 126.003 43.8201 126.403 39.6661 126.145C35.5301 125.889 32.7111 124.985 30.521 122.995C28.3308 121.004 27.1619 118.284 26.512 114.191C25.8593 110.08 25.7431 104.683 25.5887 97.4029L24.9296 66.3292C24.7842 59.4747 24.6776 54.3943 25.1171 50.4786C25.5546 46.5807 26.5249 43.9264 28.4678 41.8728C30.4106 39.8195 33.0068 38.7038 36.8744 38.0513C40.7598 37.3959 45.838 37.2214 52.6901 36.9873L71.1764 36.3557C78.1097 36.1189 83.2484 35.9439 87.2115 36.3395C91.157 36.7333 93.8457 37.6854 95.9306 39.6325C98.0156 41.5798 99.1489 44.1971 99.8111 48.1066C100.476 52.0335 100.653 57.172 100.89 64.1054L101.925 94.408C102.154 101.091 102.321 106.043 101.947 109.876C101.574 113.692 100.67 116.312 98.8191 118.376C96.9676 120.44 94.4609 121.622 90.7079 122.406C86.9376 123.193 81.9963 123.562 75.3276 124.058L56.4651 125.463Z" stroke="white" stroke-width="1.22335"/>
<path d="M56.4651 125.463C49.2037 126.003 43.8201 126.403 39.6661 126.145C35.5301 125.889 32.7111 124.985 30.521 122.995C28.3308 121.004 27.1619 118.284 26.512 114.191C25.8593 110.08 25.7431 104.683 25.5887 97.4029L24.9296 66.3292C24.7842 59.4747 24.6776 54.3943 25.1171 50.4786C25.5546 46.5807 26.5249 43.9264 28.4678 41.8728C30.4106 39.8195 33.0068 38.7038 36.8744 38.0513C40.7598 37.3959 45.838 37.2214 52.6901 36.9873L71.1764 36.3557C78.1097 36.1189 83.2484 35.9439 87.2115 36.3395C91.157 36.7333 93.8457 37.6854 95.9306 39.6325C98.0156 41.5798 99.1489 44.1971 99.8111 48.1066C100.476 52.0335 100.653 57.172 100.89 64.1054L101.925 94.408C102.154 101.091 102.321 106.043 101.947 109.876C101.574 113.692 100.67 116.312 98.8191 118.376C96.9676 120.44 94.4609 121.622 90.7079 122.406C86.9376 123.193 81.9963 123.562 75.3276 124.058L56.4651 125.463Z" stroke="white" stroke-width="1.22335"/>
<circle cx="16.7991" cy="148.543" r="1.63113" fill="white"/>
<circle cx="31.9707" cy="150.665" r="1.63113" fill="white"/>
<circle cx="49.4326" cy="148.543" r="1.63113" fill="white"/>
<circle cx="67.177" cy="149.033" r="1.63113" fill="white"/>
<circle cx="84.9212" cy="149.033" r="1.63113" fill="white"/>
<circle cx="101.233" cy="150.174" r="1.63113" fill="white"/>
<circle cx="112.428" cy="137.931" r="1.63113" fill="white"/>
<circle cx="114.914" cy="120.107" r="1.63113" fill="white"/>
<circle cx="113.283" cy="103.915" r="1.63113" fill="white"/>
<circle cx="112.428" cy="88.1707" r="1.63113" fill="white"/>
<circle cx="113.283" cy="69.2564" r="1.63113" fill="white"/>
<circle cx="115.69" cy="53.064" r="1.63113" fill="white"/>
<circle cx="112.428" cy="37.084" r="1.63113" fill="white"/>
<circle cx="115.69" cy="21.7676" r="1.63113" fill="white"/>
<circle cx="111.653" cy="9.79275" r="1.63113" fill="white"/>
<circle cx="99.6006" cy="6.53055" r="1.63113" fill="white"/>
<circle cx="85.4873" cy="8.77591" r="1.63113" fill="white"/>
<circle cx="72.9037" cy="6.53055" r="1.63113" fill="white"/>
<circle cx="59.5364" cy="8.77591" r="1.63113" fill="white"/>
<circle cx="43.178" cy="7.1448" r="1.63113" fill="white"/>
<circle cx="27.3734" cy="10.407" r="1.63113" fill="white"/>
<circle cx="13.2602" cy="9.79275" r="1.63113" fill="white"/>
<circle cx="8.44852" cy="21.7676" r="1.63113" fill="white"/>
<circle cx="9.99844" cy="35.4529" r="1.63113" fill="white"/>
<circle cx="8.36636" cy="49.0589" r="1.63113" fill="white"/>
<circle cx="9.99844" cy="63.5201" r="1.63113" fill="white"/>
<circle cx="6.81766" cy="77.3201" r="1.63113" fill="white"/>
<circle cx="6.81766" cy="89.8018" r="1.63113" fill="white"/>
<circle cx="8.44852" cy="105.546" r="1.63113" fill="white"/>
<circle cx="6.81766" cy="121.731" r="1.63113" fill="white"/>
<circle cx="8.44852" cy="139.562" r="1.63113" fill="white"/>
</svg>
