<svg width="140" height="186" viewBox="0 0 140 186" fill="none" xmlns="http://www.w3.org/2000/svg">
<g clip-path="url(#clip0_636_26828)">
<rect width="139.226" height="185.634" rx="24" fill="#E24C5E"/>
<path d="M69.613 11.6892L90.3939 47.0537L131 41.2514L116.307 79.5479L146.161 107.677L107.059 120.068L103.68 160.946L69.613 138.1L35.546 160.946L32.1672 120.068L-6.93475 107.677L22.9189 79.5479L8.22647 41.2514L48.8322 47.0537L69.613 11.6892Z" fill="white"/>
<path d="M70.4143 7.80762L91.7825 44.1719L133.536 38.2061L135.1 37.9824L134.534 39.457L119.426 78.8359L150.124 107.761L151.274 108.844L149.768 109.321L109.56 122.062L106.086 164.096L105.956 165.67L104.644 164.791L69.6135 141.299L34.5842 164.791L33.2727 165.67L33.1418 164.096L29.6672 122.062L-10.5398 109.321L-12.0457 108.844L-10.8953 107.761L19.801 78.8359L4.69458 39.457L4.12817 37.9824L5.69165 38.2061L47.4446 44.1719L68.8137 7.80762L69.6145 6.44629L70.4143 7.80762Z" stroke="white" stroke-width="1.85634"/>
<path d="M60.7297 78.9068V106.381H55.7547V86.1836H50.5198V83.1764L51.3737 82.9165C52.834 82.4957 54.0221 82.013 54.9379 81.4685C55.8537 80.924 56.72 80.1815 57.5367 79.2409L57.8709 78.9068H60.7297ZM76.807 78.5355C78.6634 78.5355 80.2722 78.882 81.6335 79.575C83.0196 80.2433 84.1581 81.1591 85.0492 82.3224C85.9402 83.4857 86.5961 84.8223 87.0169 86.3321C87.4624 87.842 87.6852 89.426 87.6852 91.0844C87.6852 92.4952 87.5119 93.9431 87.1654 95.4282C86.8436 96.8885 86.3239 98.2993 85.6061 99.6607C84.913 100.997 83.9972 102.21 82.8587 103.299C81.7201 104.363 80.3588 105.205 78.7747 105.824C77.1907 106.442 75.3591 106.752 73.28 106.752C72.1662 106.752 71.1885 106.678 70.347 106.529C69.5302 106.381 69.1218 106.306 69.1218 106.306V101.777C69.1218 101.777 69.3322 101.814 69.7529 101.888C70.1984 101.963 70.7306 102.037 71.3494 102.111C71.9929 102.185 72.6364 102.222 73.28 102.222C74.864 102.222 76.2254 101.963 77.3639 101.443C78.5025 100.923 79.4306 100.242 80.1484 99.4008C80.8662 98.5345 81.4107 97.6063 81.782 96.6163C82.178 95.6262 82.4008 94.6733 82.4503 93.7575C82.2275 94.1288 81.8563 94.5743 81.3365 95.0941C80.8415 95.6138 80.1361 96.0717 79.2203 96.4678C78.3292 96.8638 77.1907 97.0618 75.8046 97.0618C73.7997 97.0618 72.129 96.6286 70.7925 95.7623C69.4559 94.8961 68.4535 93.7822 67.7852 92.4209C67.1169 91.0349 66.7828 89.5869 66.7828 88.0771C66.7828 86.889 66.9932 85.7381 67.4139 84.6243C67.8347 83.4857 68.4535 82.4586 69.2703 81.5428C70.1118 80.627 71.1514 79.8968 72.3889 79.3523C73.6512 78.8078 75.1239 78.5355 76.807 78.5355ZM76.807 82.7308C75.3962 82.7308 74.1834 83.2011 73.1686 84.1416C72.1785 85.0574 71.6835 86.3198 71.6835 87.9286C71.6835 89.5374 72.1785 90.8121 73.1686 91.7526C74.1834 92.6684 75.3962 93.1263 76.807 93.1263C78.2178 93.1263 79.4306 92.6684 80.4454 91.7526C81.4602 90.8121 81.9676 89.5374 81.9676 87.9286C81.9676 86.3198 81.4602 85.0574 80.4454 84.1416C79.4306 83.2011 78.2178 82.7308 76.807 82.7308Z" fill="#E24C5E"/>
<circle cx="12.2657" cy="144.06" r="2.32043" fill="white"/>
<circle cx="16.7413" cy="11.6893" r="2.32043" fill="white"/>
<circle cx="84.6656" cy="176.641" r="2.32043" fill="white"/>
<circle cx="97.4938" cy="11.6893" r="2.32043" fill="white"/>
<circle cx="20.9159" cy="172.464" r="1.85634" fill="white"/>
<circle cx="114.006" cy="26.2111" r="1.85634" fill="white"/>
<circle cx="71.0031" cy="154.623" r="1.39226" fill="white"/>
<circle cx="57.3488" cy="172" r="1.39226" fill="white"/>
<circle cx="128.099" cy="135.177" r="1.39226" fill="white"/>
<circle cx="20.9174" cy="128.093" r="0.928171" fill="white"/>
<circle cx="41.6044" cy="27.1391" r="0.928171" fill="white"/>
<circle cx="119.385" cy="9.20649" r="0.928171" fill="white"/>
<circle cx="121.242" cy="163.947" r="0.928171" fill="white"/>
</g>
<defs>
<clipPath id="clip0_636_26828">
<rect width="139.226" height="185.634" rx="24" fill="white"/>
</clipPath>
</defs>
</svg>
