<svg width="203" height="122" viewBox="0 0 203 122" fill="none" xmlns="http://www.w3.org/2000/svg">
<rect width="202.746" height="121.647" rx="24" fill="#E24C5E"/>
<rect x="54.8701" y="16.6726" width="88.3023" height="88.3023" rx="14.5977" fill="white"/>
<rect x="58.4805" y="20.2822" width="81.0829" height="81.0829" rx="14.5977" fill="#E24C5E"/>
<path d="M91.2589 48.3411V72.3462H86.912V54.6992H82.338V52.0716L83.0841 51.8445C84.3601 51.4769 85.3981 51.0552 86.1983 50.5794C86.9985 50.1036 87.7554 49.4548 88.4691 48.633L88.761 48.3411H91.2589ZM106.052 72.6706C104.43 72.6706 103.025 72.3786 101.835 71.7947C100.646 71.1892 99.6511 70.3782 98.8509 69.3618C98.0724 68.3453 97.4885 67.1775 97.0992 65.8583C96.7316 64.5391 96.5477 63.155 96.5477 61.7061C96.5477 60.4734 96.6883 59.2191 96.9694 57.9431C97.2722 56.6456 97.7372 55.4129 98.3643 54.245C98.9915 53.0556 99.7917 51.9959 100.765 51.066C101.76 50.1144 102.949 49.3683 104.333 48.8277C105.717 48.287 107.318 48.0167 109.134 48.0167C110.129 48.0167 110.983 48.0816 111.697 48.2113C112.411 48.3411 112.767 48.406 112.767 48.406V52.3636C112.767 52.3636 112.573 52.3311 112.183 52.2662C111.816 52.2014 111.351 52.1365 110.789 52.0716C110.248 52.0067 109.696 51.9743 109.134 51.9743C107.75 51.9743 106.561 52.2014 105.566 52.6555C104.593 53.1097 103.782 53.7152 103.133 54.4721C102.506 55.2074 102.03 56.0076 101.706 56.8726C101.381 57.7377 101.187 58.5703 101.122 59.3705C101.316 59.0461 101.641 58.6568 102.095 58.2026C102.549 57.7485 103.165 57.3484 103.944 57.0024C104.744 56.6564 105.75 56.4834 106.961 56.4834C108.691 56.4834 110.14 56.8618 111.308 57.6187C112.475 58.3757 113.351 59.3596 113.935 60.5707C114.519 61.7602 114.811 63.0145 114.811 64.3337C114.811 65.3717 114.627 66.3882 114.26 67.383C113.914 68.3562 113.373 69.2428 112.638 70.043C111.902 70.8432 110.983 71.4811 109.88 71.9569C108.799 72.4327 107.523 72.6706 106.052 72.6706ZM106.052 69.0049C107.285 69.0049 108.334 68.6049 109.199 67.8047C110.086 66.9829 110.529 65.8691 110.529 64.4634C110.529 63.0577 110.086 61.9548 109.199 61.1546C108.334 60.3328 107.285 59.9219 106.052 59.9219C104.82 59.9219 103.76 60.3328 102.873 61.1546C102.008 61.9548 101.576 63.0577 101.576 64.4634C101.576 65.8691 102.008 66.9829 102.873 67.8047C103.76 68.6049 104.82 69.0049 106.052 69.0049Z" fill="white"/>
<path d="M54.1185 13.0787C54.3609 13.9832 53.5332 14.8109 52.6286 14.5686L48.3734 13.4284C47.4689 13.186 47.1659 12.0553 47.8281 11.3932L50.9431 8.27811C51.6053 7.61594 52.736 7.9189 52.9783 8.82344L54.1185 13.0787Z" fill="white"/>
<path d="M52.6297 107.079C53.5342 106.837 54.3619 107.664 54.1196 108.569L52.9794 112.824C52.737 113.729 51.6064 114.032 50.9442 113.369L47.8291 110.254C47.167 109.592 47.4699 108.462 48.3745 108.219L52.6297 107.079Z" fill="white"/>
<path d="M148.629 13.0787C148.387 13.9832 149.214 14.8109 150.119 14.5686L154.374 13.4284C155.279 13.186 155.582 12.0553 154.919 11.3932L151.804 8.27811C151.142 7.61594 150.012 7.9189 149.769 8.82344L148.629 13.0787Z" fill="white"/>
<path d="M165.618 59.9803C164.807 60.4485 164.807 61.619 165.618 62.0873L169.433 64.2899C170.244 64.7582 171.257 64.1729 171.257 63.2364L171.257 58.8311C171.257 57.8946 170.244 57.3094 169.433 57.7776L165.618 59.9803Z" fill="white"/>
<path d="M32.4269 62.0871C33.2379 61.6189 33.2379 60.4483 32.4269 59.9801L28.6118 57.7775C27.8008 57.3092 26.7871 57.8945 26.7871 58.831L26.7871 63.2363C26.7871 64.1727 27.8008 64.758 28.6118 64.2898L32.4269 62.0871Z" fill="white"/>
<path d="M150.121 107.079C149.216 106.837 148.389 107.664 148.631 108.569L149.771 112.824C150.013 113.729 151.144 114.032 151.806 113.369L154.921 110.254C155.584 109.592 155.281 108.462 154.376 108.219L150.121 107.079Z" fill="white"/>
<circle cx="179.583" cy="29.8217" r="1.21647" fill="white"/>
<circle cx="82.1921" cy="113.015" r="1.21647" fill="white"/>
<circle cx="115.85" cy="6.20012" r="1.21647" fill="white"/>
<circle cx="10.6569" cy="41.5627" r="1.21647" fill="white"/>
<circle cx="79.7612" cy="8.63298" r="1.21647" fill="white" fill-opacity="0.5"/>
<circle cx="118.281" cy="114.231" r="1.21647" fill="white" fill-opacity="0.5"/>
<circle cx="36.0505" cy="86.0419" r="1.21647" fill="white"/>
<circle cx="156.998" cy="48.9069" r="1.21647" fill="white" fill-opacity="0.5"/>
<circle cx="195.325" cy="94.6479" r="1.21647" fill="white" fill-opacity="0.5"/>
<circle cx="165.414" cy="96.2697" r="1.62197" fill="white" fill-opacity="0.5"/>
<circle cx="25.1649" cy="23.0841" r="1.62197" fill="white" fill-opacity="0.5"/>
<circle cx="15.8583" cy="103.353" r="1.62197" fill="white" fill-opacity="0.5"/>
<mask id="mask0_636_26686" style="mask-type:alpha" maskUnits="userSpaceOnUse" x="58" y="20" width="82" height="82">
<rect x="58.4813" y="20.2825" width="81.0829" height="81.0829" rx="14.5977" fill="#E24C5E"/>
</mask>
<g mask="url(#mask0_636_26686)">
<rect x="37.6786" y="61.1365" width="83.8029" height="2.57622" transform="rotate(-42.3221 37.6786 61.1365)" fill="white" fill-opacity="0.2"/>
<rect x="31.8113" y="59.3574" width="83.8029" height="2.57622" transform="rotate(-42.3221 31.8113 59.3574)" fill="white" fill-opacity="0.2"/>
<rect x="28.7605" y="55.1626" width="83.8029" height="2.57622" transform="rotate(-42.3221 28.7605 55.1626)" fill="white" fill-opacity="0.2"/>
<rect x="46.9675" y="59.9199" width="83.8029" height="2.57622" transform="rotate(-42.3221 46.9675 59.9199)" fill="white" fill-opacity="0.2"/>
<rect x="54.8718" y="59.5144" width="83.8029" height="2.57622" transform="rotate(-42.3221 54.8718 59.5144)" fill="white" fill-opacity="0.2"/>
<rect x="53.1366" y="68.0117" width="83.8029" height="2.57622" transform="rotate(-42.3221 53.1366 68.0117)" fill="white" fill-opacity="0.2"/>
<rect x="48.5339" y="79.3916" width="108.254" height="2.57622" transform="rotate(-42.3221 48.5339 79.3916)" fill="white" fill-opacity="0.2"/>
<rect x="52.3367" y="83.1814" width="108.254" height="2.57622" transform="rotate(-42.3221 52.3367 83.1814)" fill="white" fill-opacity="0.2"/>
<rect x="49.6335" y="92.78" width="119.284" height="2.57622" transform="rotate(-42.3221 49.6335 92.78)" fill="white" fill-opacity="0.2"/>
<rect x="52.113" y="98.1616" width="127.277" height="2.57622" transform="rotate(-42.3221 52.113 98.1616)" fill="white" fill-opacity="0.2"/>
<rect x="55.3142" y="102.111" width="127.277" height="2.57622" transform="rotate(-42.3221 55.3142 102.111)" fill="white" fill-opacity="0.2"/>
<rect x="58.481" y="106.35" width="127.277" height="2.57622" transform="rotate(-42.3221 58.481 106.35)" fill="white" fill-opacity="0.2"/>
<rect x="62.7439" y="108.779" width="127.277" height="2.57622" transform="rotate(-42.3221 62.7439 108.779)" fill="white" fill-opacity="0.2"/>
<rect x="64.1091" y="114.231" width="127.277" height="2.57622" transform="rotate(-42.3221 64.1091 114.231)" fill="white" fill-opacity="0.2"/>
<rect x="68.3365" y="117.578" width="127.277" height="2.57622" transform="rotate(-42.3221 68.3365 117.578)" fill="white" fill-opacity="0.2"/>
<rect x="68.3365" y="124.137" width="127.277" height="2.57622" transform="rotate(-42.3221 68.3365 124.137)" fill="white" fill-opacity="0.2"/>
<rect x="73.578" y="126.042" width="127.277" height="2.57622" transform="rotate(-42.3221 73.578 126.042)" fill="white" fill-opacity="0.2"/>
<rect x="78.0264" y="129.154" width="127.277" height="2.57622" transform="rotate(-42.3221 78.0264 129.154)" fill="white" fill-opacity="0.2"/>
<rect x="82.5271" y="131.481" width="127.277" height="2.57622" transform="rotate(-42.3221 82.5271 131.481)" fill="white" fill-opacity="0.2"/>
<rect x="86.696" y="134.602" width="127.277" height="2.57622" transform="rotate(-42.3221 86.696 134.602)" fill="white" fill-opacity="0.2"/>
</g>
</svg>
