<svg width="203" height="203" viewBox="0 0 203 203" fill="none" xmlns="http://www.w3.org/2000/svg">
<rect width="202.837" height="202.837" rx="16.227" fill="#E24C5E"/>
<path d="M100.607 80.7065C103.312 80.7065 105.656 81.2114 107.639 82.2211C109.658 83.1947 111.317 84.5289 112.615 86.2237C113.914 87.9185 114.869 89.8658 115.482 92.0654C116.131 94.2651 116.456 96.5729 116.456 98.9889C116.456 101.044 116.203 103.154 115.698 105.317C115.23 107.445 114.472 109.5 113.427 111.484C112.417 113.431 111.083 115.198 109.424 116.784C107.765 118.335 105.782 119.561 103.474 120.463C101.166 121.364 98.4979 121.815 95.4689 121.815C93.8462 121.815 92.4218 121.707 91.1958 121.49C90.0058 121.274 89.4108 121.166 89.4108 121.166V114.567C89.4108 114.567 89.7173 114.621 90.3303 114.729C90.9794 114.837 91.7547 114.945 92.6562 115.054C93.5938 115.162 94.5313 115.216 95.4689 115.216C97.7767 115.216 99.76 114.837 101.419 114.08C103.078 113.323 104.43 112.331 105.475 111.105C106.521 109.843 107.315 108.491 107.855 107.048C108.432 105.606 108.757 104.218 108.829 102.883C108.505 103.424 107.964 104.073 107.206 104.831C106.485 105.588 105.457 106.255 104.123 106.832C102.825 107.409 101.166 107.697 99.147 107.697C96.2261 107.697 93.7921 107.066 91.8448 105.804C89.8976 104.542 88.4372 102.919 87.4636 100.936C86.49 98.9168 86.0031 96.8073 86.0031 94.6076C86.0031 92.8768 86.3097 91.2 86.9227 89.5773C87.5357 87.9185 88.4372 86.422 89.6272 85.0878C90.8532 83.7536 92.3677 82.6898 94.1707 81.8965C96.0098 81.1032 98.1553 80.7065 100.607 80.7065ZM100.607 86.8187C98.552 86.8187 96.7851 87.5038 95.3066 88.8741C93.8642 90.2083 93.143 92.0474 93.143 94.3913C93.143 96.7352 93.8642 98.5923 95.3066 99.9625C96.7851 101.297 98.552 101.964 100.607 101.964C102.663 101.964 104.43 101.297 105.908 99.9625C107.387 98.5923 108.126 96.7352 108.126 94.3913C108.126 92.0474 107.387 90.2083 105.908 88.8741C104.43 87.5038 102.663 86.8187 100.607 86.8187Z" fill="white"/>
<rect x="27.9054" y="26.6195" width="147.028" height="149.599" rx="14.5366" stroke="white" stroke-width="3.38061"/>
<mask id="mask0_636_26475" style="mask-type:alpha" maskUnits="userSpaceOnUse" x="26" y="24" width="151" height="154">
<rect x="26.2151" y="24.9292" width="150.409" height="152.979" rx="16.227" fill="#D9D9D9"/>
</mask>
<g mask="url(#mask0_636_26475)">
<path d="M103.442 209.599L103.442 -6.7605M81.7999 45.6039L103.442 67.2463L125.085 45.6039M125.085 153.183L103.442 131.54L81.7999 153.183M81.7999 5.61296L103.442 27.2553L125.085 5.61296M125.085 193.174L103.442 171.531L81.7999 193.174M-6.75928 99.3936H209.6M157.232 77.7516L135.59 99.3939L157.232 121.036M49.6522 121.036L71.2945 99.3939L49.6522 77.7516M197.224 77.7516L175.581 99.3939L197.224 121.036M9.66306 121.036L31.3054 99.3939L9.66307 77.7516M25.5126 21.4668L178.502 174.456M156.782 122.125H126.175V152.732M50.1026 76.6622L80.7095 76.6622V46.0553M185.059 150.403H154.452V181.01M21.8233 48.3844L52.4302 48.3844L52.4302 17.7775M181.372 21.4665L28.383 174.455M80.7145 152.731V122.124H50.1076M126.175 46.055V76.6619H156.782M52.4352 181.009L52.4352 150.403H21.8283M154.452 17.7772V48.3841H185.059" stroke="white" stroke-opacity="0.1" stroke-width="6.76123" stroke-linecap="round"/>
</g>
<path d="M21.9326 188.215L21.0169 190.415" stroke="white" stroke-width="4.05674" stroke-linecap="round"/>
<path d="M14.8936 73.6506L13.9779 75.8511" stroke="white" stroke-width="4.05674" stroke-linecap="round"/>
<path d="M98.4041 189.847L99.3198 192.047" stroke="white" stroke-width="4.05674" stroke-linecap="round"/>
<path d="M90.0137 10.6309L89.098 12.8313" stroke="white" stroke-width="4.05674" stroke-linecap="round"/>
<path d="M37.251 10.9155L36.3353 13.116" stroke="white" stroke-width="4.05674" stroke-linecap="round"/>
<path d="M12.8652 150.167L13.7809 147.967" stroke="white" stroke-width="4.05674" stroke-linecap="round"/>
<path d="M188.899 65.0737L187.984 67.2742" stroke="white" stroke-width="4.05674" stroke-linecap="round"/>
<path d="M188.899 125.443L187.984 127.643" stroke="white" stroke-width="4.05674" stroke-linecap="round"/>
<path d="M194.001 20.4834L193.085 22.6839" stroke="white" stroke-width="4.05674" stroke-linecap="round"/>
<path opacity="0.4" d="M133.632 9.81592L132.716 12.0164" stroke="white" stroke-width="4.05674" stroke-linecap="round"/>
<path d="M15.8096 38.2856L14.8939 40.4861" stroke="white" stroke-opacity="0.2" stroke-width="4.05674" stroke-linecap="round"/>
<path d="M170.454 9.81592L169.539 12.0164" stroke="white" stroke-width="4.05674" stroke-linecap="round"/>
<path d="M65.4848 191.225L60.5392 190.159" stroke="white" stroke-opacity="0.2" stroke-width="4.05674" stroke-linecap="round"/>
<path d="M13.2758 109.165L8.22122 108.95" stroke="white" stroke-opacity="0.2" stroke-width="4.05674" stroke-linecap="round"/>
<path d="M193.083 90.9281L188.899 88.0838" stroke="white" stroke-opacity="0.2" stroke-width="4.05674" stroke-linecap="round"/>
<path d="M193.083 150.168L188.899 153.012" stroke="white" stroke-opacity="0.2" stroke-width="4.05674" stroke-linecap="round"/>
<path d="M58.2684 8.15352L59.287 13.1091" stroke="white" stroke-opacity="0.2" stroke-width="4.05674" stroke-linecap="round"/>
<path d="M134.885 189.22L134.884 190.947" stroke="white" stroke-opacity="0.2" stroke-width="4.05674" stroke-linecap="round"/>
<circle cx="177.819" cy="188.291" r="2.02837" fill="white"/>
<circle cx="188.454" cy="45.2579" r="2.02837" fill="white" fill-opacity="0.4"/>
<circle cx="14.8936" cy="14.0445" r="2.02837" fill="white"/>
</svg>
