<svg width="21" height="20" viewBox="0 0 21 20" fill="none" xmlns="http://www.w3.org/2000/svg"><g clip-path="url(#ait-clip0_4632_46831)"><path d="M16.737 2.88306H6.73705C6.21106 2.88306 5.78467 3.30945 5.78467 3.83544V12.645C5.78467 13.1709 6.21106 13.5973 6.73705 13.5973H16.737C17.263 13.5973 17.6894 13.1709 17.6894 12.645V3.83544C17.6894 3.30945 17.263 2.88306 16.737 2.88306Z" fill="url(#ait-paint0_linear_4632_46831)"></path><path d="M16.737 2.88306H6.73705C6.21106 2.88306 5.78467 3.30945 5.78467 3.83544V12.645C5.78467 13.1709 6.21106 13.5973 6.73705 13.5973H16.737C17.263 13.5973 17.6894 13.1709 17.6894 12.645V3.83544C17.6894 3.30945 17.263 2.88306 16.737 2.88306Z" fill="url(#ait-paint1_linear_4632_46831)"></path><path fill-rule="evenodd" clip-rule="evenodd" d="M11.0228 2.88299C11.0228 2.4885 11.3426 2.1687 11.7371 2.1687H16.7371C17.6576 2.1687 18.4038 2.91489 18.4038 3.83537V12.6449C18.4038 13.5654 17.6576 14.3116 16.7371 14.3116H5.78472C5.39023 14.3116 5.07043 13.9917 5.07043 13.5973C5.07043 13.2028 5.39023 12.883 5.78472 12.883H16.7371C16.8686 12.883 16.9752 12.7764 16.9752 12.6449V3.83537C16.9752 3.70387 16.8686 3.59727 16.7371 3.59727H11.7371C11.3426 3.59727 11.0228 3.27747 11.0228 2.88299Z" fill="currentColor" fill-opacity="0.4"></path><path d="M14.2472 7.0707C14.2473 6.572 14.0771 6.12943 13.7204 5.81858C13.373 5.5159 12.9073 5.38899 12.4077 5.38908C11.838 5.38919 11.3478 5.60143 10.9135 5.95894C10.8409 6.01876 10.7533 6.04806 10.6785 6.04867C10.608 6.04925 10.5594 6.026 10.5259 5.98969C10.4952 5.95647 10.4815 5.91785 10.4802 5.88629C10.4791 5.85738 10.4874 5.83727 10.502 5.82146C11.0776 5.19675 11.781 4.8312 12.5904 4.83105C13.2848 4.83092 13.8346 5.02301 14.2048 5.35268C14.5668 5.67516 14.8088 6.17505 14.8087 6.9056C14.8086 7.42912 14.5673 7.78505 14.1904 8.15671C14.0697 8.27572 13.9588 8.3749 13.8402 8.48091C13.7522 8.55956 13.66 8.64196 13.5565 8.73902C13.3377 8.9441 13.108 9.18147 12.932 9.46766C12.775 9.72316 12.6046 9.8184 12.4953 9.8184C12.4167 9.8184 12.3622 9.78259 12.3421 9.75773L12.3396 9.75449L12.3409 9.75192C12.5329 9.3769 12.8454 9.09006 13.2072 8.75819C13.2602 8.70952 13.3143 8.65988 13.3693 8.60886C13.7469 8.25806 14.2471 7.77187 14.2472 7.0707Z" stroke="currentColor" stroke-opacity="0.4"></path><path d="M12.4231 12.193C12.1244 12.193 11.9437 12.0086 11.9437 11.7209C11.9437 11.4439 12.1243 11.2595 12.4231 11.2595C12.7076 11.2595 12.8917 11.4405 12.8917 11.7209C12.8917 12.0086 12.7004 12.193 12.4231 12.193Z" stroke="currentColor" stroke-opacity="0.4"></path><path fill-rule="evenodd" clip-rule="evenodd" d="M7.66641 9.52383C9.77039 9.52383 11.4759 7.81825 11.4759 5.71431C11.4759 3.61037 9.77039 1.90479 7.66641 1.90479C5.56247 1.90479 3.85689 3.61037 3.85689 5.71431C3.85689 7.81825 5.56247 9.52383 7.66641 9.52383ZM13.0539 12.7077C14.4828 14.1366 15.2854 16.0746 15.2854 18.0953H0.0473633C0.0473633 16.0746 0.850082 14.1366 2.27893 12.7077C3.70778 11.279 5.64571 10.4762 7.66641 10.4762C9.68715 10.4762 11.6251 11.279 13.0539 12.7077Z" fill="url(#ait-paint2_linear_4632_46831)"></path><path fill-rule="evenodd" clip-rule="evenodd" d="M5.96273 10.6691C4.57873 10.9867 3.29908 11.6876 2.27893 12.7077C1.19151 13.7952 0.466742 15.1775 0.182458 16.6667C0.093198 17.1343 0.0473633 17.6124 0.0473633 18.0953H15.2854C15.2854 17.6124 15.2396 17.1343 15.1504 16.6667C14.8661 15.1775 14.1413 13.7952 13.0539 12.7077C12.0337 11.6876 10.7541 10.9867 9.37009 10.6691C8.81562 10.5419 8.2444 10.4762 7.66641 10.4762C7.08842 10.4762 6.5172 10.5419 5.96273 10.6691ZM6.09413 9.18526C6.57346 9.40274 7.10579 9.52383 7.66641 9.52383C8.22703 9.52383 8.75936 9.40273 9.23868 9.18526C10.5582 8.5866 11.4759 7.25763 11.4759 5.71431C11.4759 3.61037 9.77039 1.90479 7.66641 1.90479C5.56247 1.90479 3.85689 3.61037 3.85689 5.71431C3.85689 7.25763 4.77462 8.5866 6.09413 9.18526ZM13.6898 16.6667C13.4272 15.5592 12.8617 14.5359 12.0437 13.7179C10.8828 12.557 9.30823 11.9048 7.66641 11.9048C6.0246 11.9048 4.45002 12.557 3.28909 13.7179C2.47111 14.5359 1.90569 15.5592 1.643 16.6667H13.6898ZM7.66641 8.09526C8.98137 8.09526 10.0473 7.02927 10.0473 5.71431C10.0473 4.39935 8.98137 3.33336 7.66641 3.33336C6.35145 3.33336 5.28546 4.39935 5.28546 5.71431C5.28546 7.02927 6.35145 8.09526 7.66641 8.09526Z" fill="currentColor" fill-opacity="0.4"></path></g><defs><linearGradient id="ait-paint0_linear_4632_46831" x1="17.6664" y1="13.3334" x2="5.28546" y2="2.38106" gradientUnits="userSpaceOnUse"><stop stop-color="currentColor"></stop><stop offset="1" stop-color="currentColor"></stop></linearGradient><linearGradient id="ait-paint1_linear_4632_46831" x1="10.3482" y1="13.7504" x2="8.41285" y2="3.71548" gradientUnits="userSpaceOnUse"><stop stop-color="currentColor"></stop><stop offset="1" stop-color="currentColor"></stop></linearGradient><linearGradient id="ait-paint2_linear_4632_46831" x1="11.5" y1="12" x2="1.65136" y2="8.56591" gradientUnits="userSpaceOnUse"><stop stop-color="currentColor"></stop><stop offset="1" stop-color="currentColor"></stop></linearGradient><clipPath id="ait-clip0_4632_46831"><rect width="20" height="20" fill="currentColor" transform="translate(0.0472412)"></rect></clipPath></defs></svg>