<svg fill="none" xmlns="http://www.w3.org/2000/svg"><path fill-rule="evenodd" clip-rule="evenodd" d="M15.8671 5.54947C15.6183 5.8806 15.685 6.35077 16.0161 6.59961C17.5554 7.75638 18.5487 9.59528 18.5487 11.6664C18.5487 12.5783 18.3565 13.4432 18.0111 14.2246C17.9543 14.353 17.9347 14.4948 17.9546 14.6338L18.3998 17.751L15.8647 17.1171C15.6788 17.0706 15.4821 17.0971 15.3151 17.191C14.3997 17.7059 13.3433 17.9998 12.216 17.9998C11.7815 17.9998 11.3579 17.9561 10.9492 17.8732C10.5432 17.7908 10.1474 18.0531 10.065 18.4591C9.98261 18.865 10.2449 19.2609 10.6509 19.3432C11.1572 19.446 11.6807 19.4998 12.216 19.4998C13.499 19.4998 14.7117 19.1908 15.7819 18.6426L19.1181 19.4767C19.3604 19.5373 19.6169 19.4733 19.8023 19.3061C19.9878 19.1388 20.0778 18.8903 20.0425 18.6431L19.4691 14.6287C19.8429 13.714 20.0487 12.7134 20.0487 11.6664C20.0487 9.10373 18.8174 6.8284 16.9173 5.40047C16.5861 5.15163 16.116 5.21834 15.8671 5.54947Z" fill="currentColor" fill-opacity="0.4"></path><path d="M0.691666 12.6571C0.247969 11.6534 0.00153923 10.543 0.00153923 9.375C0.00153923 4.88769 3.63888 1.25 8.12577 1.25C12.6127 1.25 16.25 4.88769 16.25 9.375C16.25 13.8623 12.6127 17.5 8.12577 17.5C6.68118 17.5 5.32465 17.1229 4.14922 16.4618L0 17.4992L0.691666 12.6571Z" ></path><path fill-rule="evenodd" clip-rule="evenodd" d="M2.17659 12.8692C2.21631 12.5912 2.17716 12.3076 2.06359 12.0507C1.70273 11.2343 1.50154 10.3301 1.50154 9.375C1.50154 5.71598 4.46744 2.75 8.12577 2.75C11.7841 2.75 14.75 5.71598 14.75 9.375C14.75 13.034 11.7841 16 8.12577 16C6.94538 16 5.84131 15.6925 4.88454 15.1544C4.55049 14.9665 4.1572 14.9137 3.78538 15.0066L1.80039 15.5029L2.17659 12.8692ZM0 17.4992L4.14922 16.4618C5.32465 17.1229 6.68118 17.5 8.12577 17.5C12.6127 17.5 16.25 13.8623 16.25 9.375C16.25 4.88769 12.6127 1.25 8.12577 1.25C3.63888 1.25 0.00153923 4.88769 0.00153923 9.375C0.00153923 10.543 0.247969 11.6534 0.691666 12.6571L0 17.4992Z" fill="currentColor" fill-opacity="0.4"></path><circle cx="3.75" cy="8.75" r="1.25" fill="currentColor" fill-opacity="0.4"></circle><circle cx="8.125" cy="8.75" r="1.25" fill="currentColor" fill-opacity="0.4"></circle><circle cx="12.5" cy="8.75" r="1.25" fill="currentColor" fill-opacity="0.4"></circle></svg>