<svg width="1em" height="1em" viewBox="0 0 16 16" fill="none" xmlns="http://www.w3.org/2000/svg"><path d="M10 3.333h3.333c.629 0 .943 0 1.138.196.196.195.196.51.196 1.138v6.667c0 .628 0 .942-.196 1.138-.195.195-.51.195-1.138.195H10" stroke="currentColor" stroke-width="1.2" stroke-linecap="round" stroke-linejoin="round"></path><path d="M6 3.933a.6.6 0 100-1.2v1.2zm-3.334 0h.6v-1.2h-.6v1.2zM1.528 3.53l.425.424-.425-.424zM.733 4.667v.6h1.2v-.6h-1.2zm1.2 6.667v-.6h-1.2v.6h1.2zm-.405 1.138l.425-.425-.425.425zm1.138.795h.6v-1.2h-.6v1.2zm3.334 0a.6.6 0 100-1.2v1.2zM5.166 2.733h-.6v1.2h.6v-1.2zM1.933 6.857v-.6h-1.2v.6h1.2zm-1.2 2.286v.6h1.2v-.6h-1.2zm4.433 2.924h-.6v1.2h.6v-1.2zm-2.5-9.334c-.297 0-.58 0-.811.03-.248.034-.523.114-.751.342l.849.848c-.033.032-.053.015.062 0 .132-.018.32-.02.651-.02v-1.2zm-1.562.371c-.228.228-.308.503-.341.751-.031.231-.03.515-.03.812h1.2c0-.331.001-.52.02-.652.015-.115.032-.094 0-.062l-.849-.849zm-.371 8.23c0 .297-.001.58.03.811.033.248.113.523.341.75l.849-.848c.032.033.015.053 0-.062a5.695 5.695 0 01-.02-.651h-1.2zm.371 1.562c.228.227.503.308.75.341.232.031.515.03.812.03v-1.2c-.33 0-.519-.001-.651-.02-.115-.015-.095-.032-.062 0l-.849.849zM6 2.733h-.834v1.2H6v-1.2zM.733 6.857v.31h1.2v-.31h-1.2zm0 .31V8h1.2v-.833h-1.2zm0 .833v1.143h1.2V8h-1.2zm4.433 5.267H6v-1.2h-.834v1.2z" fill="currentColor"></path><path d="M8 2v12" stroke="currentColor" stroke-width="1.2" stroke-linecap="round" stroke-linejoin="round"></path></svg>