<svg width="16" height="16" fill="none" viewBox="0 0 20 20" style="min-width: 20px; min-height: 20px;"><g><path fill="currentColor" d="M16.71 3.762a.781.781 0 1 0-1.232-.961C13.238 5.67 11.42 7.99 10 9.792c-1.421-1.8-3.238-4.12-5.478-6.991a.781.781 0 0 0-1.232.96c2.363 3.029 4.257 5.447 5.714 7.29a682.575 682.575 0 0 1-1.205 1.511 2.774 2.774 0 1 0-.428 2.964c.385-.42 1.26-1.493 2.629-3.216 1.37 1.723 2.244 2.797 2.63 3.216a2.773 2.773 0 1 0-.428-2.964 288.462 288.462 0 0 1-1.206-1.51c1.457-1.844 3.351-4.262 5.714-7.29Zm-2.827 10.817a.807.807 0 0 0-.082-.087 1.211 1.211 0 1 1 .082.088Zm-7.684-.087a1.207 1.207 0 0 1-.926.43 1.21 1.21 0 1 1 .926-.43Z" clip-rule="evenodd" fill-rule="evenodd" opacity=".8" data-follow-fill="#545C66" data-darkreader-inline-fill="" style="--darkreader-inline-fill: currentColor;"></path></g></svg>