<svg width="20" height="20" fill="none" viewBox="0 0 20 20" style="min-width: 20px; min-height: 20px;"><g><path data-follow-fill="currentColor" fill-rule="evenodd" clip-rule="evenodd" d="M9.375 5.898a1.836 1.836 0 1 1-3.672 0 1.836 1.836 0 0 1 3.672 0Zm1.463.82a3.4 3.4 0 0 1-6.598 0H2.5a.781.781 0 0 1 0-1.562h1.722a3.4 3.4 0 0 1 6.634 0H17.5a.781.781 0 1 1 0 1.563h-6.662Zm3.459 7.384a1.836 1.836 0 1 1-3.672 0 1.836 1.836 0 0 1 3.672 0Zm1.463.82a3.4 3.4 0 0 1-6.598 0H2.5a.781.781 0 0 1 0-1.563h6.644a3.4 3.4 0 0 1 6.634 0H17.5a.781.781 0 1 1 0 1.563h-1.74Z" fill="currentColor" data-darkreader-inline-fill="" style="--darkreader-inline-fill: currentColor;"></path></g></svg>