<svg width="1em" height="1em" viewBox="0 0 16 16" fill="none" xmlns="http://www.w3.org/2000/svg"><path d="M1.975 12.776a.6.6 0 00.849.848l-.849-.848zM5.6 10l.424-.424a.6.6 0 00-.849 0L5.6 10zm1.6 1.6l-.425.424a.6.6 0 00.849 0L7.2 11.6zM10.8 8l.424-.424a.6.6 0 00-.849 0L10.8 8zm2.775 3.624a.6.6 0 00.849-.848l-.849.848zm-10.751 2l3.2-3.2-.849-.848-3.2 3.2.849.848zm2.351-3.2l1.6 1.6.849-.848-1.6-1.6-.849.848zm2.449 1.6l3.6-3.6-.849-.848-3.6 3.6.849.848zm2.751-3.6l3.2 3.2.849-.848-3.2-3.2-.849.848zM4 2.2h8V1H4v1.2zM13.8 4v8H15V4h-1.2zM12 13.8H4V15h8v-1.2zM2.2 12V4H1v8h1.2zM4 13.8A1.8 1.8 0 012.2 12H1a3 3 0 003 3v-1.2zm9.8-1.8a1.8 1.8 0 01-1.8 1.8V15a3 3 0 003-3h-1.2zM12 2.2A1.8 1.8 0 0113.8 4H15a3 3 0 00-3-3v1.2zM4 1a3 3 0 00-3 3h1.2A1.8 1.8 0 014 2.2V1zm1.8 4.2a.6.6 0 01-.6.6V7A1.8 1.8 0 007 5.2H5.8zm-.6.6a.6.6 0 01-.6-.6H3.4A1.8 1.8 0 005.2 7V5.8zm-.6-.6a.6.6 0 01.6-.6V3.4a1.8 1.8 0 00-1.8 1.8h1.2zm.6-.6a.6.6 0 01.6.6H7a1.8 1.8 0 00-1.8-1.8v1.2z" fill="currentColor"></path></svg>