<svg version="1.1" baseProfile="tiny" xmlns="http://www.w3.org/2000/svg" x="0px" y="0px" viewBox="0 0 125 121.7" overflow="visible" xml:space="preserve"> <g> <circle fill="#FFFFFF" cx="63.4" cy="61.2" r="57.8"/> <path fill="#01A77D" d="M46.9,60.5c-0.1,0-0.2,0-0.4,0c-1.9-0.2-3.3-1.9-3.1-3.8c0.6-6.3,4.5-38,17.3-41.2 c8.2-2,14.4,7.5,16.5,10.6c1.1,1.6,0.6,3.8-1,4.9c-1.6,1.1-3.8,0.6-4.9-1c-3.5-5.3-6.9-8.2-9-7.7c-4.2,1-10,14.8-12,35.1 C50.1,59.1,48.6,60.5,46.9,60.5z"/> <path fill="#01A77D" d="M98.8,55.6c-0.5,0-1-0.1-1.4-0.3c-1.8-0.8-2.6-2.9-1.8-4.6c2.6-5.8,3.2-10.2,1.7-11.7 c-3.1-3-17.8-0.6-36.1,8.6c-1.7,0.9-3.8,0.2-4.7-1.6c-0.9-1.7-0.2-3.8,1.6-4.7c0.3-0.2,8.3-4.1,17.4-7.1 c13.4-4.5,22.2-4.5,26.7-0.2c6.1,5.8,1.4,16.2-0.1,19.6C101.4,54.9,100.1,55.6,98.8,55.6z"/> <path fill="#01A77D" d="M88.2,89.5c-1.8,0-3.3-1.3-3.5-3.1c-0.2-1.9,1.1-3.7,3.1-3.9c6.3-0.7,10.4-2.5,10.9-4.6 c1-4.2-8.7-15.6-25.9-26.6c-1.6-1-2.1-3.2-1.1-4.8c1-1.6,3.2-2.1,4.8-1.1c0.3,0.2,7.8,5,15.1,11.3c10.7,9.3,15.3,16.7,13.9,22.8 c-1.9,8.2-13.2,9.5-16.9,10C88.5,89.5,88.3,89.5,88.2,89.5z"/> <path fill="#01A77D" d="M62.3,107.6c-7.2,0-12.4-8.3-14.2-11.2c-1-1.6-0.5-3.8,1.1-4.8c1.6-1,3.8-0.5,4.8,1.1 c3.4,5.4,6.7,8.3,8.8,7.9c4.2-0.9,10.3-14.5,12.9-34.8c0.2-1.9,2-3.3,3.9-3c1.9,0.2,3.3,2,3,3.9c-0.8,6.3-5.4,37.9-18.4,40.7 C63.7,107.5,63,107.6,62.3,107.6z"/> <path fill="#01A77D" d="M37.3,89.5c-5.5,0-9.4-1.3-11.8-4c-5.6-6.3-0.1-16.3,1.6-19.5c0.9-1.7,3.1-2.3,4.7-1.4 c1.7,0.9,2.3,3.1,1.4,4.7c-3.1,5.6-4,9.9-2.6,11.5c2.9,3.2,17.7,1.9,36.7-5.7c1.8-0.7,3.8,0.1,4.6,1.9c0.7,1.8-0.1,3.8-1.9,4.6 c-0.3,0.1-8.6,3.5-17.9,5.8C46.2,88.8,41.3,89.5,37.3,89.5z"/> <path fill="#01A77D" d="M53.8,76.9c-0.6,0-1.2-0.2-1.8-0.5c-0.3-0.2-7.9-4.8-15.4-10.8c-11-8.9-15.8-16.2-14.6-22.3 c1.6-8.2,12.9-9.9,16.6-10.5c1.9-0.3,3.7,1,4,2.9c0.3,1.9-1,3.7-2.9,4c-6.3,0.9-10.3,2.8-10.7,4.9C28,48.9,38,59.9,55.6,70.4 c1.7,1,2.2,3.1,1.2,4.8C56.1,76.3,55,76.9,53.8,76.9z"/> <circle fill="#01A77D" cx="63.8" cy="60.5" r="8.4"/> </g> </svg>