<svg class="ait-cursor-pointer icon-zzgNjO" width="20" height="20" fill="none" viewBox="0 0 20 20" style="min-width: 20px; min-height: 20px;"><g><path fill="currentColor" d="M4.063 4.844c0-.432.35-.782.78-.782H10A.781.781 0 1 0 10 2.5H4.844A2.344 2.344 0 0 0 2.5 4.844v10.312A2.344 2.344 0 0 0 4.844 17.5h10.312a2.344 2.344 0 0 0 2.344-2.344V10a.781.781 0 0 0-1.563 0v5.156c0 .432-.35.781-.78.781H4.843a.781.781 0 0 1-.782-.78V4.843Zm1.044 7.754a.625.625 0 0 0 .504.996h8.812c.506 0 .803-.57.512-.984l-2.988-4.26a.625.625 0 0 0-1.041.027L9.857 10.05a.625.625 0 0 1-.974.106l-.619-.627a.625.625 0 0 0-.948.068l-2.209 3.001Zm6.455-7.13c0-.43.35-.78.782-.78h1.406V3.28a.781.781 0 0 1 1.563 0v1.406h1.406a.781.781 0 0 1 0 1.563h-1.407v1.406a.781.781 0 0 1-1.562 0V6.25h-1.406a.781.781 0 0 1-.781-.781Z" clip-rule="evenodd" fill-rule="evenodd" opacity=".8" data-follow-fill="#545C66" data-darkreader-inline-fill="" style="--darkreader-inline-fill: currentColor;"></path></g></svg>