<svg width="16" height="16" fill="none" viewBox="0 0 16 16" style="min-width: 16px; min-height: 16px; margin-top: 2px;"><g><path data-follow-fill="currentColor" d="M11.767 4.233a5.3 5.3 0 0 0-4.32-1.54C5 2.94 2.987 4.927 2.714 7.373a5.323 5.323 0 0 0 10.093 2.92.668.668 0 0 0-1.187-.606 3.996 3.996 0 0 1-4.533 2.206A3.965 3.965 0 0 1 4.1 8.88 4.002 4.002 0 0 1 8 4a3.94 3.94 0 0 1 2.813 1.187L9.807 6.193c-.42.42-.127 1.14.466 1.14h2.394c.367 0 .667-.3.667-.666V4.273a.669.669 0 0 0-1.14-.473l-.427.433Z" fill="currentColor" data-darkreader-inline-fill="" style="--darkreader-inline-fill: currentColor;"></path></g></svg>