<svg width="14" height="14" viewBox="0 0 14 14" fill="none" xmlns="http://www.w3.org/2000/svg"><g clip-path="url(#ait-clip0_33336_906)"><path d="M14.001 0H0V14H14.001V0Z" fill="none"></path><path d="M3.08659 8.07435L4.9972 9.17744L2.6691 12.7649C2.36449 13.2925 1.68985 13.4732 1.16224 13.1686C0.634643 12.864 0.453874 12.1894 0.758485 11.6618L3.08659 8.07435Z" stroke="currentColor"></path><path d="M7.18979 6.69051C7.42492 7.90126 5.43449 9.20952 4.34465 8.5803C3.25481 7.95108 2.95831 6.4243 3.6824 5.17014C4.40648 3.91599 7.40383 3.28165 7.40383 3.28165C7.40383 3.28165 7.00351 5.73127 7.18979 6.69051Z" stroke="currentColor"></path><path d="M4.55078 3C4.78243 1.85888 5.79138 1 7.00094 1C8.38175 1 9.50112 2.11929 9.50112 3.5C9.50112 4.26578 9.15679 4.95114 8.61451 5.40972" stroke="currentColor" stroke-linecap="round" stroke-linejoin="round"></path><path d="M5.00042 12H13.001C13.001 9.67906 11.2577 7.70789 8.83448 7" stroke="currentColor" stroke-linecap="round" stroke-linejoin="round"></path></g><defs><clipPath id="ait-clip0_33336_906"><rect width="14.001" height="14" fill="currentColor"></rect></clipPath></defs></svg>