<svg width="1em" height="1em" viewBox="0 0 14 14" fill="none" xmlns="http://www.w3.org/2000/svg"><path d="M6.369 1L3.684 4.316l-.335.414-.336.415-.335.414-.336.415L1 7.632M10.79 1L8.343 3.684M13 5v-.917V3a2 2 0 00-2-2H3a2 2 0 00-2 2V11A2 2 0 003 13h2.542m-2.4-3.612l-.306.336-.612.67-.612.672-.306.335" stroke="currentColor" stroke-linecap="round" stroke-linejoin="round"></path><path d="M11.5 7a.5.5 0 000 1V7zm1.5.5h.5A.5.5 0 0013 7v.5zm0 2.5l.099.49A.5.5 0 0013.5 10H13zm-5 1l-.098-.49A.5.5 0 007.5 11H8zm-.5 2.5a.5.5 0 001 0h-1zM5 5.5h5v-1H5v1zm5.5.5v2h1V6h-1zM10 8.5H5v1h5v-1zM4.5 8V6h-1v2h1zm.5.5a.5.5 0 01-.5-.5h-1A1.5 1.5 0 005 9.5v-1zm5.5-.5a.5.5 0 01-.5.5v1A1.5 1.5 0 0011.5 8h-1zM10 5.5a.5.5 0 01.5.5h1A1.5 1.5 0 0010 4.5v1zm-5-1A1.5 1.5 0 003.5 6h1a.5.5 0 01.5-.5v-1zM11.5 8H13V7h-1.5v1zm1-.5V10h1V7.5h-1zm.403 2.01l-5 1 .195.98 5-1-.195-.98zM7.5 11v2.5h1V11h-1z" fill="currentColor"></path></svg>