<svg width="1em" height="1em" viewBox="0 0 14 14" fill="none" xmlns="http://www.w3.org/2000/svg"><g id="ait-icon/å¾ç/ç¼è¾" clip-path="url(#ait-clip0_32985_775)"><path id="ait-Vector" d="M6.36879 1L1 7.63158M10.7902 1L1.36454 11.3371M13.0008 3.21053L10.7112 5.65789M3.8423 13L4.98712 11.7763M8.22983 13H7.00042H3C1.89543 13 1 12.104 1 10.9995C1 10.9705 1 10.9431 1 10.9173V3.08271C1 3.0569 1 3.02945 1 3.00054C1 1.89597 1.89543 1 3 1H11.0008C12.1054 1 13.0008 1.89597 13.0008 3.00054C13.0008 3.02945 13.0008 3.0569 13.0008 3.08271V7V9.45865V10.688" stroke="currentColor" stroke-linecap="round" stroke-linejoin="round"></path><path id="ait-Vector_2" d="M10.1351 12.66L10.7581 14.074L11.3811 12.66L12.5222 12.037L11.3811 11.414L10.7581 10L10.1351 11.414L9.00098 12.037L10.1351 12.66Z" fill="currentColor"></path><path id="ait-Vector_3" d="M7.13408 9.66L7.75711 11.074L8.38017 9.66L9.52124 9.03699L8.38017 8.414L7.75711 7L7.13408 8.414L6 9.03699L7.13408 9.66Z" fill="currentColor"></path></g><defs><clipPath id="ait-clip0_32985_775"><rect width="14.001" height="14" fill="currentColor"></rect></clipPath></defs></svg>