<svg width="1em" height="1em" viewBox="0 0 14 14" xmlns="http://www.w3.org/2000/svg"><path d="M1.747 11.196a.5.5 0 00.707.708l-.707-.708zM4.9 8.75l.353-.354a.5.5 0 00-.707 0l.354.354zm1.4 1.4l-.354.354a.5.5 0 00.707 0L6.3 10.15zM9.45 7l.353-.354a.5.5 0 00-.707 0L9.451 7zm2.447 3.154a.5.5 0 00.707-.708l-.707.708zM7 1.9a.5.5 0 000-1v1zM13.1 7a.5.5 0 00-1 0h1zM8 3a.5.5 0 000 1V3zm5 1a.5.5 0 000-1v1zm-2-3a.5.5 0 10-1 0h1zm-1 5a.5.5 0 001 0h-1zm-7.547 5.904l2.8-2.8-.707-.708-2.8 2.8.707.708zm2.093-2.8l1.4 1.4.707-.708-1.4-1.4-.707.708zm2.107 1.4l3.15-3.15-.707-.708-3.15 3.15.707.708zm2.443-3.15l2.8 2.8.708-.708-2.8-2.8-.708.708zM10.5 12.1h-7v1h7v-1zm-8.6-1.6v-7h-1v7h1zm1.6 1.6a1.6 1.6 0 01-1.6-1.6h-1a2.6 2.6 0 002.6 2.6v-1zm8.6-1.6a1.6 1.6 0 01-1.6 1.6v1a2.6 2.6 0 002.6-2.6h-1zM3.501.9A2.6 2.6 0 00.9 3.5h1a1.6 1.6 0 011.6-1.6v-1zm1.6 3.65a.55.55 0 01-.55.55v1A1.55 1.55 0 006.1 4.55h-1zm-.55.55A.55.55 0 014 4.55H3c0 .856.694 1.55 1.55 1.55v-1zM4 4.55A.55.55 0 014.55 4V3A1.55 1.55 0 003 4.55h1zM4.55 4a.55.55 0 01.55.55h1A1.55 1.55 0 004.55 3v1zM3.5 1.9H7v-1H3.5v1zM12.1 7v3.5h1V7h-1zM8 4h5V3H8v1zm2-3v5h1V1h-1z" fill="currentColor"></path></svg>