<svg width="12" height="12" fill="none" viewBox="0 0 12 12" style="min-width: 12px; min-height: 12px;"><g><path data-follow-stroke="currentColor" d="M4.41 8.652c-.531 1.59-2.653 1.59-2.653 1.59s0-2.12 1.591-2.65M9.182 4.94 6 8.12 3.879 6 7.06 2.818c1.205-1.205 2.41-1.193 2.923-1.116a.373.373 0 0 1 .315.314c.076.514.088 1.718-1.117 2.923Zm-.53.53v3.026a.375.375 0 0 1-.11.265l-1.516 1.516a.375.375 0 0 1-.633-.191L6 8.12" stroke="currentColor" stroke-linecap="round" stroke-linejoin="round" data-darkreader-inline-stroke="" style="--darkreader-inline-stroke: currentColor;"></path><path data-follow-stroke="currentColor" d="M6.53 3.348H3.504a.375.375 0 0 0-.266.11L1.722 4.974a.375.375 0 0 0 .192.633L3.88 6" stroke="currentColor" stroke-linecap="round" stroke-linejoin="round" data-darkreader-inline-stroke="" style="--darkreader-inline-stroke: currentColor;"></path></g></svg>