<svg width="16" height="16" fill="none" viewBox="0 0 20 20" style="min-width: 16px; min-height: 16px;"><g><path data-follow-stroke="currentColor" d="m2.5 13.125 3.933-3.933a.625.625 0 0 1 .884 0l3.491 3.491a.625.625 0 0 0 .884 0l1.616-1.616a.628.628 0 0 1 .681-.136.627.627 0 0 1 .203.136l3.308 3.308" stroke="currentColor" stroke-width="1.5" stroke-linecap="round" stroke-linejoin="round" data-darkreader-inline-stroke="" style="--darkreader-inline-stroke: currentColor;"></path><path data-follow-stroke="currentColor" d="M16.875 3.75H3.125a.625.625 0 0 0-.625.625v11.25c0 .345.28.625.625.625h13.75c.345 0 .625-.28.625-.625V4.375a.625.625 0 0 0-.625-.625Z" stroke="currentColor" stroke-width="1.5" stroke-linecap="round" stroke-linejoin="round" data-darkreader-inline-stroke="" style="--darkreader-inline-stroke: currentColor;"></path><path data-follow-stroke="currentColor" data-follow-fill="currentColor" d="M12.906 7.813a.719.719 0 1 1-1.437 0 .719.719 0 0 1 1.437 0Z" fill="currentColor" stroke="currentColor" stroke-width=".125" data-darkreader-inline-fill="" data-darkreader-inline-stroke="" style="--darkreader-inline-fill: currentColor; --darkreader-inline-stroke: currentColor;"></path></g></svg>