<svg width="12" height="12" fill="none" viewBox="0 0 12 12" style="min-width: 12px; min-height: 12px;"><g><path data-follow-fill="currentColor" d="M4.706 2.914 4 2.323l-.914-.116.591-.707.117-.914.706.591.914.117L4.823 2l-.117.914ZM7.5 1.5l-.5.147-.5-.147.147.5-.147.5.5-.147.5.147-.147-.5.147-.5Z" fill="currentColor" data-darkreader-inline-fill="" style="--darkreader-inline-fill: currentColor;"></path><path data-follow-fill="currentColor" d="M7.627 6.298a1.153 1.153 0 0 1-.35-.687L7.1 4.244l-1.21.659c-.234.126-.503.17-.763.12L3.77 4.772l.252 1.355c.049.26.006.53-.12.762l-.66 1.21 1.367.18c.263.034.506.158.688.35l.947 1 .593-1.244c.114-.24.306-.432.545-.546l1.245-.592-1-.948Zm.012 2.467-.982 2.061a.267.267 0 0 1-.433.07l-1.57-1.659a.266.266 0 0 0-.158-.08L2.23 8.86a.266.266 0 0 1-.199-.391l1.092-2.006a.266.266 0 0 0 .027-.175l-.418-2.245a.266.266 0 0 1 .31-.31l2.245.418c.06.01.122.001.176-.028l2.007-1.09a.266.266 0 0 1 .39.2l.296 2.263c.008.06.037.116.081.158l1.658 1.57a.266.266 0 0 1-.069.434l-2.062.98a.266.266 0 0 0-.125.127Zm.666 1.168a.443.443 0 0 1 .627-.627l1.254 1.253a.443.443 0 1 1-.627.628L8.305 9.933ZM1.5 5l-.75.22L0 5l.221.75L0 6.5l.75-.22.75.22-.219-.75L1.5 5Z" fill="currentColor" fill-opacity=".96" data-darkreader-inline-fill="" style="--darkreader-inline-fill: currentColor;"></path></g></svg>