<svg fill="none" xmlns="http://www.w3.org/2000/svg"><rect x="1.25" y="1.25" width="15" height="17.5" rx="2"></rect><path fill-rule="evenodd" clip-rule="evenodd" d="M3.95276 2.75C3.2624 2.75 2.70276 3.30964 2.70276 4V16C2.70276 16.6904 3.2624 17.25 3.95276 17.25H13.9528C14.6431 17.25 15.2028 16.6904 15.2028 16V12C15.2028 11.5858 15.5385 11.25 15.9528 11.25C16.367 11.25 16.7028 11.5858 16.7028 12V16C16.7028 17.5188 15.4715 18.75 13.9528 18.75H3.95276C2.43398 18.75 1.20276 17.5188 1.20276 16V4C1.20276 2.48122 2.43398 1.25 3.95276 1.25H12.4528C12.867 1.25 13.2028 1.58579 13.2028 2C13.2028 2.41421 12.867 2.75 12.4528 2.75H3.95276Z" fill="currentColor" fill-opacity="0.4"></path><path fill-rule="evenodd" clip-rule="evenodd" d="M15.5232 1.96967C15.8161 1.67678 16.291 1.67678 16.5839 1.96967L19.1769 4.56268C19.6649 5.05071 19.6651 5.84193 19.1772 6.33014L10.5813 14.9321C10.421 15.0925 10.2202 15.2062 10.0002 15.2612L7.01462 16.0076C6.09916 16.2364 5.26993 15.4072 5.49878 14.4918L6.24521 11.5058C6.30008 11.2863 6.41348 11.0859 6.57333 10.9258L11.8402 5.65272C12.1331 5.35983 12.6079 5.35983 12.9008 5.65272C13.1937 5.94562 13.1937 6.42049 12.9008 6.71338L7.68366 11.9367L7.05505 14.4513L9.56923 13.8228L17.9395 5.44662L15.5232 3.03033C15.2303 2.73744 15.2303 2.26257 15.5232 1.96967Z" fill="currentColor" fill-opacity="0.4"></path><defs><linearGradient id="ait-paint0_linear_4632_46813" x1="7" y1="19" x2="3" y2="3" gradientUnits="userSpaceOnUse"><stop stop-color="#37235E"></stop><stop offset="1" stop-color="#212123"></stop></linearGradient></defs></svg>