<svg width="187" height="125" viewBox="0 0 187 125" fill="none" xmlns="http://www.w3.org/2000/svg">
<rect width="186.923" height="124.615" rx="24" fill="white"/>
<path d="M108.53 11.8545C108.536 11.8161 108.525 11.7221 108.416 11.5723C108.311 11.4292 108.155 11.291 108 11.1911C107.724 11.0118 107.116 10.6269 106.441 10.2414C105.758 9.85088 105.039 9.47925 104.528 9.30435C104.334 9.23838 104.143 9.20939 103.938 9.21732C103.399 9.23933 102.61 9.39085 101.85 9.56924C101.474 9.65731 101.115 9.75019 100.811 9.83228L100.098 10.0323C99.8311 10.1105 99.6598 10.3145 99.6245 10.5565L99.0155 14.735C98.8837 15.6389 99.2568 17.081 100.595 18.4558L101.538 19.2722L102.398 19.965L102.402 19.9675C102.511 20.0571 102.647 20.1148 102.788 20.1353C102.924 20.1552 103.054 20.1387 103.156 20.0952L103.163 20.0914L103.171 20.0885L104.354 19.6264L105.365 19.1598C107.032 18.138 107.781 16.9944 107.921 16.033L108.53 11.8545ZM106.007 13.2039C106.228 13.0391 106.541 13.0846 106.706 13.3058C106.871 13.5271 106.825 13.8404 106.604 14.0055L103.36 16.4242C102.916 16.7553 102.288 16.6623 101.958 16.2169L100.734 14.5621C100.57 14.34 100.617 14.0261 100.839 13.8619C101.061 13.6981 101.374 13.7451 101.538 13.9668L102.763 15.6226L106.007 13.2039ZM108.911 16.1773C108.712 17.5403 107.696 18.9116 105.864 20.028L105.839 20.0431L105.812 20.0551L104.758 20.5418L104.744 20.5487L104.73 20.5536L103.533 21.0206L103.532 21.0195C103.249 21.137 102.938 21.1678 102.644 21.1249C102.333 21.0796 102.028 20.9521 101.771 20.7431L100.911 20.0522L100.897 20.0403L99.9251 19.199L99.9092 19.1858L99.8946 19.1709C98.3792 17.6226 97.8388 15.8746 98.0259 14.5907L98.6349 10.4122C98.729 9.76743 99.1904 9.25614 99.8161 9.0725C100.143 8.97643 100.848 8.77712 101.622 8.59548C102.386 8.41616 103.256 8.24481 103.898 8.21869C104.226 8.20596 104.541 8.25195 104.852 8.35771C105.46 8.566 106.251 8.981 106.937 9.37319C107.633 9.77062 108.257 10.1653 108.544 10.3515C108.779 10.5036 109.031 10.7215 109.222 10.9823C109.408 11.2362 109.579 11.5938 109.52 11.9988L108.911 16.1773Z" fill="#2A343C" fill-opacity="0.5"/>
<path d="M77.4165 19.8505L78.6308 20.2728L79.686 20.5995C79.9114 20.6714 80.1514 20.6757 80.374 20.6228C80.5887 20.5718 80.7875 20.4666 80.9379 20.3173L81.8766 19.4431L82.5593 20.1753L81.6187 21.05L81.6175 21.0493C81.3277 21.3279 80.9704 21.509 80.605 21.5958C80.217 21.6879 79.7952 21.6812 79.3906 21.5539L78.3359 21.2291L78.3185 21.2232L78.302 21.2171L77.0876 20.7948L77.4165 19.8505ZM76.6936 8.19345C77.0496 8.03596 77.4185 7.94837 77.8072 7.92909L77.8091 7.92864C78.5025 7.89552 79.4317 7.99636 80.2164 8.10792C81.0198 8.22216 81.7537 8.35985 82.0962 8.4285C82.4179 8.49249 82.7943 8.62086 83.1293 8.83163C83.4501 9.03346 83.8636 9.39643 84.0009 9.9747L84.9763 14.0832C85.3408 15.6188 84.8204 17.4192 83.4766 19.2028L83.4424 19.249L83.4031 19.2905L82.6022 20.132L82.5813 20.154L82.5593 20.1753L81.8766 19.4431L82.6784 18.6013C83.9167 16.9578 84.2751 15.459 84.0033 14.3141L83.028 10.2057C82.9244 9.7697 82.3564 9.49969 81.9014 9.40919C81.243 9.27715 79.0372 8.87072 77.8565 8.92712C77.5902 8.94036 77.3411 8.99947 77.0973 9.10735C76.0171 9.58785 74.251 10.9319 73.723 11.3447C73.3569 11.631 73.1949 12.0796 73.2984 12.5155L74.2737 16.6239C74.5294 17.7008 75.5444 19.0177 77.4153 19.8498L77.0876 20.7948L77.0482 20.781L77.011 20.7638L76.6287 20.5825C74.7668 19.6441 73.6229 18.2118 73.3007 16.8549L72.3254 12.7464C72.1279 11.9145 72.4462 11.0732 73.1073 10.5564L73.7235 10.0869C73.9877 9.88986 74.3004 9.66144 74.6317 9.43071C75.2775 8.98098 76.0572 8.47609 76.6917 8.1939L76.6936 8.19345Z" fill="#2A343C" fill-opacity="0.5"/>
<path d="M80.7467 12.1083C79.7272 12.1165 79.158 13.7368 79.6774 15.2859C79.7398 15.472 79.9188 15.5892 80.115 15.5928L81.1962 15.6127C81.3843 15.6162 81.5615 15.515 81.6307 15.3403C82.1649 13.9913 81.7607 12.1002 80.7467 12.1083Z" fill="#2A343C" fill-opacity="0.5"/>
<path d="M81.1919 16.2323L80.0788 16.2333C79.8974 16.2335 79.7249 16.3347 79.7113 16.5156C79.6687 17.0817 80.0418 17.9965 80.6322 18.0084C81.2304 18.0205 81.6202 17.1319 81.5783 16.5347C81.5648 16.3435 81.3834 16.2321 81.1919 16.2323Z" fill="#2A343C" fill-opacity="0.5"/>
<path d="M75.7294 12.0023C74.8524 12.5225 75.171 14.2119 76.3946 15.2916C76.5416 15.4214 76.7549 15.4328 76.9262 15.3372L77.8708 14.8101C78.0349 14.7184 78.1375 14.5417 78.1099 14.3556C77.8968 12.9187 76.6016 11.4848 75.7294 12.0023Z" fill="#2A343C" fill-opacity="0.5"/>
<path d="M78.2306 15.3174L77.2691 15.8787C77.1125 15.9701 77.014 16.1446 77.0927 16.308C77.3391 16.8196 78.1191 17.4239 78.6353 17.137C79.1583 16.8463 79.0507 15.8807 78.7157 15.3848C78.6085 15.2261 78.3961 15.2209 78.2306 15.3174Z" fill="#2A343C" fill-opacity="0.5"/>
</svg>
