<svg width="108" height="215" viewBox="0 0 108 215" fill="none" xmlns="http://www.w3.org/2000/svg">
<rect width="107.335" height="214.67" rx="24" fill="white"/>
<g opacity="0.8">
<path d="M53.9187 38.2285C49.5002 39.2069 47.291 39.6961 45.6144 38.6274C43.9378 37.5587 43.4486 35.3495 42.4702 30.931L41.4324 26.2445C40.454 21.8261 39.9648 19.6169 41.0335 17.9403C42.1022 16.2637 44.3114 15.7745 48.7299 14.7961L53.3826 13.7658C57.8011 12.7874 60.0103 12.2982 61.6869 13.3669C63.3635 14.4356 63.8527 16.6448 64.8311 21.0632L65.8688 25.7497C66.8472 30.1682 67.3364 32.3774 66.2677 34.054C65.1991 35.7306 62.9898 36.2198 58.5714 37.1982L53.9187 38.2285Z" fill="url(#paint0_radial_654_26833)"/>
<path d="M49.3202 28.5204C49.3202 28.5204 48.2584 27.1857 47.9928 26.1652C47.2249 23.2146 47.8846 20.5138 52.244 19.5485C56.6033 18.5831 58.2209 20.7776 58.8912 23.7519C59.1293 24.8089 58.7968 26.5271 58.7968 26.5271" stroke="white" stroke-width="1.2" stroke-linecap="round"/>
<path d="M48.9427 30.4556C48.6764 29.2527 49.4356 28.0617 50.6385 27.7953V27.7953C51.2399 27.6621 51.8354 28.0417 51.9686 28.6432L52.6745 31.8307C52.8076 32.4322 52.428 33.0277 51.8266 33.1609V33.1609C50.6237 33.4273 49.4327 32.6681 49.1663 31.4652L48.9427 30.4556Z" stroke="white" stroke-width="1.2"/>
<path d="M59.8412 28.042C59.5748 26.8391 58.3838 26.0799 57.1809 26.3463V26.3463C56.5794 26.4795 56.1998 27.075 56.333 27.6765L57.0389 30.864C57.172 31.4655 57.7676 31.8451 58.369 31.7119V31.7119C59.5719 31.4455 60.3311 30.2545 60.0647 29.0516L59.8412 28.042Z" stroke="white" stroke-width="1.2"/>
</g>
<defs>
<radialGradient id="paint0_radial_654_26833" cx="0" cy="0" r="1" gradientUnits="userSpaceOnUse" gradientTransform="translate(42.5361 42.2136) rotate(-55.2494) scale(34.6907 63.3348)">
<stop stop-color="#50DFFF"/>
<stop offset="0.708735" stop-color="#5021FF"/>
<stop offset="1" stop-color="#005EFF"/>
</radialGradient>
</defs>
</svg>
