<svg width="261" height="196" viewBox="0 0 261 196" fill="none" xmlns="http://www.w3.org/2000/svg">
<rect width="260.055" height="195.041" rx="24" fill="white"/>
<path d="M121.033 27.6887C121.044 27.6907 121.127 27.7046 121.408 27.6518C121.709 27.5954 122.101 27.4921 122.731 27.3233L123.119 28.7722C121.903 29.098 121.295 29.2613 120.764 29.165L121.033 27.6887ZM124.18 26.935L124.568 28.3839L123.119 28.7722L122.731 27.3233L124.18 26.935ZM125.771 24.1794C125.602 23.5492 125.496 23.1585 125.394 22.8699C125.299 22.5996 125.246 22.5352 125.238 22.5265C125.104 22.3677 124.918 22.2602 124.713 22.223C124.701 22.2209 124.619 22.207 124.337 22.2598C124.037 22.3162 123.645 22.4195 123.015 22.5884L121.566 22.9766C120.936 23.1455 120.545 23.2518 120.257 23.3533C119.986 23.4484 119.922 23.5016 119.913 23.509C119.754 23.6437 119.647 23.8298 119.61 24.0346C119.608 24.0459 119.594 24.1282 119.647 24.41C119.703 24.7106 119.806 25.1021 119.975 25.7323C120.144 26.3624 120.25 26.7531 120.352 27.0417C120.447 27.3121 120.5 27.3765 120.507 27.3852C120.642 27.544 120.828 27.6514 121.033 27.6887L120.763 29.1639C120.217 29.0643 119.722 28.779 119.363 28.356C119.015 27.9451 118.852 27.3366 118.526 26.1205C118.2 24.9044 118.037 24.2961 118.133 23.766C118.233 23.2204 118.518 22.7241 118.941 22.3652C119.352 22.0165 119.962 21.8536 121.178 21.5277L122.627 21.1395C123.843 20.8136 124.451 20.6503 124.981 20.7467C125.527 20.846 126.022 21.1319 126.381 21.5546L126.382 21.5556C126.731 21.9666 126.894 22.575 127.22 23.7911C127.545 25.0073 127.709 25.6155 127.612 26.1457C127.513 26.6918 127.226 27.1863 126.803 27.5454C126.392 27.8939 125.784 28.0581 124.568 28.3839L124.18 26.935C124.81 26.7662 125.201 26.6599 125.489 26.5584C125.76 26.4633 125.824 26.4101 125.833 26.4027C125.991 26.268 126.099 26.0819 126.136 25.877C126.138 25.8658 126.152 25.7834 126.099 25.5017C126.043 25.201 125.94 24.8095 125.771 24.1794Z" fill="#2A343C" fill-opacity="0.5"/>
<path d="M123.751 37.8309C123.762 37.833 123.844 37.8468 124.126 37.794C124.427 37.7376 124.818 37.6343 125.448 37.4655L125.837 38.9144C124.62 39.2402 124.012 39.4035 123.482 39.3072L123.751 37.8309ZM126.897 37.0773L127.286 38.5262L125.837 38.9144L125.448 37.4655L126.897 37.0773ZM128.488 34.3216C128.319 33.6914 128.213 33.3007 128.112 33.0122C128.017 32.7418 127.963 32.6774 127.956 32.6687C127.821 32.5099 127.635 32.4025 127.43 32.3652C127.419 32.3631 127.337 32.3493 127.055 32.4021C126.754 32.4585 126.363 32.5618 125.733 32.7306L124.284 33.1188C123.654 33.2877 123.263 33.394 122.974 33.4955C122.704 33.5906 122.64 33.6438 122.631 33.6512C122.472 33.7859 122.365 33.972 122.327 34.1769C122.325 34.1881 122.311 34.2705 122.364 34.5522C122.421 34.8528 122.524 35.2444 122.693 35.8745C122.862 36.5047 122.968 36.8954 123.069 37.1839C123.164 37.4543 123.218 37.5187 123.225 37.5274C123.36 37.6862 123.546 37.7936 123.751 37.8309L123.48 39.3062C122.935 39.2065 122.44 38.9212 122.081 38.4982C121.732 38.0873 121.57 37.4789 121.244 36.2627C120.918 35.0466 120.755 34.4383 120.851 33.9082C120.951 33.3626 121.236 32.8664 121.659 32.5074C122.07 32.1587 122.679 31.9959 123.895 31.6699L125.344 31.2817C126.561 30.9559 127.169 30.7926 127.699 30.8889C128.245 30.9882 128.739 31.2741 129.098 31.6968L129.1 31.6979C129.449 32.1088 129.611 32.7172 129.937 33.9334C130.263 35.1495 130.426 35.7577 130.33 36.2879C130.231 36.834 129.944 37.3285 129.521 37.6876C129.11 38.0362 128.502 38.2003 127.286 38.5262L126.897 37.0773C127.527 36.9084 127.918 36.8021 128.207 36.7006C128.477 36.6055 128.541 36.5523 128.55 36.5449C128.709 36.4102 128.816 36.2241 128.854 36.0192C128.856 36.008 128.87 35.9256 128.817 35.6439C128.76 35.3433 128.657 34.9517 128.488 34.3216Z" fill="#2A343C" fill-opacity="0.5"/>
<path d="M132.624 24.5829C132.636 24.5849 132.718 24.5988 133 24.546C133.3 24.4896 133.692 24.3863 134.322 24.2174L134.71 25.6663C133.494 25.9922 132.886 26.1555 132.356 26.0591L132.624 24.5829ZM135.771 23.8292L136.159 25.2781L134.71 25.6663L134.322 24.2174L135.771 23.8292ZM137.362 21.0735C137.193 20.4434 137.087 20.0527 136.985 19.7641C136.89 19.4937 136.837 19.4293 136.829 19.4206C136.695 19.2619 136.509 19.1544 136.304 19.1171C136.293 19.1151 136.21 19.1012 135.928 19.154C135.628 19.2104 135.236 19.3137 134.606 19.4826L133.157 19.8708C132.527 20.0396 132.136 20.1459 131.848 20.2474C131.577 20.3426 131.513 20.3958 131.504 20.4031C131.346 20.5379 131.238 20.724 131.201 20.9288C131.199 20.9401 131.185 21.0224 131.238 21.3041C131.294 21.6048 131.397 21.9963 131.566 22.6265C131.735 23.2566 131.841 23.6473 131.943 23.9359C132.038 24.2063 132.091 24.2706 132.099 24.2794C132.233 24.4381 132.419 24.5456 132.624 24.5829L132.354 26.0581C131.808 25.9584 131.313 25.6732 130.954 25.2502C130.606 24.8392 130.443 24.2308 130.117 23.0147C129.791 21.7986 129.628 21.1903 129.725 20.6601C129.824 20.1146 130.109 19.6183 130.532 19.2594C130.943 18.9107 131.553 18.7478 132.769 18.4219L134.218 18.0337C135.434 17.7078 136.042 17.5445 136.572 17.6409C137.118 17.7402 137.613 18.0261 137.972 18.4488L137.974 18.4498C138.322 18.8608 138.485 19.4692 138.811 20.6853C139.137 21.9014 139.3 22.5097 139.203 23.0399C139.104 23.5859 138.817 24.0805 138.394 24.4396C137.983 24.7881 137.375 24.9522 136.159 25.2781L135.771 23.8292C136.401 23.6604 136.792 23.5541 137.08 23.4526C137.351 23.3574 137.415 23.3042 137.424 23.2968C137.582 23.1621 137.69 22.976 137.727 22.7712C137.729 22.7599 137.743 22.6776 137.69 22.3959C137.634 22.0952 137.531 21.7037 137.362 21.0735Z" fill="#2A343C" fill-opacity="0.5"/>
<path d="M135.342 34.7251C135.353 34.7271 135.435 34.741 135.717 34.6882C136.018 34.6318 136.409 34.5285 137.04 34.3597L137.428 35.8086C136.212 36.1344 135.603 36.2977 135.073 36.2014L135.342 34.7251ZM138.488 33.9714L138.877 35.4203L137.428 35.8086L137.04 34.3597L138.488 33.9714ZM140.079 31.2158C139.911 30.5856 139.804 30.1949 139.703 29.9063C139.608 29.6359 139.554 29.5716 139.547 29.5629C139.412 29.4041 139.226 29.2966 139.021 29.2594C139.01 29.2573 138.928 29.2434 138.646 29.2962C138.345 29.3526 137.954 29.4559 137.324 29.6248L135.875 30.013C135.245 30.1818 134.854 30.2882 134.565 30.3896C134.295 30.4848 134.231 30.538 134.222 30.5454C134.063 30.6801 133.956 30.8662 133.918 31.071C133.916 31.0823 133.902 31.1646 133.955 31.4463C134.012 31.747 134.115 32.1385 134.284 32.7687C134.453 33.3988 134.559 33.7895 134.66 34.0781C134.756 34.3485 134.809 34.4129 134.816 34.4216C134.951 34.5804 135.137 34.6878 135.342 34.7251L135.071 36.2003C134.526 36.1007 134.031 35.8154 133.672 35.3924C133.324 34.9814 133.161 34.373 132.835 33.1569C132.509 31.9408 132.346 31.3325 132.442 30.8024C132.542 30.2568 132.827 29.7605 133.25 29.4016C133.661 29.0529 134.27 28.89 135.487 28.5641L136.935 28.1759C138.152 27.85 138.76 27.6867 139.29 27.7831C139.836 27.8824 140.33 28.1683 140.689 28.591L140.691 28.592C141.04 29.003 141.202 29.6114 141.528 30.8275C141.854 32.0437 142.017 32.6519 141.921 33.1821C141.822 33.7281 141.535 34.2227 141.112 34.5818C140.701 34.9303 140.093 35.0945 138.877 35.4203L138.488 33.9714C139.119 33.8026 139.509 33.6963 139.798 33.5948C140.068 33.4997 140.133 33.4465 140.141 33.4391C140.3 33.3044 140.408 33.1183 140.445 32.9134C140.447 32.9022 140.461 32.8198 140.408 32.5381C140.352 32.2374 140.248 31.8459 140.079 31.2158Z" fill="#2A343C" fill-opacity="0.5"/>
</svg>
