<svg width="103" height="205" viewBox="0 0 103 205" fill="none" xmlns="http://www.w3.org/2000/svg">
<rect width="102.445" height="204.89" rx="24" fill="white"/>
<g opacity="0.5">
<g clip-path="url(#clip0_654_26893)">
<path d="M91.3905 180.235C91.3905 185.787 87.0411 189.897 81.4304 189.897C80.4228 189.897 79.4559 189.764 78.5471 189.514C78.3706 189.465 78.183 189.479 78.0152 189.552L76.0383 190.425C75.5212 190.654 74.9375 190.286 74.9204 189.721L74.8662 187.949C74.8595 187.731 74.7614 187.527 74.5985 187.381C72.6603 185.648 71.4702 183.139 71.4702 180.235C71.4702 174.684 75.8196 170.574 81.4304 170.574C87.0411 170.574 91.3905 174.684 91.3905 180.235Z" fill="#0866FF"/>
<path d="M84.1343 183.017L87.6021 177.657C87.9507 177.119 87.3049 176.492 86.7766 176.856L83.1566 179.353C83.0347 179.437 82.8738 179.439 82.7495 179.359L79.5363 177.28C79.2642 177.104 78.9013 177.182 78.7256 177.454L75.2574 182.813C74.9088 183.352 75.5547 183.979 76.0829 183.614L79.7037 181.117C79.8256 181.033 79.9865 181.031 80.1108 181.111L83.3232 183.19C83.5953 183.366 83.9582 183.288 84.1343 183.016V183.017Z" fill="white"/>
</g>
<g clip-path="url(#clip1_654_26893)">
<path d="M15.7446 48.1293L16.0716 48.2909C17.434 49.0989 18.9599 49.476 20.4859 49.476C25.2816 49.476 29.2053 45.5976 29.2053 40.8575C29.2053 38.5951 28.2789 36.3867 26.644 34.7707C25.0091 33.1547 22.8292 32.239 20.4859 32.239C15.6901 32.239 11.7664 36.1173 11.8209 40.9114C11.8209 42.5273 12.3113 44.0894 13.1288 45.4361L13.3468 45.7592L12.4748 48.9373L15.7446 48.1293Z" fill="#00E676"/>
<path d="M27.5705 33.9087C25.7176 32.0234 23.1562 31 20.5404 31C14.9817 31 10.513 35.4708 10.5675 40.9112C10.5675 42.6349 11.058 44.3048 11.8754 45.813L10.4585 50.9302L15.7447 49.5836C17.2161 50.3916 18.851 50.7686 20.4859 50.7686C25.9901 50.7686 30.4588 46.2978 30.4588 40.8574C30.4588 38.218 29.4233 35.7402 27.5705 33.9087ZM20.5404 49.0988C19.069 49.0988 17.5976 48.7217 16.3441 47.9676L16.0172 47.806L12.8564 48.614L13.6738 45.5437L13.4558 45.2205C11.058 41.396 12.2024 36.3327 16.1262 33.9626C20.0499 31.5925 25.1181 32.7237 27.516 36.602C29.9138 40.4803 28.7694 45.4898 24.8456 47.8599C23.5922 48.6679 22.0663 49.0988 20.5404 49.0988ZM25.3361 43.1197L24.7366 42.8504C24.7366 42.8504 23.8647 42.4733 23.3197 42.204C23.2652 42.204 23.2107 42.1502 23.1562 42.1502C22.9927 42.1502 22.8837 42.204 22.7748 42.2579C22.7748 42.2579 22.7203 42.3117 21.9573 43.1736C21.9028 43.2813 21.7938 43.3352 21.6848 43.3352H21.6303C21.5758 43.3352 21.4668 43.2813 21.4123 43.2275L21.1398 43.1197C20.5404 42.8504 19.9954 42.5272 19.5594 42.0963C19.4505 41.9886 19.287 41.8808 19.178 41.7731C18.7965 41.396 18.415 40.9651 18.1425 40.4803L18.088 40.3726C18.0335 40.3187 18.0335 40.2649 17.979 40.1571C17.979 40.0494 17.979 39.9417 18.0335 39.8878C18.0335 39.8878 18.2515 39.6185 18.415 39.4569C18.524 39.3491 18.5785 39.1876 18.6875 39.0798C18.7965 38.9182 18.851 38.7028 18.7965 38.5412C18.742 38.2718 18.088 36.8175 17.9245 36.4943C17.8156 36.3327 17.7066 36.2788 17.5431 36.225H17.3796C17.2706 36.225 17.1071 36.225 16.9436 36.225C16.8346 36.225 16.7256 36.2788 16.6166 36.2788L16.5621 36.3327C16.4531 36.3865 16.3441 36.4943 16.2351 36.5481C16.1262 36.6559 16.0717 36.7636 15.9627 36.8713C15.5812 37.3561 15.3632 37.9486 15.3632 38.5412C15.3632 38.9721 15.4722 39.403 15.6357 39.7801L15.6902 39.9417C16.1806 40.9651 16.8346 41.8808 17.7066 42.6888L17.9245 42.9043C18.088 43.0659 18.2515 43.1736 18.3605 43.3352C19.5049 44.3048 20.8129 45.005 22.2843 45.3821C22.4478 45.4359 22.6658 45.4359 22.8292 45.4898C22.9927 45.4898 23.2107 45.4898 23.3742 45.4898C23.6467 45.4898 23.9737 45.3821 24.1917 45.2743C24.3552 45.1666 24.4641 45.1666 24.5731 45.0589L24.6821 44.9512C24.7911 44.8434 24.9001 44.7896 25.0091 44.6818C25.1181 44.5741 25.2271 44.4664 25.2816 44.3586C25.3906 44.1432 25.4451 43.8738 25.4996 43.6045C25.4996 43.4968 25.4996 43.3352 25.4996 43.2275C25.4996 43.2275 25.4451 43.1736 25.3361 43.1197Z" fill="white"/>
</g>
<circle cx="76" cy="21.6016" r="10" fill="#24A0DD"/>
<path fill-rule="evenodd" clip-rule="evenodd" d="M69.4539 20.8609C72.906 19.3569 75.2079 18.3654 76.3597 17.8863C79.6482 16.5185 80.3315 16.2809 80.7769 16.273C80.8749 16.2713 81.0939 16.2956 81.2358 16.4107C81.3556 16.5079 81.3885 16.6392 81.4043 16.7314C81.4201 16.8236 81.4397 17.0335 81.4241 17.1976C81.2459 19.07 80.4748 23.6139 80.0825 25.7111C79.9165 26.5985 79.5897 26.896 79.2732 26.9251C78.5856 26.9884 78.0634 26.4707 77.3974 26.0341C76.3551 25.3509 75.7664 24.9256 74.7547 24.2589C73.5856 23.4885 74.3435 23.065 75.0098 22.373C75.1841 22.1919 78.214 19.436 78.2726 19.186C78.28 19.1547 78.2868 19.0382 78.2175 18.9766C78.1483 18.9151 78.0461 18.9361 77.9724 18.9529C77.8678 18.9766 76.2029 20.0771 72.9775 22.2543C72.5049 22.5788 72.0769 22.7369 71.6933 22.7286C71.2705 22.7195 70.4572 22.4896 69.8526 22.293C69.111 22.052 68.5216 21.9245 68.5729 21.5151C68.5997 21.3019 68.8933 21.0838 69.4539 20.8609Z" fill="white"/>
</g>
<defs>
<clipPath id="clip0_654_26893">
<rect width="20" height="20" fill="white" transform="translate(71.4302 170.534)"/>
</clipPath>
<clipPath id="clip1_654_26893">
<rect width="20" height="20" fill="white" transform="translate(10.4585 31)"/>
</clipPath>
</defs>
</svg>
