<svg width="128" height="130" viewBox="0 0 128 130" fill="none" xmlns="http://www.w3.org/2000/svg">
<rect width="127.494" height="130" rx="24" fill="white"/>
<g opacity="0.5">
<path d="M74.7091 9.25043C75.0331 9.33857 75.3268 9.44718 75.5681 9.57778C75.7997 9.70316 76.0325 9.87577 76.1706 10.1149C76.3085 10.354 76.3416 10.6419 76.3345 10.9052C76.327 11.1795 76.274 11.4881 76.1885 11.8128C76.017 12.4637 75.6983 13.2332 75.2579 14.022C74.3798 15.5946 72.9769 17.317 71.1747 18.3579C68.717 19.7767 66.041 20.2402 64.1686 19.6153L63.9919 19.557L63.8983 19.3976L61.9887 16.16L61.8938 15.9983L61.929 15.8144C62.3033 13.8644 64.0545 11.7546 66.5323 10.3225L66.8749 10.1358C68.6076 9.23978 70.6406 8.92892 72.3294 8.95243C73.233 8.96501 74.0595 9.07376 74.7091 9.25043ZM74.4489 10.2066C73.8965 10.0564 73.1558 9.95546 72.3163 9.94373C70.7365 9.92172 68.8785 10.2156 67.3329 11.0139L67.0278 11.1805C64.7793 12.4801 63.3174 14.2955 62.9436 15.8267L64.6509 18.7237C66.1645 19.1495 68.4494 18.7871 70.6793 17.4998C72.2804 16.575 73.5712 15.0098 74.3926 13.5387C74.8019 12.8056 75.0845 12.1137 75.2303 11.5601C75.3033 11.2828 75.3391 11.0533 75.3439 10.8782C75.3462 10.7913 75.3402 10.7251 75.3315 10.6775C75.3274 10.6545 75.3231 10.6376 75.3193 10.6262C75.3159 10.6164 75.3125 10.6103 75.3125 10.6103C75.3125 10.6103 75.3098 10.6053 75.3021 10.5965C75.2942 10.5874 75.2821 10.5746 75.264 10.5593C75.2272 10.5281 75.1726 10.4905 75.0962 10.4492C74.9422 10.3658 74.7256 10.2819 74.4489 10.2066Z" fill="#2A343C"/>
<path d="M74.9492 9.30391C75.2102 9.38889 75.4485 9.49025 75.6475 9.61025C75.8407 9.72676 76.0331 9.88265 76.1537 10.0915C76.2742 10.3003 76.3132 10.544 76.3177 10.7696C76.3223 11.0023 76.2914 11.2601 76.2345 11.5288C76.1205 12.0669 75.8927 12.7005 75.5727 13.3631L75.3812 13.7597L74.9649 13.616C74.1111 13.3221 73.3928 12.729 72.9428 11.9461C72.4895 11.1649 72.3336 10.2461 72.5049 9.35927L72.5887 8.92689L73.0278 8.95939C73.7626 9.0138 74.426 9.13362 74.9492 9.30391ZM74.6418 10.2454C74.3176 10.14 73.9061 10.0524 73.4308 9.99408C73.4193 10.4191 73.5047 10.8422 73.6849 11.2293L73.8002 11.4495L73.8006 11.4517C74.0561 11.8965 74.4308 12.2564 74.8769 12.4974C75.0639 12.0571 75.1939 11.6573 75.2645 11.324C75.3111 11.1036 75.3292 10.9246 75.3265 10.7896C75.3252 10.7229 75.319 10.6728 75.3112 10.6372C75.3074 10.6197 75.3038 10.6068 75.3006 10.5983C75.2981 10.5915 75.2957 10.5869 75.2957 10.5869C75.2957 10.5869 75.287 10.573 75.2599 10.5483C75.2331 10.5239 75.1927 10.4933 75.1356 10.4589C75.0201 10.3892 74.8559 10.3151 74.6418 10.2454Z" fill="#2A343C"/>
<path d="M70.7796 11.8255C71.1285 11.9355 71.437 12.1466 71.6661 12.4317C71.8951 12.7169 72.0343 13.0634 72.0665 13.4277C72.0987 13.7921 72.0225 14.1579 71.847 14.4789C71.6714 14.7998 71.4045 15.0618 71.0803 15.2312C70.7563 15.4005 70.3895 15.4695 70.0261 15.4306C69.6624 15.3915 69.3181 15.2458 69.0374 15.0114C68.7566 14.777 68.5507 14.4648 68.4473 14.1139C68.3439 13.763 68.3478 13.3887 68.4567 13.0395C68.5292 12.8073 68.6463 12.5915 68.8021 12.4047C68.9581 12.2178 69.1499 12.0634 69.3656 11.9506C69.5814 11.8378 69.8177 11.7685 70.0603 11.747C70.3029 11.7256 70.5474 11.7523 70.7796 11.8255ZM70.4814 12.7705C70.3735 12.7366 70.2601 12.7242 70.1475 12.7341C70.0348 12.7441 69.925 12.7756 69.8248 12.828C69.7245 12.8804 69.6353 12.9524 69.5628 13.0393C69.4903 13.1262 69.4361 13.2269 69.4024 13.335C69.3519 13.4972 69.35 13.6707 69.398 13.8337C69.446 13.9967 69.5415 14.1418 69.672 14.2507C69.8025 14.3597 69.9626 14.4279 70.1316 14.446C70.3004 14.4641 70.4709 14.4315 70.6214 14.3529C70.772 14.2742 70.8959 14.1525 70.9775 14.0035C71.0591 13.8543 71.0944 13.6841 71.0794 13.5148C71.0644 13.3456 71.0001 13.1847 70.8937 13.0523C70.7873 12.9198 70.6435 12.8216 70.4814 12.7705Z" fill="#2A343C"/>
<path d="M62.6381 16.161C62.8053 16.1659 62.961 16.255 63.0486 16.4012L64.1838 18.2963C64.2856 18.4667 64.2757 18.6811 64.1589 18.8417C63.8377 19.2831 63.4245 19.65 62.9482 19.9168C62.9413 19.9206 62.9341 19.9247 62.9271 19.9282C62.4413 20.1703 61.9033 20.2905 61.3607 20.2779C60.8181 20.2652 60.2867 20.1205 59.8126 19.8561C59.6537 19.7674 59.5563 19.5984 59.5588 19.4164C59.5661 18.8737 59.7059 18.3409 59.9656 17.8643C60.2253 17.388 60.5969 16.982 61.0489 16.6819L61.0707 16.6677C61.5283 16.3967 62.038 16.2252 62.5662 16.1638L62.6381 16.161ZM62.3725 17.2009C62.0976 17.2645 61.8332 17.3697 61.5886 17.5128C61.2746 17.7232 61.0163 18.0068 60.8353 18.3388C60.7021 18.5832 60.6133 18.8484 60.5733 19.1222C60.8308 19.2243 61.1051 19.2807 61.3837 19.2872C61.7621 19.296 62.1371 19.2125 62.4765 19.045C62.7298 18.9014 62.9577 18.7187 63.1541 18.5053L62.3725 17.2009Z" fill="#2A343C"/>
<path d="M65.8819 10.7869C66.1523 10.8274 66.3382 11.0797 66.298 11.3502C66.2576 11.6207 66.0059 11.8077 65.7354 11.7675C64.8783 11.64 64.0038 11.8237 63.2711 12.2863C63.2606 12.2929 63.2498 12.2999 63.2388 12.3057C62.7291 12.5764 62.2635 12.9195 61.8544 13.3223L63.1618 13.5614C63.431 13.6104 63.6095 13.868 63.5606 14.1372C63.5117 14.4063 63.254 14.5847 62.9849 14.5359L60.8134 14.1414C60.6438 14.1106 60.5025 13.9937 60.4402 13.833C60.3779 13.6723 60.4031 13.4903 60.5077 13.3532C61.1154 12.5562 61.889 11.9 62.7742 11.4299C63.7011 10.855 64.8023 10.6263 65.8819 10.7869Z" fill="#2A343C"/>
<path d="M70.2076 18.1202C70.462 18.2206 70.5865 18.5084 70.4862 18.7629C70.0814 19.7901 69.3216 20.6378 68.3444 21.1515C67.5023 21.6723 66.5589 22.0078 65.5765 22.134C65.4057 22.1559 65.236 22.0879 65.1279 21.9537C65.0199 21.8194 64.9894 21.6386 65.0475 21.4763L65.7906 19.3983L65.8339 19.3077C65.9535 19.1106 66.1993 19.0186 66.4247 19.0993C66.6822 19.1917 66.8161 19.475 66.7239 19.7325L66.2757 20.9829C66.8299 20.8299 67.3613 20.5996 67.8511 20.293L67.8831 20.2745C68.6501 19.8713 69.2469 19.2059 69.5646 18.3998C69.6649 18.1452 69.953 18.0199 70.2076 18.1202Z" fill="#2A343C"/>
</g>
</svg>
