<svg width="163" height="163" viewBox="0 0 163 163" fill="none" xmlns="http://www.w3.org/2000/svg">
<rect width="162.967" height="162.967" rx="24" fill="white"/>
<g opacity="0.8">
<rect x="67.4834" y="12.4014" width="28" height="28" rx="8" fill="#E4EBF1"/>
<path d="M80.2373 20.3379C80.5985 19.0892 82.3683 19.0892 82.7295 20.3379L83.6103 23.3887C83.734 23.8163 84.0685 24.1508 84.4961 24.2745L87.5468 25.1553C88.7956 25.5165 88.7956 27.2863 87.5468 27.6475L84.4961 28.5283C84.0685 28.652 83.734 28.9865 83.6103 29.4141L82.7295 32.4649L82.6914 32.5781C82.2729 33.6758 80.6939 33.6758 80.2754 32.5781L80.2373 32.4649L79.3565 29.4141C79.2482 29.0399 78.9782 28.7376 78.626 28.585L78.4707 28.5283L75.42 27.6475C74.1712 27.2863 74.1712 25.5165 75.42 25.1553L78.4707 24.2745C78.8449 24.1662 79.1472 23.8962 79.2998 23.544L79.3565 23.3887L80.2373 20.3379ZM81.4834 20.4014C81.4094 20.4014 81.3461 20.4237 81.3027 20.4542C81.2666 20.4796 81.225 20.5236 81.1982 20.6163L80.3174 23.6661C80.0984 24.4237 79.5057 25.0164 78.7481 25.2354L75.6983 26.1162C75.6056 26.143 75.5616 26.1846 75.5362 26.2207C75.5057 26.2641 75.4834 26.3274 75.4834 26.4014C75.4834 26.4754 75.5057 26.5387 75.5362 26.5821C75.5616 26.6182 75.6056 26.6598 75.6983 26.6866L78.7481 27.5674C79.5057 27.7864 80.0984 28.3791 80.3174 29.1367L81.1982 32.1865C81.225 32.2792 81.2666 32.3232 81.3027 32.3486C81.3461 32.3791 81.4094 32.4014 81.4834 32.4014C81.5574 32.4014 81.6207 32.3791 81.6641 32.3486C81.7002 32.3232 81.7418 32.2792 81.7686 32.1865L82.6494 29.1367C82.8684 28.3791 83.461 27.7864 84.2187 27.5674L87.2685 26.6866C87.3612 26.6598 87.4052 26.6182 87.4306 26.5821C87.4611 26.5387 87.4833 26.4754 87.4833 26.4014C87.4834 26.3274 87.4611 26.2641 87.4306 26.2207C87.4052 26.1846 87.3612 26.143 87.2685 26.1162L84.2187 25.2354C83.4611 25.0164 82.8684 24.4237 82.6494 23.6661L81.7686 20.6163C81.7418 20.5236 81.7002 20.4796 81.6641 20.4542C81.6207 20.4237 81.5574 20.4014 81.4834 20.4014Z" fill="#2A343C"/>
<rect x="33.4849" y="20.4014" width="28" height="28" rx="8" transform="rotate(-15 33.4849 20.4014)" fill="#E4EBF1"/>
<path d="M46.4864 26.3412C46.7238 23.376 50.5523 22.3501 52.2405 24.7994C52.78 25.582 53.6432 26.0803 54.5907 26.1563C57.556 26.3937 58.5818 30.2222 56.1325 31.9104C55.35 32.4499 54.8516 33.3131 54.7756 34.2606C54.5456 37.1333 50.9452 38.1863 49.1856 36.0223L49.0216 35.8024C48.5157 35.0686 47.7251 34.5851 46.8474 34.465L46.6713 34.4455C43.7987 34.2155 42.7456 30.6151 44.9096 28.8555L45.1295 28.6914C45.8633 28.1855 46.3468 27.395 46.4669 26.5173L46.4864 26.3412ZM51.4169 25.3669C50.2627 23.6924 47.6457 24.3936 47.4834 26.4209C47.3835 27.6683 46.7273 28.8048 45.697 29.515C44.0225 30.6692 44.7237 33.2862 46.751 33.4485C47.9984 33.5485 49.1349 34.2046 49.8451 35.2349C50.9993 36.9095 53.6164 36.2082 53.7786 34.181C53.8786 32.9335 54.5347 31.797 55.5651 31.0868C57.2396 29.9326 56.5384 27.3156 54.5111 27.1533C53.2637 27.0534 52.1272 26.3972 51.4169 25.3669Z" fill="#2A343C"/>
<rect x="102.73" y="12.8064" width="28" height="28" rx="8" transform="rotate(15 102.73 12.8064)" fill="#E4EBF1"/>
<path d="M119.09 30.9497C119.194 30.5602 119.136 30.1451 118.931 29.7981L115.371 23.7789C114.955 23.077 114.054 22.8354 113.343 23.2357L107.25 26.6683C106.899 26.8662 106.643 27.1972 106.538 27.5865L104.905 33.6811C104.691 34.4813 105.166 35.3038 105.966 35.5182L115.619 38.1049C116.42 38.3191 117.242 37.8443 117.457 37.0442L119.09 30.9497ZM118.423 37.303C118.065 38.6366 116.694 39.428 115.361 39.0708L105.707 36.4841C104.373 36.1268 103.582 34.7559 103.939 33.4223L105.572 27.3277C105.746 26.6786 106.174 26.1266 106.76 25.7968L112.853 22.3652C114.038 21.6977 115.539 22.1 116.232 23.2706L119.792 29.2888C120.135 29.8672 120.229 30.5593 120.056 31.2085L118.423 37.303Z" fill="#2A343C"/>
</g>
</svg>
