<svg width="203" height="203" viewBox="0 0 203 203" fill="none" xmlns="http://www.w3.org/2000/svg">
<rect width="202.837" height="202.837" rx="24" fill="white"/>
<path fill-rule="evenodd" clip-rule="evenodd" d="M28.6186 159.609C28.0254 154.674 31.5451 150.192 36.4801 149.599C41.4151 149.006 45.8967 152.526 46.49 157.461C47.0832 162.396 43.5635 166.877 38.6285 167.47C33.6934 168.064 29.2119 164.544 28.6186 159.609ZM36.6543 151.048C32.5195 151.545 29.5706 155.3 30.0676 159.435C30.5647 163.57 34.3195 166.519 38.4543 166.021C42.589 165.524 45.538 161.77 45.0409 157.635C44.5439 153.5 40.789 150.551 36.6543 151.048Z" fill="#2A343C" fill-opacity="0.5"/>
<path d="M36.551 154.379C36.5016 153.967 36.7949 153.594 37.2061 153.544C37.6174 153.495 37.9908 153.788 38.0403 154.2L38.4363 157.494C38.4838 157.889 38.6862 158.249 38.9991 158.494L41.6086 160.544C41.9343 160.8 41.991 161.271 41.7352 161.597C41.4793 161.923 41.0079 161.979 40.6821 161.723L37.584 159.29C37.2711 159.045 37.0687 158.685 37.0212 158.29L36.551 154.379Z" fill="#2A343C" fill-opacity="0.5"/>
<path d="M175.258 37.7168C175.658 37.8241 175.895 38.2349 175.789 38.6347L174.295 44.2154C174.062 45.0863 173.875 45.7882 173.673 46.3399C173.467 46.9015 173.222 47.3758 172.838 47.7656C172.391 48.2191 171.836 48.5519 171.225 48.7314C170.7 48.8857 170.166 48.8755 169.574 48.7913C168.992 48.7086 168.286 48.5425 167.408 48.3361C166.536 48.1308 165.833 47.9665 165.278 47.7823C164.713 47.5946 164.234 47.3653 163.834 46.9954C163.368 46.565 163.018 46.0238 162.818 45.4217C162.647 44.9043 162.636 44.3724 162.699 43.7804C162.76 43.1991 162.9 42.4906 163.074 41.6113L164.197 35.9136C164.278 35.5072 164.672 35.2417 165.079 35.3218C165.485 35.402 165.749 35.7964 165.669 36.2026L164.546 41.9021C164.367 42.8083 164.243 43.4398 164.19 43.9387C164.139 44.4266 164.166 44.7168 164.243 44.9488C164.363 45.3102 164.572 45.6357 164.851 45.894C165.031 46.0599 165.285 46.2037 165.75 46.3584C166.226 46.5165 166.853 46.6644 167.752 46.8759C168.656 47.0887 169.286 47.2368 169.786 47.3078C170.274 47.3772 170.567 47.3603 170.802 47.2912C171.169 47.1834 171.502 46.9846 171.771 46.7124C171.943 46.5376 172.094 46.2868 172.264 45.8233C172.438 45.3497 172.607 44.7253 172.847 43.828L174.339 38.2469C174.446 37.8472 174.858 37.6098 175.258 37.7168ZM173.203 33.5314C173.289 33.1666 173.335 32.9656 173.349 32.8223C173.349 32.8203 173.349 32.8182 173.349 32.8163L173.344 32.8153C173.277 32.7896 173.194 32.7647 173.082 32.7354L172.645 32.6296L169.729 31.9435C169.365 31.8578 169.164 31.8121 169.021 31.7981C169.019 31.7979 169.017 31.7969 169.015 31.7967C169.015 31.7985 169.015 31.8006 169.014 31.8024C168.963 31.9369 168.913 32.137 168.827 32.5018L168.655 33.2319L173.031 34.2615L173.203 33.5314ZM174.491 34.6064L176.74 35.1355C177.909 35.4107 178.635 36.5832 178.36 37.7529C178.265 38.1557 177.861 38.4056 177.458 38.3112C177.055 38.2164 176.805 37.8125 176.9 37.4094C176.985 37.0461 176.76 36.6811 176.396 36.5956L164.563 33.8114C164.199 33.7263 163.836 33.9524 163.75 34.3155C163.655 34.7185 163.252 34.9687 162.848 34.8738C162.445 34.779 162.195 34.3751 162.29 33.972C162.565 32.8024 163.737 32.0764 164.906 32.3513L167.195 32.8898L167.367 32.1583C167.443 31.8348 167.517 31.5186 167.612 31.268C167.716 30.9972 167.882 30.6993 168.209 30.4965C168.537 30.2938 168.878 30.2767 169.166 30.3048C169.433 30.3309 169.749 30.4073 170.072 30.4834L172.988 31.1695L173.461 31.2851C173.612 31.3248 173.754 31.3658 173.879 31.4136C174.15 31.517 174.447 31.6846 174.65 32.0119C174.853 32.3394 174.87 32.6803 174.842 32.9689C174.816 33.2359 174.739 33.5514 174.663 33.875L174.491 34.6064Z" fill="#2A343C" fill-opacity="0.5"/>
</svg>
