<svg width="173" height="116" viewBox="0 0 173 116" fill="none" xmlns="http://www.w3.org/2000/svg">
<rect width="172.918" height="115.279" rx="24" fill="white"/>
<path fill-rule="evenodd" clip-rule="evenodd" d="M90.5537 8.23023C90.7743 8.22976 91.0772 8.25798 91.3936 8.39625L91.5293 8.46168L91.6416 8.52711C92.1835 8.86714 92.4285 9.39735 92.5459 9.67652C92.687 10.0121 92.8184 10.446 92.9502 10.8757L93.8926 13.949C93.9649 14.1848 94.156 14.3894 94.4027 14.3894H96.209C96.6232 14.3894 96.959 14.7252 96.959 15.1394C96.959 15.5536 96.6232 15.8894 96.209 15.8894H76.709C76.2949 15.8894 75.9592 15.5534 75.959 15.1394C75.959 14.7252 76.2948 14.3894 76.709 14.3894H78.5499C78.7768 14.3894 78.9532 14.2017 79.0146 13.9832L79.8271 11.0925C79.9572 10.6301 80.083 10.1764 80.2178 9.82789C80.331 9.53521 80.5871 8.91862 81.2119 8.56226L81.3545 8.48902C81.6842 8.33748 82.0009 8.30989 82.2148 8.30836C82.4675 8.30658 82.7155 8.34174 82.9258 8.38062C83.3399 8.45724 83.8724 8.60063 84.4648 8.75855C84.9584 8.89012 85.5767 8.989 86.3223 8.98902C87.1734 8.98902 87.8797 8.86031 88.4336 8.69703C88.969 8.53919 89.4647 8.39095 89.8574 8.31031C90.0586 8.269 90.3012 8.23079 90.5537 8.23023ZM90.8193 9.78296C90.5477 9.63729 89.9839 9.80342 88.8574 10.1355L88.5938 10.2087C87.9612 10.3725 87.2015 10.489 86.3223 10.489C85.5523 10.489 84.8837 10.3996 84.3164 10.2673L84.0791 10.2078C82.8419 9.87797 82.2225 9.71283 81.9551 9.865C81.6878 10.0174 81.549 10.5117 81.2715 11.4988L80.9947 12.4835C80.7489 13.358 80.626 13.7953 80.8511 14.0923C81.0761 14.3894 81.5303 14.3894 82.4387 14.3894H90.4301C91.3585 14.3894 91.8228 14.3894 92.0476 14.0853C92.2725 13.7811 92.1364 13.3373 91.8642 12.4497L91.5166 11.3162C91.2331 10.3918 91.0908 9.92891 90.8193 9.78296Z" fill="#2A343C" fill-opacity="0.5"/>
<path fill-rule="evenodd" clip-rule="evenodd" d="M83.4942 17.3897C83.6343 17.3894 83.8635 17.3892 84.0704 17.417C84.3388 17.4531 84.7802 17.5585 85.1602 17.9385C85.2571 18.0355 85.336 18.1364 85.4004 18.2375C85.6442 18.6206 86.005 18.9717 86.459 18.9717C86.9131 18.9717 87.2743 18.6206 87.5183 18.2377C87.5828 18.1366 87.6618 18.0355 87.7588 17.9385C88.1387 17.5589 88.5793 17.4531 88.8477 17.417C89.0545 17.3892 89.2838 17.3894 89.4239 17.3897H92.4942C92.6343 17.3894 92.8635 17.3892 93.0704 17.417C93.3388 17.4531 93.7802 17.5586 94.1602 17.9385C94.5402 18.3185 94.6456 18.7599 94.6817 19.0284C94.7095 19.2352 94.7093 19.4644 94.709 19.6045V21.1749C94.7093 21.315 94.7095 21.5441 94.6817 21.751C94.6456 22.0195 94.5403 22.4608 94.1602 22.8409C93.7801 23.2209 93.3388 23.3263 93.0704 23.3624C92.8635 23.3902 92.6343 23.3899 92.4942 23.3897H89.4239C89.2838 23.3899 89.0545 23.3902 88.8477 23.3624C88.5793 23.3262 88.1387 23.2206 87.7588 22.8409C87.3788 22.4608 87.2725 22.0195 87.2364 21.751C87.2086 21.5442 87.2088 21.3149 87.209 21.1749C87.209 20.7865 86.8942 20.4717 86.5059 20.4717H86.4122C86.0238 20.4717 85.709 20.7865 85.709 21.1749C85.7093 21.3149 85.7095 21.5441 85.6817 21.751C85.6456 22.0195 85.5403 22.4608 85.1602 22.8409C84.7801 23.2209 84.3388 23.3263 84.0704 23.3624C83.8635 23.3902 83.6343 23.3899 83.4942 23.3897H80.4239C80.2838 23.3899 80.0546 23.3902 79.8477 23.3624C79.5792 23.3262 79.1379 23.2209 78.7579 22.8409C78.3779 22.4608 78.2725 22.0195 78.2364 21.751C78.2086 21.5442 78.2088 21.3149 78.209 21.1749V19.6045C78.2088 19.4644 78.2086 19.2352 78.2364 19.0284C78.2725 18.7599 78.3778 18.3186 78.7579 17.9385C79.1379 17.5585 79.5792 17.4531 79.8477 17.417C80.0546 17.3892 80.2838 17.3894 80.4239 17.3897H83.4942ZM80.459 18.8897C80.1055 18.8897 79.9292 18.8902 79.8194 19C79.7096 19.1099 79.709 19.2862 79.709 19.6397V21.1397C79.709 21.4932 79.7095 21.6705 79.8194 21.7803C79.9292 21.8898 80.106 21.8897 80.459 21.8897H83.459C83.8126 21.8897 83.9898 21.8902 84.0997 21.7803C84.2095 21.6705 84.209 21.4932 84.209 21.1397V19.6397C84.209 19.2866 84.2091 19.1099 84.0997 19C83.9898 18.8902 83.8126 18.8897 83.459 18.8897H80.459ZM89.459 18.8897C89.1056 18.8897 88.9292 18.8902 88.8194 19C88.7096 19.1099 88.709 19.2862 88.709 19.6397V21.1397C88.709 21.4932 88.7095 21.6705 88.8194 21.7803C88.9292 21.8898 89.106 21.8897 89.459 21.8897H92.459C92.8126 21.8897 92.9898 21.8901 93.0997 21.7803C93.2095 21.6705 93.209 21.4932 93.209 21.1397V19.6397C93.209 19.2866 93.2091 19.1099 93.0997 19C92.9898 18.8902 92.8126 18.8897 92.459 18.8897H89.459Z" fill="#2A343C" fill-opacity="0.5"/>
</svg>
