<svg width="203" height="122" viewBox="0 0 203 122" fill="none" xmlns="http://www.w3.org/2000/svg">
<rect width="202.746" height="121.647" rx="24" fill="white"/>
<g opacity="0.5">
<rect x="85.373" y="10.166" width="32" height="19.6923" rx="4.92308" fill="#5021FF"/>
<path d="M94.6274 23.0122L92.6782 17.3755H93.7876L95.1821 21.8481H95.2485L96.647 17.3755H97.7563L95.8032 23.0122H94.6274ZM99.5529 21.1489V20.3364H101.053C101.415 20.3364 101.696 20.244 101.897 20.0591C102.097 19.8716 102.197 19.6086 102.197 19.27V19.2622C102.197 18.9211 102.097 18.658 101.897 18.4731C101.696 18.2882 101.415 18.1958 101.053 18.1958H99.5529V17.3755H101.299C101.682 17.3755 102.016 17.4536 102.303 17.6099C102.589 17.7661 102.813 17.9862 102.975 18.27C103.136 18.5513 103.217 18.8807 103.217 19.2583V19.2661C103.217 19.6411 103.136 19.9705 102.975 20.2544C102.813 20.5356 102.589 20.7557 102.303 20.9146C102.016 21.0708 101.682 21.1489 101.299 21.1489H99.5529ZM99.049 23.0122V17.3755H100.057V23.0122H99.049ZM104.65 23.0122V17.3755H105.525L108.549 21.6138L107.853 21.2583H108.357V17.3755H109.326V23.0122H108.455L105.431 18.77L106.127 19.1255H105.623V23.0122H104.65Z" fill="white"/>
</g>
</svg>
