<svg width="111" height="219" viewBox="0 0 111 219" fill="none" xmlns="http://www.w3.org/2000/svg">
<rect width="111" height="218.669" rx="24" fill="white"/>
<path d="M57.6709 15.6282C57.5407 15.7584 57.3297 15.7584 57.1995 15.6282L55.3141 13.7428C55.1839 13.6126 55.1839 13.4016 55.3141 13.2714L57.1995 11.3853C57.3297 11.2553 57.5407 11.2553 57.6709 11.3853C57.801 11.5155 57.8009 11.7265 57.6709 11.8567L56.0211 13.5071L57.6709 15.1568C57.8011 15.287 57.8011 15.498 57.6709 15.6282Z" fill="#2A343C" fill-opacity="0.5"/>
<path d="M55.5229 13.1931C56.0262 13.1523 56.8411 13.1658 57.6805 13.3364C58.5142 13.5058 59.417 13.8392 60.0489 14.4711C61.2785 15.7008 61.2819 17.192 61.1114 17.824C61.0635 18.0017 60.8803 18.107 60.7026 18.059C60.5249 18.0111 60.4198 17.8285 60.4676 17.6508C60.5881 17.2039 60.6079 15.9728 59.5776 14.9425C59.0794 14.4443 58.3256 14.1481 57.5476 13.99C56.7754 13.8331 56.0234 13.8209 55.5763 13.8572C55.3929 13.8719 55.2324 13.7353 55.2176 13.5519C55.2028 13.3684 55.3395 13.208 55.5229 13.1931Z" fill="#2A343C" fill-opacity="0.5"/>
<path d="M49.329 22.3991C49.4591 22.2689 49.6701 22.2689 49.8003 22.3991L51.6857 24.2845C51.8159 24.4147 51.8159 24.6257 51.6857 24.7558L49.8003 26.6419C49.6702 26.7719 49.4591 26.7719 49.329 26.6419C49.1988 26.5118 49.1989 26.3007 49.329 26.1706L50.9787 24.5202L49.329 22.8704C49.1988 22.7402 49.1988 22.5292 49.329 22.3991Z" fill="#2A343C" fill-opacity="0.5"/>
<path d="M51.4769 24.8341C50.9737 24.8749 50.1588 24.8614 49.3194 24.6909C48.4856 24.5215 47.5829 24.1881 46.9509 23.5561C45.7213 22.3265 45.718 20.8353 45.8884 20.2033C45.9364 20.0255 46.1195 19.9203 46.2973 19.9682C46.4749 20.0162 46.5801 20.1988 46.5323 20.3764C46.4117 20.8233 46.392 22.0544 47.4223 23.0848C47.9204 23.5829 48.6743 23.8792 49.4522 24.0373C50.2245 24.1942 50.9765 24.2063 51.4236 24.1701C51.607 24.1553 51.7674 24.292 51.7823 24.4754C51.7971 24.6588 51.6604 24.8193 51.4769 24.8341Z" fill="#2A343C" fill-opacity="0.5"/>
<path d="M47.0953 14.6847C47.0953 14.021 47.2115 13.4946 47.4326 13.0929C47.6573 12.6847 47.981 12.4228 48.3557 12.2811C49.08 12.0071 49.9493 12.1955 50.6292 12.4614C50.8004 12.5286 50.885 12.7217 50.818 12.8931C50.7509 13.0645 50.5571 13.1489 50.3857 13.0819C49.7474 12.8322 49.0769 12.7211 48.5914 12.9048C48.3614 12.9918 48.163 13.1485 48.0165 13.4145C47.8663 13.6875 47.762 14.093 47.762 14.6847C47.762 15.8672 48.1532 16.4396 48.6057 16.6906C49.0811 16.954 49.7377 16.929 50.3857 16.6756C50.5571 16.6085 50.7509 16.6936 50.818 16.8651C50.8848 17.0364 50.8004 17.2296 50.6292 17.2967C49.8793 17.59 48.9967 17.6695 48.2822 17.2733C47.545 16.8644 47.0954 16.0129 47.0953 14.6847Z" fill="#2A343C" fill-opacity="0.5"/>
<path d="M49.6408 13.8733C49.8248 13.8734 49.9742 14.0226 49.9742 14.2066C49.9742 14.3906 49.8248 14.5398 49.6408 14.5399H46.4423C46.2582 14.5399 46.1089 14.3907 46.1089 14.2066C46.1089 14.0225 46.2582 13.8733 46.4423 13.8733H49.6408Z" fill="#2A343C" fill-opacity="0.5"/>
<path d="M49.6408 15.1586C49.8248 15.1587 49.9742 15.3079 49.9742 15.4919C49.9742 15.6759 49.8248 15.8251 49.6408 15.8253H46.4423C46.2582 15.8253 46.1089 15.676 46.1089 15.4919C46.1089 15.3078 46.2582 15.1586 46.4423 15.1586H49.6408Z" fill="#2A343C" fill-opacity="0.5"/>
<path d="M57.8871 21.9152C57.8871 21.9304 57.8887 21.9441 57.891 21.9562C57.8893 21.9427 57.8871 21.9291 57.8871 21.9152ZM58.5538 21.9152C58.5537 22.0992 58.4045 22.2485 58.2204 22.2485C58.0713 22.2485 57.9465 22.1499 57.904 22.0148C57.8703 21.9915 57.8092 21.9586 57.7159 21.9263C57.5168 21.8573 57.2375 21.8088 56.9561 21.811C56.6705 21.8133 56.4215 21.8681 56.2556 21.9686C56.1098 22.057 56.0206 22.1816 56.0206 22.3976C56.0206 22.6104 56.1078 22.747 56.279 22.8716C56.472 23.012 56.7404 23.1139 57.07 23.2368C57.3756 23.3508 57.7413 23.4852 58.0245 23.6971C58.3291 23.9252 58.5538 24.2538 58.5538 24.7303C58.5537 25.1843 58.3663 25.5347 58.0707 25.7752C57.787 26.006 57.4226 26.1215 57.0713 26.1665C56.717 26.2119 56.3476 26.1896 56.0277 26.119C55.7198 26.051 55.4072 25.9268 55.21 25.7297C55.08 25.5995 55.0799 25.3884 55.21 25.2583C55.3401 25.1283 55.5512 25.1283 55.6814 25.2583C55.7455 25.3225 55.9103 25.4103 56.1716 25.4679C56.4209 25.523 56.7128 25.5407 56.9867 25.5057C57.2638 25.4702 57.4952 25.3844 57.6501 25.2583C57.793 25.142 57.8871 24.98 57.8871 24.7303C57.8871 24.503 57.7952 24.3586 57.6247 24.231C57.4329 24.0874 57.1647 23.9834 56.837 23.8612C56.5334 23.7479 56.1684 23.6158 55.8864 23.4107C55.5827 23.1896 55.3539 22.8685 55.3539 22.3976C55.3539 21.9302 55.5809 21.5977 55.9099 21.3983C56.2188 21.2111 56.6033 21.1472 56.9509 21.1444C57.3029 21.1416 57.658 21.2011 57.934 21.2967C58.0702 21.3439 58.204 21.4058 58.3109 21.4855C58.404 21.5551 58.5538 21.6972 58.5538 21.9152Z" fill="#2A343C" fill-opacity="0.5"/>
<path d="M56.6405 21.3522V20.347C56.6405 20.1629 56.7898 20.0137 56.9739 20.0137C57.158 20.0137 57.3072 20.1629 57.3072 20.347V21.3522C57.3072 21.5363 57.158 21.6855 56.9739 21.6855C56.7898 21.6855 56.6405 21.5363 56.6405 21.3522Z" fill="#2A343C" fill-opacity="0.5"/>
<path d="M56.6405 26.8621V25.8569C56.6405 25.6728 56.7898 25.5236 56.9739 25.5236C57.158 25.5236 57.3072 25.6728 57.3072 25.8569V26.8621C57.3072 27.0462 57.158 27.1954 56.9739 27.1954C56.7898 27.1954 56.6405 27.0462 56.6405 26.8621Z" fill="#2A343C" fill-opacity="0.5"/>
</svg>
