<svg width="131" height="131" viewBox="0 0 131 131" fill="none" xmlns="http://www.w3.org/2000/svg">
<rect width="130.95" height="130.95" rx="24" fill="white"/>
<g opacity="0.5">
<rect x="55.9907" y="4" width="18.9695" height="18.9695" rx="9.48474" fill="#E4EBF1"/>
<g clip-path="url(#clip0_654_26910)">
<path d="M68.4395 14.0776L69.08 15.8084L70.8107 16.4488L69.08 17.0893L68.4395 18.82L67.7991 17.0893L66.0684 16.4488L67.7991 15.8084L68.4395 14.0776Z" fill="#5E33FF"/>
<path d="M67.8467 8.74243L68.3271 10.0405L69.6251 10.5208L68.3271 11.0011L67.8467 12.2992L67.3664 11.0011L66.0684 10.5208L67.3664 10.0405L67.8467 8.74243Z" fill="#5E33FF"/>
<path d="M63.1041 9.92798L64.0648 12.5241L66.6609 13.4848L64.0648 14.4454L63.1041 17.0415L62.1435 14.4454L59.5474 13.4848L62.1435 12.5241L63.1041 9.92798Z" fill="#5E33FF"/>
</g>
</g>
<defs>
<clipPath id="clip0_654_26910">
<rect width="11.8559" height="11.8559" fill="white" transform="translate(59.5474 7.55688)"/>
</clipPath>
</defs>
</svg>
