<svg width="192" height="128" viewBox="0 0 192 128" fill="none" xmlns="http://www.w3.org/2000/svg">
<rect width="191.883" height="127.922" rx="24" fill="white"/>
<g opacity="0.5">
<path d="M94.168 10.4455C95.0855 10.2712 95.793 11.1559 96.1089 12.0349C96.5097 13.1492 97.4642 14.0476 98.7266 14.3405C99.5569 14.5335 100.389 15.3077 100.479 16.1555C100.749 18.7361 102.652 20.9853 105.378 21.6179C105.588 21.6669 105.73 21.8692 105.682 22.0793C104.68 26.372 100.753 29.5764 96.0605 29.5764C90.6102 29.5762 86.1919 25.2531 86.1919 19.9216C86.1921 15.2235 89.6232 11.309 94.168 10.4455ZM94.3394 11.9411C90.5211 12.7181 87.6921 16.0171 87.6919 19.9216C87.6919 24.3936 91.4073 28.0762 96.0605 28.0764C99.686 28.0764 102.75 25.8348 103.919 22.7297C101.17 21.6524 99.2855 19.1559 98.9873 16.3122C98.9878 16.3166 98.9695 16.2126 98.8188 16.0617C98.6714 15.914 98.4985 15.8269 98.3867 15.801C96.6183 15.3905 95.2664 14.1264 94.6968 12.5417C94.65 12.4116 94.5899 12.2854 94.5225 12.1755C94.4541 12.064 94.3887 11.9872 94.3394 11.9411Z" fill="#2A343C"/>
<path d="M94.3241 15.6316C94.3241 16.2529 93.8204 16.7566 93.1991 16.7566C92.5777 16.7566 92.0741 16.2529 92.0741 15.6316C92.0741 15.0102 92.5777 14.5066 93.1991 14.5066C93.8204 14.5066 94.3241 15.0102 94.3241 15.6316Z" fill="#2A343C"/>
<path d="M92.0741 20.7564C92.0741 21.3778 91.5704 21.8814 90.9491 21.8814C90.3277 21.8814 89.8241 21.3778 89.8241 20.7564C89.8241 20.1351 90.3277 19.6314 90.9491 19.6314C91.5704 19.6314 92.0741 20.1351 92.0741 20.7564Z" fill="#2A343C"/>
<path d="M101.182 23.8585C101.182 24.4798 100.678 24.9835 100.057 24.9835C99.4357 24.9835 98.932 24.4798 98.932 23.8585C98.932 23.2372 99.4357 22.7335 100.057 22.7335C100.678 22.7335 101.182 23.2372 101.182 23.8585Z" fill="#2A343C"/>
<path d="M97.4006 19.9994C97.4006 20.6207 96.8969 21.1244 96.2756 21.1244C95.6543 21.1244 95.1506 20.6207 95.1506 19.9994C95.1506 19.3781 95.6543 18.8744 96.2756 18.8744C96.8969 18.8744 97.4006 19.3781 97.4006 19.9994Z" fill="#2A343C"/>
<path d="M95.4491 24.9835C95.4491 25.6048 94.9454 26.1085 94.3241 26.1085C93.7027 26.1085 93.1991 25.6048 93.1991 24.9835C93.1991 24.3622 93.7027 23.8585 94.3241 23.8585C94.9454 23.8585 95.4491 24.3622 95.4491 24.9835Z" fill="#2A343C"/>
</g>
</svg>
