<svg width="226" height="151" viewBox="0 0 226 151" fill="none" xmlns="http://www.w3.org/2000/svg">
<rect width="225.14" height="150.093" rx="24" fill="white"/>
<g opacity="0.5">
<path d="M91.5788 13.7631C91.7075 12.1701 93.8396 11.736 94.581 13.1518L96.3904 16.6109C96.6443 17.0956 97.1293 17.4166 97.6747 17.4607L101.566 17.7735C103.159 17.9023 103.593 20.0344 102.177 20.7757L98.7181 22.5852C98.2334 22.839 97.9125 23.3241 97.8683 23.8695L97.5555 27.7607L97.5374 27.9065C97.3025 29.3314 95.4003 29.7187 94.6269 28.4991L94.5533 28.372L92.7438 24.9129C92.5217 24.4886 92.1223 24.1907 91.6605 24.0932L91.4596 24.0631L87.5684 23.7503C85.9754 23.6215 85.5413 21.4894 86.9571 20.748L90.4162 18.9386C90.8404 18.7164 91.1383 18.317 91.2358 17.8552L91.2659 17.6543L91.5788 13.7631ZM93.0954 13.5339C93.0062 13.5521 92.9355 13.5944 92.8907 13.6417C92.8535 13.6813 92.8142 13.7444 92.8046 13.8627L92.4916 17.7527C92.4136 18.7192 91.845 19.5785 90.986 20.0281L87.5281 21.8373C87.423 21.8923 87.3802 21.9532 87.3584 22.003C87.3323 22.0627 87.321 22.1444 87.3392 22.2336C87.3574 22.3228 87.3997 22.3935 87.447 22.4383C87.4866 22.4756 87.5497 22.5149 87.6679 22.5244L91.558 22.8375C92.5244 22.9154 93.3838 23.484 93.8334 24.3431L95.6426 27.801C95.6976 27.9061 95.7585 27.9488 95.8083 27.9706C95.868 27.9967 95.9496 28.008 96.0388 27.9899C96.128 27.9717 96.1987 27.9294 96.2435 27.882C96.2808 27.8425 96.3201 27.7793 96.3296 27.6611L96.6427 23.7711C96.7206 22.8046 97.2893 21.9452 98.1483 21.4956L101.606 19.6864C101.711 19.6314 101.754 19.5705 101.776 19.5208C101.802 19.461 101.813 19.3794 101.795 19.2902C101.777 19.201 101.735 19.1303 101.687 19.0855C101.648 19.0482 101.585 19.0089 101.466 18.9994L97.5763 18.6863C96.6098 18.6084 95.7505 18.0398 95.3009 17.1807L93.4917 13.7228C93.4367 13.6177 93.3758 13.5749 93.326 13.5531C93.2663 13.527 93.1846 13.5157 93.0954 13.5339Z" fill="#2A343C"/>
</g>
<g opacity="0.5">
<path d="M121.886 27.9851C122.268 27.009 122.529 26.3478 122.79 25.8787C122.977 25.5409 123.135 25.3596 123.288 25.2527L123.44 25.1673C123.643 25.0786 123.903 25.0514 124.403 25.1736C124.664 25.2373 124.96 25.334 125.313 25.4622L126.563 25.9411L128.594 26.7367C129.57 27.1191 130.231 27.3801 130.7 27.6407C131.15 27.8907 131.323 28.0876 131.412 28.2906C131.5 28.4937 131.528 28.754 131.405 29.2542C131.278 29.7754 131.02 30.438 130.638 31.414L128.65 36.4891C128.267 37.4657 128.006 38.1275 127.745 38.5969C127.495 39.0474 127.298 39.2195 127.095 39.3083L126.93 39.3614C126.747 39.4009 126.507 39.3937 126.132 39.302C125.61 39.1747 124.948 38.9169 123.972 38.5345L121.941 37.7389L120.698 37.2409C120.352 37.0952 120.069 36.9653 119.835 36.8349C119.385 36.5849 119.212 36.3879 119.123 36.185L119.07 36.0194C119.031 35.8371 119.038 35.5971 119.129 35.2214C119.257 34.6998 119.515 34.0368 119.897 33.0602L121.886 27.9851ZM120.032 34.5997C119.868 35.1891 120.142 35.8155 120.686 36.0955L120.807 36.151L125.882 38.1393C126.548 38.3993 127.299 38.0718 127.56 37.406C127.821 36.7396 127.492 35.9889 126.827 35.7279L121.752 33.7396C121.086 33.4791 120.335 33.8068 120.074 34.4729L120.032 34.5997ZM118.501 32.513C118.134 33.4498 117.829 34.2223 117.672 34.8645C117.53 35.445 117.486 36.0025 117.66 36.5509L117.749 36.7855C118.022 37.4094 118.509 37.8144 119.105 38.1461C119.394 38.3067 119.733 38.4622 120.115 38.6237L121.394 39.1355L123.425 39.9311C124.361 40.2982 125.134 40.6027 125.776 40.7596C126.356 40.9013 126.913 40.9453 127.461 40.7716L127.696 40.6826C128.32 40.4097 128.725 39.9218 129.057 39.3248C129.378 38.7468 129.679 37.9731 130.046 37.0363L132.035 31.9612C132.402 31.0243 132.706 30.2518 132.863 29.6097C133.025 28.9464 133.059 28.3143 132.786 27.69C132.513 27.0658 132.026 26.6611 131.43 26.3295C130.852 26.0084 130.078 25.7072 129.141 25.3401L127.11 24.5444L125.824 24.0517C125.434 23.9101 125.08 23.7945 124.759 23.716C124.095 23.554 123.463 23.5203 122.839 23.793L122.614 23.9048C122.114 24.1889 121.769 24.6273 121.479 25.1494C121.157 25.7273 120.856 26.501 120.489 27.4379L118.501 32.513Z" fill="#2A343C"/>
<path d="M123.062 20.4616C123.744 20.498 124.359 20.6495 124.878 21.0908L125.06 21.2628C125.456 21.6791 125.661 22.1979 125.788 22.7813C125.913 23.3571 125.975 24.0781 126.045 24.9382C125.425 24.7008 124.923 24.5247 124.495 24.4281C124.444 23.876 124.397 23.4479 124.322 23.101C124.24 22.7239 124.141 22.5049 124.026 22.3584L123.905 22.2326C123.736 22.089 123.495 21.9875 122.981 21.96C122.446 21.9314 121.737 21.9867 120.692 22.0709L118.518 22.246C117.473 22.3302 116.764 22.3896 116.239 22.5036C115.736 22.613 115.514 22.7516 115.371 22.9203C115.227 23.0891 115.126 23.3302 115.098 23.844C115.07 24.3798 115.125 25.0887 115.209 26.1333L115.647 31.5669C115.731 32.6123 115.79 33.3219 115.904 33.8466C116.014 34.3498 116.152 34.5716 116.321 34.7151L116.465 34.8133C116.628 34.9036 116.859 34.967 117.245 34.9876C117.564 35.0047 117.946 34.9882 118.423 34.9572C118.263 35.5702 118.248 36.0334 118.426 36.4606C117.953 36.4896 117.532 36.5043 117.164 36.4846C116.568 36.4527 116.022 36.3352 115.548 36.0107L115.35 35.8571C114.831 35.4154 114.584 34.8309 114.439 34.1635C114.298 33.5174 114.232 32.6895 114.151 31.6867L113.714 26.2546C113.633 25.2516 113.565 24.4237 113.6 23.7636C113.636 23.0818 113.788 22.4666 114.229 21.9478C114.67 21.4294 115.253 21.183 115.92 21.0379C116.565 20.8974 117.394 20.8312 118.396 20.7504L120.571 20.5752L121.945 20.4759C122.36 20.4532 122.732 20.4439 123.062 20.4616ZM119.2 32.7871C119.043 33.1861 118.904 33.544 118.784 33.8674L117.82 33.9458C117.109 34.0025 116.482 33.4725 116.424 32.7596L116.422 32.6274C116.435 31.9706 116.945 31.4181 117.612 31.3638L119.827 31.1843L119.2 32.7871Z" fill="#2A343C"/>
</g>
</svg>
