<svg width="194" height="130" viewBox="0 0 194 130" fill="none" xmlns="http://www.w3.org/2000/svg">
<rect width="193.119" height="130" rx="24" fill="white"/>
<path d="M34.8608 103.806C35.2691 103.736 35.6566 104.011 35.7263 104.419L37.9361 117.367C38.0058 117.775 37.7313 118.163 37.323 118.232C36.9147 118.302 36.5272 118.028 36.4575 117.619L34.2477 104.671C34.178 104.263 34.4525 103.875 34.8608 103.806Z" fill="#2A343D" fill-opacity="0.5"/>
<path fill-rule="evenodd" clip-rule="evenodd" d="M21.3143 109.161C20.9083 106.782 23.3351 104.921 25.5272 105.931L32.1402 108.979C34.0142 109.843 34.4782 112.296 33.0477 113.783L27.8715 119.162C26.165 120.935 23.1665 120.012 22.7523 117.587L21.3143 109.161ZM24.8993 107.294C23.8033 106.789 22.5899 107.719 22.7929 108.909L24.2309 117.334C24.4381 118.547 25.9372 119.008 26.7905 118.122L31.9667 112.743C32.6818 112 32.4503 110.772 31.5135 110.34L24.8993 107.294Z" fill="#2A343D" fill-opacity="0.5"/>
<path d="M159.857 106.29C160.419 106.404 160.843 106.518 161.207 106.77C161.538 107 161.796 107.341 162.064 107.656C162.332 107.971 162.293 108.444 161.978 108.713C161.663 108.981 161.19 108.944 160.921 108.628C160.552 108.194 160.475 108.089 160.353 108.004C160.265 107.943 160.114 107.873 159.559 107.76C159.446 107.737 159.12 107.751 158.55 107.867C158.02 107.974 157.384 108.147 156.723 108.347C155.403 108.748 154.036 109.245 153.31 109.514C152.863 109.68 152.496 110.124 152.288 110.713C152.072 111.328 152.115 111.854 152.21 112.046C152.399 112.429 153.192 113.687 154.1 114.929C154.549 115.543 155.011 116.133 155.422 116.593C155.628 116.822 155.812 117.01 155.97 117.149C156.137 117.297 156.234 117.352 156.263 117.365C156.707 117.552 157.12 117.592 157.422 117.584C157.572 117.58 157.692 117.564 157.77 117.55C157.809 117.544 157.837 117.539 157.853 117.535L157.858 117.532C158.256 117.417 158.672 117.648 158.787 118.045C158.888 118.393 158.725 118.755 158.416 118.917L158.275 118.974L158.264 118.977C158.26 118.978 158.253 118.98 158.246 118.981C158.233 118.985 158.216 118.99 158.195 118.995C158.153 119.005 158.095 119.017 158.026 119.029C157.887 119.053 157.695 119.078 157.463 119.084C156.999 119.096 156.364 119.035 155.679 118.746C155.426 118.639 155.184 118.455 154.978 118.273C154.761 118.082 154.532 117.847 154.304 117.592C153.847 117.081 153.353 116.448 152.89 115.814C151.974 114.56 151.115 113.218 150.864 112.712C150.52 112.015 150.588 111.028 150.873 110.217C151.167 109.38 151.776 108.483 152.787 108.108C153.52 107.836 154.923 107.326 156.287 106.912C156.969 106.705 157.656 106.518 158.251 106.397C158.806 106.284 159.41 106.199 159.857 106.29Z" fill="#2A343D" fill-opacity="0.5"/>
<path fill-rule="evenodd" clip-rule="evenodd" d="M166.986 109.453C169.917 108.518 172.665 111.315 171.678 114.229L169.869 119.57C168.901 122.427 165.127 123.029 163.317 120.616L160.434 116.772C158.888 114.708 159.838 111.735 162.295 110.951L166.986 109.453ZM170.258 113.748C170.85 111.999 169.201 110.321 167.442 110.882L162.751 112.38C161.277 112.851 160.706 114.635 161.634 115.873L164.517 119.717C165.603 121.165 167.867 120.803 168.448 119.089L170.258 113.748Z" fill="#2A343D" fill-opacity="0.5"/>
<path d="M97.3469 7.31012C100.809 6.59542 102.541 6.23827 103.839 7.09182C105.137 7.94553 105.494 9.67692 106.208 13.1391L106.511 14.6043L106.76 15.8241C107.296 18.4926 107.476 19.96 106.73 21.0954L106.559 21.328C106.033 21.9732 105.231 22.3617 104.015 22.7068C103.944 22.2582 103.853 21.7665 103.745 21.2239C103.902 21.1774 104.049 21.1322 104.188 21.0837C105.001 20.7984 105.303 20.5358 105.477 20.2712C105.651 20.0065 105.773 19.6266 105.713 18.7666C105.649 17.8628 105.407 16.6802 105.042 14.9076L104.739 13.4424C104.373 11.6696 104.127 10.4881 103.827 9.63302C103.542 8.81951 103.279 8.519 103.015 8.34486C102.75 8.17079 102.37 8.04893 101.509 8.10918C100.606 8.17251 99.4227 8.41327 97.6501 8.77915L96.1658 9.08554C94.3931 9.45145 93.2117 9.69867 92.3567 9.99844C91.5429 10.2838 91.2426 10.5461 91.0685 10.8108C90.8944 11.0754 90.7724 11.4551 90.8326 12.3153C90.8517 12.5875 90.8879 12.8848 90.9378 13.216C90.3904 13.3422 89.9068 13.4671 89.4796 13.6007C89.2402 12.088 89.2376 11.0653 89.6693 10.2351L89.8155 9.98651C90.6691 8.68882 92.4001 8.3312 95.8626 7.61651L97.3469 7.31012Z" fill="#2A343D" fill-opacity="0.5"/>
<rect x="85.9589" y="14.9945" width="15.4142" height="15.019" rx="3" transform="rotate(-11.6629 85.9589 14.9945)" stroke="#2A343D" stroke-opacity="0.5" stroke-width="1.5"/>
<path d="M92.4721 24.4068L96.1299 18.5889" stroke="#2A343D" stroke-opacity="0.5" stroke-width="1.5" stroke-linecap="round"/>
<path d="M93.3546 18.0821L97.1604 17.2999L97.8887 20.8282" stroke="#2A343D" stroke-opacity="0.5" stroke-width="1.5" stroke-linecap="round" stroke-linejoin="round"/>
</svg>
