<svg width="164" height="218" viewBox="0 0 164 218" fill="none" xmlns="http://www.w3.org/2000/svg">
<rect width="163.133" height="217.511" rx="24" fill="white"/>
<g opacity="0.5">
<rect x="65.3926" y="171.663" width="32.3481" height="32.3481" rx="16.1741" fill="white"/>
<rect x="63.1462" y="169.417" width="36.8409" height="36.8409" rx="18.4205" stroke="white" stroke-opacity="0.5" stroke-width="4.4928"/>
<path d="M90.4078 186.256C90.9298 188.8 90.289 191.315 88.8631 193.256C86.8835 194.776 84.6805 194.448 83.9008 194.118C85.9605 193.205 87.0648 190.239 86.4156 187.075C85.7664 183.912 83.583 181.62 81.3303 181.592C81.917 180.982 83.8129 179.813 86.2311 180.431C88.3063 181.653 89.8858 183.712 90.4078 186.256Z" fill="#2A343C"/>
<path d="M78.0117 183.743C77.3005 185.048 77.0235 186.842 77.3625 188.71L77.4458 189.116C77.8701 190.967 78.8314 192.507 79.9988 193.426C81.566 194.775 83.5868 195.407 85.6363 194.987C86.8959 194.728 87.9911 194.103 88.8585 193.234C87.6235 194.913 85.7834 196.137 83.5845 196.589C83.4564 196.615 83.307 196.646 83.1789 196.672C78.5922 197.413 74.1909 194.395 73.2434 189.778C72.2696 185.033 75.3227 180.397 80.0621 179.424C80.0834 179.42 80.0834 179.42 80.1048 179.416C82.2823 178.969 84.4388 179.395 86.2309 180.43C85.0916 179.974 83.8384 179.83 82.5789 180.088C80.5294 180.509 78.904 181.912 78.0117 183.743Z" fill="#2A343C"/>
</g>
</svg>
