<svg width="123" height="164" viewBox="0 0 123 164" fill="none" xmlns="http://www.w3.org/2000/svg">
<rect width="122.335" height="163.113" rx="24" fill="white"/>
<path d="M57.6233 7.43213C57.1801 7.43211 56.7982 7.43209 56.4924 7.4732C56.1646 7.51727 55.8504 7.61664 55.5956 7.87147C55.3408 8.1263 55.2414 8.44048 55.1973 8.76824C55.1562 9.07406 55.1562 9.45596 55.1563 9.89919V16.9934C55.1562 17.4367 55.1562 17.8186 55.1973 18.1244C55.2414 18.4522 55.3408 18.7663 55.5956 19.0212C55.8504 19.276 56.1646 19.3754 56.4924 19.4194C56.7982 19.4606 57.1801 19.4605 57.6234 19.4605H64.7077C65.1498 19.4605 65.5307 19.4606 65.8359 19.4196C66.1629 19.3757 66.4764 19.2766 66.7311 19.0227C66.9857 18.7688 67.0857 18.4556 67.1306 18.1286C67.1724 17.8236 67.1735 17.4427 67.1747 17.0007L67.1777 15.9693C67.1785 15.6932 66.9553 15.4687 66.6792 15.4679C66.403 15.4671 66.1785 15.6903 66.1777 15.9664L66.1748 16.9648C66.1734 17.4491 66.1715 17.7621 66.1398 17.9927C66.1102 18.2088 66.0631 18.2766 66.025 18.3146C65.9869 18.3525 65.919 18.3994 65.7028 18.4285C65.4721 18.4595 65.1591 18.4605 64.6748 18.4605H57.6563C57.1707 18.4605 56.8569 18.4595 56.6256 18.4284C56.4087 18.3992 56.3408 18.3521 56.3027 18.3141C56.2646 18.276 56.2176 18.208 56.1884 17.9912C56.1573 17.7599 56.1563 17.4461 56.1563 16.9605V9.93213C56.1563 9.44659 56.1573 9.13274 56.1884 8.90148C56.2176 8.68461 56.2646 8.61664 56.3027 8.57858C56.3408 8.54052 56.4087 8.49344 56.6256 8.46429C56.8569 8.43319 57.1707 8.43213 57.6563 8.43213H59.817C60.0932 8.43213 60.317 8.20827 60.317 7.93213C60.317 7.65599 60.0932 7.43213 59.817 7.43213L57.6233 7.43213Z" fill="#2A343C" fill-opacity="0.5"/>
<path fill-rule="evenodd" clip-rule="evenodd" d="M63.5003 8.02164C64.0588 7.29702 65.1375 7.23313 65.7798 7.88665L67.222 9.35429C67.8533 9.9967 67.7744 11.0409 67.0537 11.5829L65.2725 12.9223C65.1775 12.9937 65.1113 13.0962 65.0857 13.2115L64.8568 14.242C64.5991 15.4025 63.1408 15.8134 62.3036 14.9615L61.4758 14.119L59.6096 15.9155C59.3982 16.119 59.0602 16.1143 58.8546 15.905C58.6489 15.6958 58.6536 15.3612 58.8649 15.1578L60.7311 13.3613L60.0256 12.6434C59.2185 11.8221 59.6085 10.4444 60.7292 10.1582L61.9606 9.84369C62.0697 9.81583 62.1662 9.75248 62.2345 9.66381L63.5003 8.02164ZM65.0593 8.58017C64.8452 8.36233 64.4857 8.38362 64.2995 8.62516L63.0338 10.2673C62.8288 10.5333 62.5394 10.7234 62.212 10.807L60.9806 11.1215C60.607 11.2169 60.477 11.6761 60.7461 11.9499L63.0241 14.268C63.3031 14.5519 63.7892 14.415 63.8751 14.0281L64.104 12.9976C64.1808 12.6518 64.3794 12.3443 64.6642 12.1301L66.4454 10.7907C66.6857 10.61 66.712 10.2619 66.5016 10.0478L65.0593 8.58017Z" fill="#2A343C" fill-opacity="0.5"/>
</svg>
