<svg width="295" height="62" viewBox="0 0 295 62" fill="none" xmlns="http://www.w3.org/2000/svg">
<path d="M289.295 10.7527C283.675 14.9251 270.812 20.6281 249.109 25.8883C227.37 31.1573 196.689 35.948 155.384 38.1325C72.7151 42.5043 24.6642 22.6496 8.06464 10.7449L11.631 10.7449C29.4435 22.4268 76.0401 40.3258 155.278 36.1354C196.486 33.9561 227.042 29.1783 248.638 23.944C267.373 19.403 279.336 14.5266 285.631 10.7528L289.295 10.7527Z" fill="#2A343C"/>
<rect x="18.7741" y="16.2693" width="2.90877" height="2.90877" transform="rotate(24.8435 18.7741 16.2693)" fill="#2A343C"/>
<g filter="url(#filter0_f_564_11346)">
<circle cx="16.7915" cy="23.7768" r="5.15569" transform="rotate(8.87819 16.7915 23.7768)" fill="#E24C5E"/>
</g>
<circle cx="16.7915" cy="23.7768" r="5.15569" transform="rotate(8.87819 16.7915 23.7768)" fill="#E24C5E"/>
<rect width="2.90877" height="2.90877" transform="matrix(-0.907459 0.420141 0.420141 0.907459 275.401 16.1475)" fill="#2A343C"/>
<g filter="url(#filter1_f_564_11346)">
<circle cx="5.15569" cy="5.15569" r="5.15569" transform="matrix(-0.988019 0.154334 0.154334 0.988019 281.682 17.7656)" fill="#EEC574"/>
</g>
<circle cx="5.15569" cy="5.15569" r="5.15569" transform="matrix(-0.988019 0.154334 0.154334 0.988019 281.682 17.7656)" fill="#EEC574"/>
<rect width="2.90877" height="2.90877" transform="matrix(0.999754 0.022189 0.022189 -0.999754 146.357 37.8879)" fill="#2A343C"/>
<g filter="url(#filter2_f_564_11346)">
<circle cx="5.15569" cy="5.15569" r="5.15569" transform="matrix(0.955089 0.29632 0.29632 -0.955089 141.43 33.6707)" fill="#EEC574"/>
</g>
<circle cx="5.15569" cy="5.15569" r="5.15569" transform="matrix(0.955089 0.29632 0.29632 -0.955089 141.43 33.6707)" fill="#EEC574"/>
<rect x="62.7021" y="30.8054" width="2.90877" height="2.90877" transform="rotate(4.79488 62.7021 30.8054)" fill="#2A343C"/>
<g filter="url(#filter3_f_564_11346)">
<circle cx="63.4134" cy="38.538" r="5.15569" transform="rotate(-11.1704 63.4134 38.538)" fill="#58C095"/>
</g>
<circle cx="63.4134" cy="38.538" r="5.15569" transform="rotate(-11.1704 63.4134 38.538)" fill="#58C095"/>
<rect x="252.061" y="23.8804" width="2.90877" height="2.90877" transform="rotate(165.965 252.061 23.8804)" fill="#2A343C"/>
<g filter="url(#filter4_f_564_11346)">
<circle cx="248.892" cy="16.7916" r="5.15569" transform="rotate(150 248.892 16.7916)" fill="#58C095"/>
</g>
<circle cx="248.892" cy="16.7916" r="5.15569" transform="rotate(150 248.892 16.7916)" fill="#58C095"/>
<rect width="2.90877" height="2.90877" transform="matrix(-0.9965 0.0835887 0.0835887 0.9965 233.695 28.3911)" fill="#2A343C"/>
<g filter="url(#filter5_f_564_11346)">
<circle cx="5.15569" cy="5.15569" r="5.15569" transform="matrix(-0.981055 -0.193728 -0.193728 0.981055 239.04 32.0642)" fill="#AA78DF"/>
</g>
<circle cx="5.15569" cy="5.15569" r="5.15569" transform="matrix(-0.981055 -0.193728 -0.193728 0.981055 239.04 32.0642)" fill="#AA78DF"/>
<rect width="2.90877" height="2.90877" transform="matrix(0.997788 0.0664712 0.0664712 -0.997788 93.2023 35.8047)" fill="#2A343C"/>
<g filter="url(#filter6_f_564_11346)">
<circle cx="5.15569" cy="5.15569" r="5.15569" transform="matrix(0.941019 0.338354 0.338354 -0.941019 88.4667 31.3728)" fill="#AA78DF"/>
</g>
<circle cx="5.15569" cy="5.15569" r="5.15569" transform="matrix(0.941019 0.338354 0.338354 -0.941019 88.4667 31.3728)" fill="#AA78DF"/>
<rect x="119.178" y="37.4902" width="2.90877" height="2.90877" transform="rotate(1.75124 119.178 37.4902)" fill="#2A343C"/>
<g filter="url(#filter7_f_564_11346)">
<circle cx="120.299" cy="45.174" r="5.15569" transform="rotate(-14.2141 120.299 45.174)" fill="#7BC6D7"/>
</g>
<circle cx="120.299" cy="45.174" r="5.15569" transform="rotate(-14.2141 120.299 45.174)" fill="#7BC6D7"/>
<rect width="2.90877" height="2.90877" transform="matrix(-0.9965 0.0835887 0.0835887 0.9965 179.488 35.7075)" fill="#2A343C"/>
<g filter="url(#filter8_f_564_11346)">
<circle cx="5.15569" cy="5.15569" r="5.15569" transform="matrix(-0.981055 -0.193728 -0.193728 0.981055 184.833 39.3806)" fill="#2E78F6"/>
</g>
<circle cx="5.15569" cy="5.15569" r="5.15569" transform="matrix(-0.981055 -0.193728 -0.193728 0.981055 184.833 39.3806)" fill="#2E78F6"/>
<rect width="2.90877" height="2.90877" transform="matrix(0.970149 0.24251 0.24251 -0.970149 43.7897 25.8811)" fill="#2A343C"/>
<g filter="url(#filter9_f_564_11346)">
<circle cx="5.15569" cy="5.15569" r="5.15569" transform="matrix(0.866025 0.5 0.5 -0.866025 39.9158 20.6792)" fill="#2E78F6"/>
</g>
<circle cx="5.15569" cy="5.15569" r="5.15569" transform="matrix(0.866025 0.5 0.5 -0.866025 39.9158 20.6792)" fill="#2E78F6"/>
<rect x="210.023" y="31.8977" width="2.90877" height="2.90877" transform="rotate(165.965 210.023 31.8977)" fill="#2A343C"/>
<g filter="url(#filter10_f_564_11346)">
<circle cx="206.854" cy="24.8087" r="5.15569" transform="rotate(150 206.854 24.8087)" fill="#E24C5E"/>
</g>
<circle cx="206.854" cy="24.8087" r="5.15569" transform="rotate(150 206.854 24.8087)" fill="#E24C5E"/>
<defs>
<filter id="filter0_f_564_11346" x="-2.28882e-05" y="6.98527" width="33.5831" height="33.5832" filterUnits="userSpaceOnUse" color-interpolation-filters="sRGB">
<feFlood flood-opacity="0" result="BackgroundImageFix"/>
<feBlend mode="normal" in="SourceGraphic" in2="BackgroundImageFix" result="shape"/>
<feGaussianBlur stdDeviation="5.81755" result="effect1_foregroundBlur_564_11346"/>
</filter>
<filter id="filter1_f_564_11346" x="260.592" y="6.86369" width="33.5831" height="33.5832" filterUnits="userSpaceOnUse" color-interpolation-filters="sRGB">
<feFlood flood-opacity="0" result="BackgroundImageFix"/>
<feBlend mode="normal" in="SourceGraphic" in2="BackgroundImageFix" result="shape"/>
<feGaussianBlur stdDeviation="5.81755" result="effect1_foregroundBlur_564_11346"/>
</filter>
<filter id="filter2_f_564_11346" x="131.09" y="13.4821" width="33.5843" height="33.5844" filterUnits="userSpaceOnUse" color-interpolation-filters="sRGB">
<feFlood flood-opacity="0" result="BackgroundImageFix"/>
<feBlend mode="normal" in="SourceGraphic" in2="BackgroundImageFix" result="shape"/>
<feGaussianBlur stdDeviation="5.81755" result="effect1_foregroundBlur_564_11346"/>
</filter>
<filter id="filter3_f_564_11346" x="46.6217" y="21.7463" width="33.5835" height="33.5834" filterUnits="userSpaceOnUse" color-interpolation-filters="sRGB">
<feFlood flood-opacity="0" result="BackgroundImageFix"/>
<feBlend mode="normal" in="SourceGraphic" in2="BackgroundImageFix" result="shape"/>
<feGaussianBlur stdDeviation="5.81755" result="effect1_foregroundBlur_564_11346"/>
</filter>
<filter id="filter4_f_564_11346" x="232.1" y="-8.39233e-05" width="33.5833" height="33.5834" filterUnits="userSpaceOnUse" color-interpolation-filters="sRGB">
<feFlood flood-opacity="0" result="BackgroundImageFix"/>
<feBlend mode="normal" in="SourceGraphic" in2="BackgroundImageFix" result="shape"/>
<feGaussianBlur stdDeviation="5.81755" result="effect1_foregroundBlur_564_11346"/>
</filter>
<filter id="filter5_f_564_11346" x="216.192" y="19.3317" width="33.5835" height="33.5834" filterUnits="userSpaceOnUse" color-interpolation-filters="sRGB">
<feFlood flood-opacity="0" result="BackgroundImageFix"/>
<feBlend mode="normal" in="SourceGraphic" in2="BackgroundImageFix" result="shape"/>
<feGaussianBlur stdDeviation="5.81755" result="effect1_foregroundBlur_564_11346"/>
</filter>
<filter id="filter6_f_564_11346" x="78.2705" y="11.4735" width="33.5843" height="33.5844" filterUnits="userSpaceOnUse" color-interpolation-filters="sRGB">
<feFlood flood-opacity="0" result="BackgroundImageFix"/>
<feBlend mode="normal" in="SourceGraphic" in2="BackgroundImageFix" result="shape"/>
<feGaussianBlur stdDeviation="5.81755" result="effect1_foregroundBlur_564_11346"/>
</filter>
<filter id="filter7_f_564_11346" x="103.507" y="28.382" width="33.584" height="33.5842" filterUnits="userSpaceOnUse" color-interpolation-filters="sRGB">
<feFlood flood-opacity="0" result="BackgroundImageFix"/>
<feBlend mode="normal" in="SourceGraphic" in2="BackgroundImageFix" result="shape"/>
<feGaussianBlur stdDeviation="5.81755" result="effect1_foregroundBlur_564_11346"/>
</filter>
<filter id="filter8_f_564_11346" x="161.984" y="26.6481" width="33.5835" height="33.5834" filterUnits="userSpaceOnUse" color-interpolation-filters="sRGB">
<feFlood flood-opacity="0" result="BackgroundImageFix"/>
<feBlend mode="normal" in="SourceGraphic" in2="BackgroundImageFix" result="shape"/>
<feGaussianBlur stdDeviation="5.81755" result="effect1_foregroundBlur_564_11346"/>
</filter>
<filter id="filter9_f_564_11346" x="30.167" y="2.0004" width="33.5833" height="33.5834" filterUnits="userSpaceOnUse" color-interpolation-filters="sRGB">
<feFlood flood-opacity="0" result="BackgroundImageFix"/>
<feBlend mode="normal" in="SourceGraphic" in2="BackgroundImageFix" result="shape"/>
<feGaussianBlur stdDeviation="5.81755" result="effect1_foregroundBlur_564_11346"/>
</filter>
<filter id="filter10_f_564_11346" x="190.063" y="8.01701" width="33.5833" height="33.5834" filterUnits="userSpaceOnUse" color-interpolation-filters="sRGB">
<feFlood flood-opacity="0" result="BackgroundImageFix"/>
<feBlend mode="normal" in="SourceGraphic" in2="BackgroundImageFix" result="shape"/>
<feGaussianBlur stdDeviation="5.81755" result="effect1_foregroundBlur_564_11346"/>
</filter>
</defs>
</svg>
