<svg width="108" height="215" viewBox="0 0 108 215" fill="none" xmlns="http://www.w3.org/2000/svg">
<g clip-path="url(#clip0_636_26537)">
<rect width="107.335" height="214.67" rx="24" fill="#E24C5E"/>
<path d="M47.8401 130.585V172.947H40.1693V141.805H32.0977V137.168L33.4143 136.768C35.666 136.119 37.4978 135.375 38.9099 134.535C40.3219 133.696 41.6576 132.551 42.917 131.1L43.4322 130.585H47.8401ZM71.5992 130.585V172.947H63.9283V141.805H55.8567V137.168L57.1733 136.768C59.425 136.119 61.2568 135.375 62.6689 134.535C64.0809 133.696 65.4167 132.551 66.6761 131.1L67.1913 130.585H71.5992Z" fill="white"/>
<path d="M29.2188 26.7336C30.7032 23.4836 31.4455 21.8586 32.8595 20.9499C34.2735 20.0413 36.0599 20.0413 39.6329 20.0413H69.6471C73.4588 20.0413 75.3646 20.0413 76.8303 21.0496C78.2959 22.058 78.9772 23.8379 80.3397 27.3977L89.5206 51.3842C89.8978 52.3696 90.0864 52.8623 90.1818 53.3782C90.2771 53.8941 90.2771 54.4216 90.2771 55.4768V181.465C90.2771 186.862 90.2771 189.56 88.6004 191.237C86.9238 192.914 84.2252 192.914 78.828 192.914H28.5057C23.1086 192.914 20.41 192.914 18.7333 191.237C17.0566 189.56 17.0566 186.862 17.0566 181.465V55.8515C17.0566 54.6109 17.0566 53.9905 17.1875 53.389C17.3184 52.7876 17.5761 52.2233 18.0916 51.0948L29.2188 26.7336Z" stroke="white" stroke-width="2.86227"/>
<path d="M31.3009 31.7158C32.7572 28.3875 33.4854 26.7233 34.9129 25.7898C36.3404 24.8562 38.1569 24.8562 41.7898 24.8562H67.2671C71.1334 24.8562 73.0666 24.8562 74.5432 25.8876C76.0199 26.919 76.6854 28.7339 78.0164 32.3639L86.1086 54.434C86.4576 55.3858 86.6321 55.8617 86.7202 56.3582C86.8084 56.8547 86.8084 57.3616 86.8084 58.3753V176.769C86.8084 182.167 86.8084 184.865 85.1317 186.542C83.455 188.219 80.7565 188.219 75.3593 188.219H31.9745C26.5773 188.219 23.8787 188.219 22.2021 186.542C20.5254 184.865 20.5254 182.167 20.5254 176.769V58.7377C20.5254 57.5444 20.5254 56.9477 20.6467 56.3679C20.768 55.7881 21.0072 55.2415 21.4855 54.1482L31.3009 31.7158Z" stroke="white" stroke-width="0.715566"/>
<circle cx="53.6656" cy="34.5728" r="5.12846" stroke="white" stroke-width="2.86227"/>
<g filter="url(#filter0_d_636_26537)">
<mask id="mask0_636_26537" style="mask-type:alpha" maskUnits="userSpaceOnUse" x="-1" y="0" width="109" height="215">
<rect x="-0.00390625" y="0.000244141" width="107.335" height="214.67" fill="#D9D9D9"/>
</mask>
<g mask="url(#mask0_636_26537)">
<path d="M51.1507 -3.58475C51.1507 -1.52782 51.2125 0.501986 50.8792 2.5392C50.5574 4.5057 50.151 6.45546 49.8233 8.4218C49.378 11.0939 48.6396 13.6993 48.1943 16.3709C47.6674 19.5322 47.3496 22.7447 47.3496 25.949C47.3496 27.9701 47.6377 29.6961 48.9032 31.3338C49.6136 32.2531 50.1764 32.6487 51.2261 33.0986C52.118 33.4808 55.3874 33.9292 56.3281 30.3009M57.5009 20.187C58.1065 17.2452 58.374 14.2514 58.7227 11.2726C59.0456 8.5136 59.4946 5.78284 59.6729 3.00679C60.0111 -2.25911 59.9746 -7.54192 59.9746 -12.8159" stroke="white" stroke-width="2.1467" stroke-linecap="round"/>
</g>
</g>
</g>
<defs>
<filter id="filter0_d_636_26537" x="23.3782" y="-22.8979" width="60.569" height="80.2196" filterUnits="userSpaceOnUse" color-interpolation-filters="sRGB">
<feFlood flood-opacity="0" result="BackgroundImageFix"/>
<feColorMatrix in="SourceAlpha" type="matrix" values="0 0 0 0 0 0 0 0 0 0 0 0 0 0 0 0 0 0 127 0" result="hardAlpha"/>
<feOffset/>
<feGaussianBlur stdDeviation="11.4491"/>
<feComposite in2="hardAlpha" operator="out"/>
<feColorMatrix type="matrix" values="0 0 0 0 0 0 0 0 0 0 0 0 0 0 0 0 0 0 0.25 0"/>
<feBlend mode="normal" in2="BackgroundImageFix" result="effect1_dropShadow_636_26537"/>
<feBlend mode="normal" in="SourceGraphic" in2="effect1_dropShadow_636_26537" result="shape"/>
</filter>
<clipPath id="clip0_636_26537">
<rect width="107.335" height="214.67" rx="24" fill="white"/>
</clipPath>
</defs>
</svg>
