<svg width="176" height="176" viewBox="0 0 176 176" fill="none" xmlns="http://www.w3.org/2000/svg">
<g clip-path="url(#clip0_636_26659)">
<rect width="175.703" height="175.703" rx="24" fill="#E24C5E"/>
<path d="M97.835 35.2282C86.0275 30.312 73.2084 20.2101 68.4456 12.0679C64.7496 23.1846 60.4786 34.5947 52.5798 44.0948C44.6811 53.5949 23.1983 63.2563 14.4043 66.0335C19.1986 70.5164 31.564 88.704 35.4816 102.119C42.3464 125.625 33.0847 136.778 29.5798 143.49C33.6216 140.288 60.9098 140.537 71.4797 144.676C78.9812 147.614 95.8488 157.316 103.054 167.953C105.992 150.659 112.644 143.621 125.563 132.205C136.733 122.335 159.214 113.271 161.558 114.469C158.549 112.95 142.849 96.6263 140.634 76.0945C138.419 55.5627 145.403 42.7776 146.552 37.8832C141.561 39.313 109.643 40.1444 97.835 35.2282Z" fill="white"/>
<path d="M64.5569 53.0072V122.351H52V71.374H38.7872V63.7837L40.9425 63.1277C44.6283 62.0657 47.627 60.8475 49.9385 59.4731C52.2499 58.0987 54.4365 56.2246 56.498 53.8506L57.3414 53.0072H64.5569ZM111.79 122.351V107.545L78.1483 107.452V96.3004L108.791 53.0072H124.44V96.769H135.685V107.545H124.44V122.351H111.79ZM90.7052 96.769H111.79V66.9698L90.7052 96.769Z" fill="#E24C5E"/>
<path d="M55.6295 155.06L56.4867 160.059L61.4862 160.916L56.4867 161.774L55.6295 166.773L54.7722 161.774L49.7727 160.916L54.7722 160.059L55.6295 155.06Z" fill="white"/>
<path d="M132.948 13.7195L133.463 16.7192L136.462 17.2335L133.463 17.7479L132.948 20.7476L132.434 17.7479L129.434 17.2335L132.434 16.7192L132.948 13.7195Z" fill="white"/>
<path d="M32.1408 27.2869L32.6551 30.2866L35.6548 30.8009L32.6551 31.3153L32.1408 34.315L31.6264 31.3153L28.6267 30.8009L31.6264 30.2866L32.1408 27.2869Z" fill="white"/>
<path d="M48.5999 9.08276L48.9428 11.0826L50.9426 11.4255L48.9428 11.7684L48.5999 13.7682L48.257 11.7684L46.2572 11.4255L48.257 11.0826L48.5999 9.08276Z" fill="white"/>
<path d="M18.3722 45.3193L18.7152 47.3191L20.715 47.662L18.7152 48.0049L18.3722 50.0047L18.0293 48.0049L16.0295 47.662L18.0293 47.3191L18.3722 45.3193Z" fill="white" fill-opacity="0.4"/>
<path d="M98.9199 16.0625L99.2628 18.0623L101.263 18.4052L99.2628 18.7481L98.9199 20.7479L98.5769 18.7481L96.5771 18.4052L98.5769 18.0623L98.9199 16.0625Z" fill="white" fill-opacity="0.4"/>
<path d="M157.332 46.2883L157.675 48.2881L159.675 48.631L157.675 48.9739L157.332 50.9737L156.989 48.9739L154.989 48.631L156.989 48.2881L157.332 46.2883Z" fill="white" fill-opacity="0.4"/>
<path d="M130.607 160.916L130.95 162.916L132.95 163.258L130.95 163.601L130.607 165.601L130.264 163.601L128.265 163.258L130.264 162.916L130.607 160.916Z" fill="white"/>
<path d="M18.3722 150.374L18.7152 152.373L20.715 152.716L18.7152 153.059L18.3722 155.059L18.0293 153.059L16.0295 152.716L18.0293 152.373L18.3722 150.374Z" fill="white"/>
<path d="M12.228 87.2561L12.5709 89.2559L14.5707 89.5988L12.5709 89.9417L12.228 91.9415L11.8851 89.9417L9.88525 89.5988L11.8851 89.2559L12.228 87.2561Z" fill="white"/>
<path d="M149.608 135.31L150.122 138.309L153.122 138.824L150.122 139.338L149.608 142.338L149.094 139.338L146.094 138.824L149.094 138.309L149.608 135.31Z" fill="white"/>
<path d="M161.367 66.0994L162.396 72.0988L168.395 73.1275L162.396 74.1562L161.367 80.1556L160.339 74.1562L154.339 73.1275L160.339 72.0988L161.367 66.0994Z" fill="white"/>
<path d="M21.5979 112.984L22.6267 118.983L28.6261 120.012L22.6267 121.04L21.5979 127.04L20.5692 121.04L14.5698 120.012L20.5692 118.983L21.5979 112.984Z" fill="white" fill-opacity="0.4"/>
</g>
<defs>
<clipPath id="clip0_636_26659">
<rect width="175.703" height="175.703" rx="24" fill="white"/>
</clipPath>
</defs>
</svg>
