<svg width="192" height="128" viewBox="0 0 192 128" fill="none" xmlns="http://www.w3.org/2000/svg">
<g clip-path="url(#clip0_636_26927)">
<rect width="191.883" height="127.922" rx="24" fill="#E24C5E"/>
<path d="M95.2649 -1.27905C95.6381 -1.27905 95.9406 -0.976498 95.9407 -0.603271V7.67505H100.423C103.249 7.67505 105.54 9.96626 105.54 12.7922V16.3137C109.335 17.2144 113.005 18.6396 116.406 20.6096C131.555 29.3189 141.399 48.8829 137.628 65.5725C133.877 82.3425 116.511 96.238 98.3909 97.676C80.321 99.1441 61.4162 88.1754 54.9944 72.4436C48.4924 56.7317 54.3132 36.2963 67.5364 25.0911C72.5032 20.8548 78.5156 17.9273 84.8918 16.3938V12.7922C84.8918 9.96626 87.1831 7.67505 90.009 7.67505H94.5891V-0.603271C94.5891 -0.976501 94.8917 -1.27905 95.2649 -1.27905Z" fill="white"/>
<path d="M65.4201 73.3762V68.5663L72.5326 62.2726C75.1251 60.0553 77.3595 58.1449 79.2357 56.5417C81.1119 54.9043 82.5617 53.3692 83.5851 51.9365C84.6084 50.5037 85.1201 48.9346 85.1201 47.2289C85.1201 45.9326 84.7961 44.824 84.1479 43.9029C83.5339 42.9819 82.7323 42.2826 81.743 41.805C80.7537 41.3274 79.7303 41.0887 78.6729 41.0887C77.206 41.0887 76.0121 41.3786 75.091 41.9585C74.2041 42.5384 73.5219 43.2377 73.0443 44.0565C72.6008 44.8752 72.2938 45.6768 72.1232 46.4614C71.9527 47.2119 71.8674 47.7747 71.8674 48.15H65.2154C65.2154 47.3995 65.3348 46.4784 65.5736 45.3868C65.8465 44.2611 66.29 43.1013 66.904 41.9074C67.518 40.7134 68.3367 39.5877 69.3601 38.5302C70.3835 37.4727 71.6798 36.6199 73.249 35.9718C74.8181 35.3236 76.6773 34.9996 78.8264 34.9996C81.2142 34.9996 83.3974 35.4771 85.376 36.4323C87.3886 37.3874 88.9919 38.7519 90.1859 40.5258C91.4139 42.2997 92.0279 44.4317 92.0279 46.9219C92.0279 49.2075 91.448 51.2883 90.2882 53.1645C89.1625 55.0407 87.6104 56.8828 85.6318 58.6908C83.6533 60.4646 81.4019 62.3749 78.8775 64.4217L75.7051 67.2871H92.6931V73.3762H65.4201ZM99.1996 73.3762V68.5663L106.312 62.2726C108.905 60.0553 111.139 58.1449 113.015 56.5417C114.891 54.9043 116.341 53.3692 117.365 51.9365C118.388 50.5037 118.9 48.9346 118.9 47.2289C118.9 45.9326 118.576 44.824 117.927 43.9029C117.313 42.9819 116.512 42.2826 115.522 41.805C114.533 41.3274 113.51 41.0887 112.452 41.0887C110.985 41.0887 109.792 41.3786 108.87 41.9585C107.984 42.5384 107.301 43.2377 106.824 44.0565C106.38 44.8752 106.073 45.6768 105.903 46.4614C105.732 47.2119 105.647 47.7747 105.647 48.15H98.9949C98.9949 47.3995 99.1143 46.4784 99.3531 45.3868C99.626 44.2611 100.069 43.1013 100.683 41.9074C101.297 40.7134 102.116 39.5877 103.14 38.5302C104.163 37.4727 105.459 36.6199 107.028 35.9718C108.598 35.3236 110.457 34.9996 112.606 34.9996C114.994 34.9996 117.177 35.4771 119.155 36.4323C121.168 37.3874 122.771 38.7519 123.965 40.5258C125.193 42.2997 125.807 44.4317 125.807 46.9219C125.807 49.2075 125.227 51.2883 124.068 53.1645C122.942 55.0407 121.39 56.8828 119.411 58.6908C117.433 60.4646 115.181 62.3749 112.657 64.4217L109.485 67.2871H126.473V73.3762H99.1996Z" fill="#E24C5E"/>
<path d="M32.262 83.3051C39.3382 85.4515 45.1002 92.6991 45.1101 99.8385C45.0995 106.963 39.287 114.006 32.1219 116.292C24.9773 118.593 16.4654 116.158 12.275 110.475C8.10505 104.808 8.27698 95.9074 12.5406 89.9827C16.8043 84.058 25.1653 81.144 32.262 83.3051Z" fill="white"/>
<path d="M20.875 80.2611C20.875 78.8481 22.0205 77.7026 23.4334 77.7026H31.1605C32.5735 77.7026 33.719 78.8481 33.719 80.2611V84.6414H20.875V80.2611Z" fill="white"/>
<path d="M160.307 57.235C160.307 55.822 161.453 54.6765 162.866 54.6765H170.593C172.006 54.6765 173.151 55.822 173.151 57.235V61.6153H160.307V57.235Z" fill="white"/>
<path d="M26.6221 -1.27881H27.9737V78.5391H26.6221V-1.27881Z" fill="white"/>
<path d="M166.159 -0.603213C166.159 -0.976469 166.461 -1.27905 166.835 -1.27905C167.208 -1.27905 167.51 -0.976469 167.51 -0.603214V78.539H166.159V-0.603213Z" fill="white"/>
<path d="M171.565 60.0229C177.779 62.0355 182.517 68.4734 182.516 74.8408C182.516 81.2082 177.772 87.4758 171.791 89.3841C165.84 91.2877 158.617 88.8075 154.766 83.655C150.898 78.4903 150.403 70.6532 154.009 65.5345C157.628 60.3986 165.335 57.9981 171.565 60.0229Z" fill="white"/>
<path d="M35.1785 89.5454L36.0423 91.8797L38.3766 92.7435L36.0423 93.6072L35.1785 95.9415L34.3148 93.6072L31.9805 92.7435L34.3148 91.8797L35.1785 89.5454Z" fill="#E24C5E"/>
<path d="M173.339 65.8701L174.203 68.2044L176.537 69.0682L174.203 69.9319L173.339 72.2662L172.475 69.9319L170.141 69.0682L172.475 68.2044L173.339 65.8701Z" fill="#E24C5E"/>
<path d="M170.141 70.9871L170.487 71.9208L171.42 72.2663L170.487 72.6118L170.141 73.5455L169.796 72.6118L168.862 72.2663L169.796 71.9208L170.141 70.9871Z" fill="#E24C5E"/>
<path d="M176.164 65.3906L176.51 66.3243L177.444 66.6698L176.51 67.0154L176.164 67.9491L175.819 67.0154L174.885 66.6698L175.819 66.3243L176.164 65.3906Z" fill="#E24C5E"/>
<path d="M35.1804 89.5454L36.0441 91.8797L38.3784 92.7435L36.0441 93.6072L35.1804 95.9415L34.3166 93.6072L31.9823 92.7435L34.3166 91.8797L35.1804 89.5454Z" fill="#E24C5E"/>
<path d="M38.0956 94.1208L38.4411 95.0546L39.3749 95.4001L38.4411 95.7456L38.0956 96.6793L37.7501 95.7456L36.8164 95.4001L37.7501 95.0546L38.0956 94.1208Z" fill="#E24C5E"/>
<path d="M125.061 79.9385C125.061 79.9385 122.659 84.1064 115.21 87.8954C107.761 91.6845 101.38 91.6845 101.38 91.6845" stroke="#E24C5E" stroke-width="2.55844" stroke-linecap="round"/>
<path d="M118.685 80.1079C118.685 80.1079 117.309 82.3608 111.663 84.8052C106.017 87.2496 101.38 87.2496 101.38 87.2496" stroke="#E24C5E" stroke-width="2.55844" stroke-linecap="round"/>
</g>
<defs>
<clipPath id="clip0_636_26927">
<rect width="191.883" height="127.922" rx="24" fill="white"/>
</clipPath>
</defs>
</svg>
