<svg width="194" height="130" viewBox="0 0 194 130" fill="none" xmlns="http://www.w3.org/2000/svg">
<rect width="193.119" height="130" rx="24" fill="#E24C5E"/>
<path d="M161.113 41.0047C170.11 65.0402 157.771 99.6154 135.278 114.654C112.785 129.82 80.009 125.579 57.7729 108.87C35.5368 92.289 23.8404 63.2408 31.2953 41.2618C38.7501 19.4113 65.2278 4.63007 93.6334 4.11595C121.91 3.47328 152.116 16.9692 161.113 41.0047Z" fill="white"/>
<path d="M96.4336 83.3795C93.8243 83.3795 91.6271 82.9847 89.8418 82.195C88.0565 81.4054 86.6146 80.3926 85.5159 79.1566C84.4516 77.9207 83.6792 76.5989 83.1985 75.1913C82.7179 73.7836 82.4775 72.479 82.4775 71.2774H89.0693C89.0693 72.3073 89.3268 73.3201 89.8418 74.3158C90.3911 75.2771 91.2151 76.0667 92.3137 76.6847C93.4123 77.2684 94.7685 77.5602 96.3821 77.5602C98.3733 77.5602 100.038 77.0452 101.377 76.0152C102.751 74.9509 103.437 73.4918 103.437 71.6379C103.437 69.9899 102.854 68.651 101.686 67.621C100.553 66.591 98.9742 66.0761 96.9486 66.0761H91.7987V60.6687H97.0001C98.7167 60.6687 100.124 60.1881 101.223 59.2268C102.322 58.2655 102.871 57.0295 102.871 55.5189C102.871 53.871 102.236 52.5492 100.965 51.5535C99.7295 50.5236 98.2017 50.0086 96.3821 50.0086C94.9058 50.0086 93.6698 50.3347 92.6742 50.987C91.6786 51.605 90.9233 52.4118 90.4083 53.4075C89.8933 54.4031 89.6358 55.4331 89.6358 56.4974H83.1985C83.1985 55.2614 83.4217 53.9396 83.868 52.532C84.3486 51.1244 85.1039 49.8026 86.1339 48.5666C87.1982 47.2963 88.5715 46.2664 90.2538 45.4767C91.9704 44.6528 94.0475 44.2408 96.4851 44.2408C98.751 44.2408 100.88 44.6699 102.871 45.5282C104.896 46.3522 106.527 47.571 107.763 49.1846C109.033 50.7639 109.669 52.6522 109.669 54.8494C109.669 56.3257 109.377 57.6303 108.793 58.7633C108.244 59.8963 107.523 60.8232 106.63 61.5442C105.772 62.2652 104.862 62.7973 103.901 63.1406V63.4496C105.686 64.0676 107.214 65.0804 108.484 66.488C109.754 67.8957 110.39 69.7324 110.39 71.9984C110.39 74.4016 109.737 76.4615 108.433 78.1782C107.162 79.8604 105.463 81.1479 103.334 82.0405C101.206 82.9332 98.9055 83.3795 96.4336 83.3795Z" fill="#E24C5E"/>
<path d="M17.9814 110.754L32.2404 99.6585" stroke="white" stroke-width="3.86237" stroke-linecap="round"/>
<path d="M175.145 113.012L161.709 104.748" stroke="white" stroke-width="3.86237" stroke-linecap="round"/>
<path d="M17.9814 8.04419L31.9381 19.5181" stroke="white" stroke-width="3.86237" stroke-linecap="round"/>
<path d="M175.144 10.3016L163.888 18.3138" stroke="white" stroke-width="3.86237" stroke-linecap="round"/>
<path d="M7.68848 77.0391L19.9219 76.6532" stroke="white" stroke-width="3.86237" stroke-linecap="round"/>
<path d="M185.435 79.2964L171.362 77.961" stroke="white" stroke-width="3.86237" stroke-linecap="round"/>
<path d="M9.86816 40.7039L21.3615 44.912" stroke="white" stroke-width="3.86237" stroke-linecap="round"/>
<path d="M183.257 42.9615L173.232 46.9694" stroke="white" stroke-width="3.86237" stroke-linecap="round"/>
<path d="M57.1707 74.0154L58.6159 78.4634H63.2929L59.5092 81.2125L60.9544 85.6605L57.1707 82.9115L53.3869 85.6605L54.8322 81.2125L51.0485 78.4634H55.7254L57.1707 74.0154Z" fill="#E24C5E"/>
<path d="M141.685 38.6604L143.131 43.1085H147.808L144.024 45.8575L145.469 50.3056L141.685 47.5565L137.902 50.3056L139.347 45.8575L135.563 43.1085H140.24L141.685 38.6604Z" fill="#E24C5E"/>
<path d="M73.8104 21.1926L74.5331 23.4167H76.8716L74.9797 24.7912L75.7023 27.0152L73.8104 25.6407L71.9186 27.0152L72.6412 24.7912L70.7493 23.4167H73.0878L73.8104 21.1926Z" fill="#E24C5E"/>
<path d="M101.907 105.661L102.63 107.885H104.968L103.076 109.259L103.799 111.483L101.907 110.109L100.015 111.483L100.738 109.259L98.846 107.885H101.184L101.907 105.661Z" fill="#E24C5E" fill-opacity="0.5"/>
<path d="M111.834 15.8362L112.556 18.0602H114.895L113.003 19.4347L113.726 21.6588L111.834 20.2842L109.942 21.6588L110.664 19.4347L108.773 18.0602H111.111L111.834 15.8362Z" fill="#E24C5E" fill-opacity="0.5"/>
<path d="M133.003 91.8103L133.725 94.0343H136.064L134.172 95.4089L134.895 97.6329L133.003 96.2584L131.111 97.6329L131.834 95.4089L129.942 94.0343H132.28L133.003 91.8103Z" fill="#E24C5E"/>
<path d="M133.641 27.6301L134.002 28.7421H135.171L134.225 29.4294L134.587 30.5414L133.641 29.8542L132.695 30.5414L133.056 29.4294L132.11 28.7421H133.279L133.641 27.6301Z" fill="#E24C5E"/>
<path d="M121.652 58.0012L122.014 59.1132H123.183L122.237 59.8005L122.598 60.9125L121.652 60.2252L120.706 60.9125L121.068 59.8005L120.122 59.1132H121.291L121.652 58.0012Z" fill="#E24C5E" fill-opacity="0.4"/>
<path d="M63.6071 54.7825L63.9684 55.8945H65.1377L64.1917 56.5817L64.5531 57.6938L63.6071 57.0065L62.6612 57.6938L63.0225 56.5817L62.0766 55.8945H63.2458L63.6071 54.7825Z" fill="#E24C5E" fill-opacity="0.4"/>
<path d="M68.9785 93.4192L69.3398 94.5312H70.509L69.5631 95.2185L69.9244 96.3305L68.9785 95.6432L68.0325 96.3305L68.3938 95.2185L67.4479 94.5312H68.6171L68.9785 93.4192Z" fill="#E24C5E"/>
<path d="M40.5065 43.3564L40.8679 44.4685H42.0371L41.0912 45.1557L41.4525 46.2677L40.5065 45.5805L39.5606 46.2677L39.9219 45.1557L38.976 44.4685H40.1452L40.5065 43.3564Z" fill="#E24C5E"/>
<path d="M154.398 54.7825L154.76 55.8945H155.929L154.983 56.5817L155.344 57.6938L154.398 57.0065L153.452 57.6938L153.814 56.5817L152.868 55.8945H154.037L154.398 54.7825Z" fill="#E24C5E"/>
</svg>
