<svg width="128" height="130" viewBox="0 0 128 130" fill="none" xmlns="http://www.w3.org/2000/svg">
<g clip-path="url(#clip0_636_26903)">
<rect width="127.494" height="130" rx="24" fill="#E24C5E"/>
<rect x="16.9529" y="27.2844" width="84.9963" height="84.9963" rx="13.5994" transform="rotate(-6.1316 16.9529 27.2844)" fill="white"/>
<path d="M31.261 90.0769V83.6852L40.7126 75.3216C44.1578 72.375 47.127 69.8365 49.6202 67.7059C52.1134 65.53 54.04 63.4901 55.3999 61.5862C56.7599 59.6823 57.4398 57.597 57.4398 55.3304C57.4398 53.6079 57.0092 52.1346 56.1479 50.9106C55.3319 49.6867 54.2666 48.7574 52.952 48.1228C51.6374 47.4881 50.2775 47.1708 48.8722 47.1708C46.923 47.1708 45.3364 47.5561 44.1124 48.3268C42.9338 49.0974 42.0272 50.0267 41.3925 51.1146C40.8032 52.2026 40.3953 53.2679 40.1686 54.3105C39.9419 55.3078 39.8286 56.0557 39.8286 56.5544H30.989C30.989 55.5571 31.1477 54.3332 31.465 52.8826C31.8276 51.3866 32.4169 49.8454 33.2329 48.2588C34.0489 46.6722 35.1368 45.1762 36.4968 43.771C37.8567 42.3657 39.5793 41.2324 41.6645 40.3711C43.7498 39.5098 46.2203 39.0792 49.0762 39.0792C52.2494 39.0792 55.1506 39.7138 57.7798 40.9831C60.4544 42.2524 62.5849 44.0656 64.1715 46.4228C65.8035 48.7801 66.6194 51.6133 66.6194 54.9225C66.6194 57.9597 65.8488 60.7249 64.3075 63.2181C62.8116 65.7113 60.749 68.1592 58.1198 70.5618C55.4906 72.919 52.4987 75.4576 49.1442 78.1774L44.9284 81.9853H67.5034V90.0769H31.261ZM93.2169 39.7591V90.0769H84.1053V53.0865H74.5177V47.5788L76.0816 47.1028C78.7562 46.3322 80.9321 45.4482 82.6093 44.4509C84.2866 43.4536 85.8732 42.0937 87.3691 40.3711L87.9811 39.7591H93.2169Z" fill="#E24C5E"/>
<rect x="-10.7224" y="0.295898" width="175.662" height="5.40008" transform="rotate(-0.0163713 -10.7224 0.295898)" fill="white" fill-opacity="0.2"/>
<rect x="-25.4001" y="11.0212" width="175.662" height="5.40008" transform="rotate(-0.0163713 -25.4001 11.0212)" fill="white" fill-opacity="0.2"/>
<rect x="-48.5908" y="22.1687" width="226.915" height="5.40008" transform="rotate(-0.0163713 -48.5908 22.1687)" fill="white" fill-opacity="0.2"/>
<rect x="-48.0447" y="33.4077" width="226.915" height="5.40008" transform="rotate(-0.0163713 -48.0447 33.4077)" fill="white" fill-opacity="0.2"/>
<rect x="-65.7751" y="44.4756" width="250.035" height="5.40008" transform="rotate(-0.0163713 -65.7751 44.4756)" fill="white" fill-opacity="0.2"/>
<rect x="-69.5264" y="56.3154" width="266.789" height="5.40008" transform="rotate(-0.0163713 -69.5264 56.3154)" fill="white" fill-opacity="0.2"/>
<rect x="-70.1345" y="66.9548" width="266.789" height="5.40008" transform="rotate(-0.0163713 -70.1345 66.9548)" fill="white" fill-opacity="0.2"/>
<rect x="-71.2051" y="77.9939" width="266.789" height="5.40008" transform="rotate(-0.0163713 -71.2051 77.9939)" fill="white" fill-opacity="0.2"/>
<rect x="-68.0251" y="87.7739" width="266.789" height="5.40008" transform="rotate(-0.0163713 -68.0251 87.7739)" fill="white" fill-opacity="0.2"/>
<rect x="-73.5984" y="98.1528" width="266.789" height="5.40008" transform="rotate(-0.0163713 -73.5984 98.1528)" fill="white" fill-opacity="0.2"/>
<rect x="-71.7693" y="109.305" width="266.789" height="5.40008" transform="rotate(-0.0163713 -71.7693 109.305)" fill="white" fill-opacity="0.2"/>
<rect x="-81.0242" y="119.472" width="266.789" height="5.40008" transform="rotate(-0.0163713 -81.0242 119.472)" fill="white" fill-opacity="0.2"/>
<rect x="-75.5896" y="129.818" width="266.789" height="5.40008" transform="rotate(-0.0163713 -75.5896 129.818)" fill="white" fill-opacity="0.2"/>
</g>
<defs>
<clipPath id="clip0_636_26903">
<rect width="127.494" height="130" rx="24" fill="white"/>
</clipPath>
</defs>
</svg>
