<svg width="158" height="158" viewBox="0 0 158 158" fill="none" xmlns="http://www.w3.org/2000/svg">
<rect width="157.349" height="157.349" rx="24" fill="white"/>
<path d="M99.2858 14.6262C101.603 14.6262 103.426 16.5366 104.022 18.7761C105.852 25.6567 112.125 30.7268 119.581 30.7268C120.786 30.7268 121.855 31.6422 121.855 32.8467V124.769C121.855 125.383 121.334 125.865 120.72 125.865C111.828 125.865 104.62 133.072 104.62 141.964C104.62 143.125 103.735 144.153 102.574 144.153H51.5392C50.3778 144.153 49.4924 143.125 49.4924 141.964C49.4924 134.807 44.8218 128.741 38.3624 126.647C36.2659 125.967 34.5295 124.195 34.5295 121.991V32.8486C34.5295 31.6431 35.5994 30.7268 36.8049 30.7268C44.2615 30.7266 50.5342 25.6566 52.3646 18.7761C52.9603 16.5366 54.7831 14.6262 57.1004 14.6262H99.2858Z" fill="#E24C5E"/>
<circle cx="119.582" cy="15.4706" r="2.27479" fill="#E24C5E"/>
<circle cx="37.7733" cy="15.4706" r="2.27479" fill="#E24C5E"/>
<circle cx="36.8043" cy="140.772" r="2.27479" fill="#E24C5E"/>
<circle cx="120.547" cy="141.878" r="2.27479" fill="#E24C5E"/>
<path d="M78.6121 98.6437C76.7659 98.6437 75.1854 98.392 73.8707 97.8884C72.5559 97.3849 71.465 96.7276 70.5978 95.9163C69.7307 95.1051 69.0453 94.2519 68.5418 93.3568C68.0383 92.4617 67.6746 91.6085 67.4508 90.7973C67.255 89.986 67.1431 89.3287 67.1152 88.8252H72.444C72.444 88.8252 72.472 89.007 72.528 89.3706C72.5839 89.7063 72.7098 90.1259 72.9056 90.6294C73.1294 91.1329 73.4511 91.6504 73.8707 92.1819C74.3182 92.6854 74.9197 93.105 75.6749 93.4407C76.4302 93.7764 77.3813 93.9442 78.5282 93.9442C79.9268 93.9442 81.0737 93.6505 81.9689 93.0631C82.892 92.4757 83.5773 91.7204 84.0249 90.7973C84.4725 89.8742 84.6963 88.8951 84.6963 87.8601C84.6963 86.8251 84.4725 85.846 84.0249 84.9229C83.5773 83.9718 82.906 83.1886 82.0108 82.5732C81.1157 81.9578 79.9968 81.6501 78.6541 81.6501C77.6191 81.6501 76.7519 81.8179 76.0526 82.1536C75.3812 82.4893 74.8497 82.8669 74.4581 83.2865C74.0665 83.7061 73.7868 84.0837 73.6189 84.4194C73.4511 84.7551 73.3672 84.9229 73.3672 84.9229H67.7446L70.388 67.174H88.1369V72.1672H74.3322L73.1993 79.8458H73.3672C73.563 79.622 73.8986 79.3003 74.3742 78.8807C74.8497 78.4611 75.5211 78.0835 76.3882 77.7478C77.2554 77.4121 78.3883 77.2443 79.787 77.2443C82.0528 77.2443 83.955 77.7478 85.4935 78.7549C87.06 79.7619 88.2488 81.0766 89.0601 82.6991C89.8713 84.2935 90.2769 85.9859 90.2769 87.7762C90.2769 89.1189 90.0251 90.4336 89.5216 91.7204C89.0461 93.0071 88.3188 94.182 87.3397 95.245C86.3886 96.28 85.1858 97.1052 83.7312 97.7206C82.2766 98.336 80.5702 98.6437 78.6121 98.6437Z" fill="white"/>
</svg>
