<svg width="126" height="251" viewBox="0 0 126 251" fill="none" xmlns="http://www.w3.org/2000/svg">
<g clip-path="url(#clip0_636_26439)">
<rect width="125.056" height="250.111" rx="24" fill="#E24C5E"/>
<path d="M105.944 1.25098V221.99L63.9792 173.337L63.032 172.238L62.0857 173.337L20.1208 221.99V1.25098H105.944Z" fill="#E24C5E" stroke="white" stroke-width="2.50111"/>
<path d="M62.3653 129.578C59.7975 129.578 57.4798 129.145 55.4122 128.278C53.378 127.377 51.7606 126.127 50.5601 124.526C49.3595 122.925 48.7593 121.041 48.7593 118.874C48.7593 117.139 49.0761 115.689 49.7097 114.522C50.3766 113.321 51.127 112.387 51.9607 111.72C52.8277 111.02 53.5947 110.52 54.2617 110.22C54.9287 109.92 55.2788 109.77 55.3122 109.77V109.469C55.2788 109.469 54.9787 109.353 54.4118 109.119C53.8449 108.852 53.1946 108.419 52.4609 107.819C51.7272 107.218 51.077 106.418 50.51 105.418C49.9431 104.417 49.6597 103.167 49.6597 101.666C49.6597 99.665 50.2099 97.9143 51.3104 96.4136C52.4109 94.8796 53.9115 93.6957 55.8124 92.862C57.7466 91.9949 59.9309 91.5614 62.3653 91.5614C64.7997 91.5614 66.9674 91.9949 68.8682 92.862C70.8024 93.6957 72.3031 94.8796 73.3702 96.4136C74.4707 97.9143 75.0209 99.6484 75.0209 101.616C75.0209 103.117 74.7375 104.384 74.1706 105.418C73.637 106.418 72.9867 107.218 72.2197 107.819C71.486 108.419 70.8357 108.852 70.2688 109.119C69.7019 109.353 69.4185 109.469 69.4185 109.469V109.77C69.4185 109.77 69.7519 109.92 70.4189 110.22C71.0859 110.52 71.8529 111.02 72.7199 111.72C73.587 112.387 74.3373 113.321 74.9709 114.522C75.6379 115.689 75.9714 117.139 75.9714 118.874C75.9714 121.041 75.3711 122.925 74.1706 124.526C72.97 126.127 71.336 127.377 69.2684 128.278C67.2341 129.145 64.9331 129.578 62.3653 129.578ZM62.3653 107.268C64.2662 107.268 65.7835 106.752 66.9173 105.718C68.0512 104.684 68.6181 103.45 68.6181 102.016C68.6181 100.582 68.0512 99.3482 66.9173 98.3144C65.7835 97.2806 64.2662 96.7637 62.3653 96.7637C60.4645 96.7637 58.9471 97.2806 57.8133 98.3144C56.6794 99.3482 56.1125 100.599 56.1125 102.066C56.1125 103.467 56.6794 104.684 57.8133 105.718C58.9471 106.752 60.4645 107.268 62.3653 107.268ZM62.3653 124.226C63.9327 124.226 65.2333 123.943 66.267 123.376C67.3342 122.775 68.1345 122.008 68.6681 121.075C69.235 120.141 69.5185 119.174 69.5185 118.173C69.5185 117.173 69.2517 116.222 68.7181 115.322C68.1846 114.422 67.3842 113.688 66.3171 113.121C65.2499 112.554 63.9327 112.271 62.3653 112.271C60.7646 112.271 59.4307 112.554 58.3635 113.121C57.3297 113.688 56.5461 114.422 56.0125 115.322C55.4789 116.222 55.2121 117.173 55.2121 118.173C55.2121 119.174 55.4789 120.141 56.0125 121.075C56.5461 122.008 57.3464 122.775 58.4136 123.376C59.4807 123.943 60.7979 124.226 62.3653 124.226Z" fill="white"/>
<g opacity="0.3">
<mask id="mask0_636_26439" style="mask-type:alpha" maskUnits="userSpaceOnUse" x="18" y="0" width="90" height="226">
<path d="M105.944 1.25098V221.99L63.9792 173.337L63.032 172.238L62.0857 173.337L20.1208 221.99V1.25098H105.944Z" fill="#E24C5E" stroke="white" stroke-width="2.50111"/>
</mask>
<g mask="url(#mask0_636_26439)">
<line x1="-75.2789" y1="38.0302" x2="159.732" y2="-58.2097" stroke="white" stroke-width="2.50111"/>
<line x1="-75.2789" y1="46.7309" x2="159.732" y2="-49.509" stroke="white" stroke-width="2.50111"/>
<line x1="-75.2789" y1="55.4323" x2="159.732" y2="-40.8076" stroke="white" stroke-width="2.50111"/>
<line x1="-75.2789" y1="64.133" x2="159.732" y2="-32.1069" stroke="white" stroke-width="2.50111"/>
<line x1="-75.2789" y1="72.8339" x2="159.732" y2="-23.406" stroke="white" stroke-width="2.50111"/>
<line x1="-75.2789" y1="81.5351" x2="159.732" y2="-14.7048" stroke="white" stroke-width="2.50111"/>
<line x1="-75.2789" y1="90.236" x2="159.732" y2="-6.00391" stroke="white" stroke-width="2.50111"/>
<line x1="-75.2789" y1="98.937" x2="159.732" y2="2.69702" stroke="white" stroke-width="2.50111"/>
<line x1="-75.2789" y1="107.638" x2="159.732" y2="11.398" stroke="white" stroke-width="2.50111"/>
<line x1="-75.2789" y1="116.339" x2="159.732" y2="20.0989" stroke="white" stroke-width="2.50111"/>
<line x1="-75.2789" y1="125.04" x2="159.732" y2="28.7998" stroke="white" stroke-width="2.50111"/>
<line x1="-75.2789" y1="133.741" x2="159.732" y2="37.5007" stroke="white" stroke-width="2.50111"/>
<line x1="-75.2789" y1="142.442" x2="159.732" y2="46.2017" stroke="white" stroke-width="2.50111"/>
<line x1="-75.2789" y1="151.143" x2="159.732" y2="54.9028" stroke="white" stroke-width="2.50111"/>
<line x1="-75.2789" y1="159.844" x2="159.732" y2="63.6038" stroke="white" stroke-width="2.50111"/>
<line x1="-75.2789" y1="168.545" x2="159.732" y2="72.3047" stroke="white" stroke-width="2.50111"/>
<line x1="-75.2789" y1="177.246" x2="159.732" y2="81.0059" stroke="white" stroke-width="2.50111"/>
<line x1="-75.2789" y1="185.946" x2="159.732" y2="89.7065" stroke="white" stroke-width="2.50111"/>
<line x1="-75.2789" y1="194.648" x2="159.732" y2="98.4077" stroke="white" stroke-width="2.50111"/>
<line x1="-75.2789" y1="203.348" x2="159.732" y2="107.108" stroke="white" stroke-width="2.50111"/>
<line x1="-75.2789" y1="212.05" x2="159.732" y2="115.81" stroke="white" stroke-width="2.50111"/>
<line x1="-75.2789" y1="220.75" x2="159.732" y2="124.51" stroke="white" stroke-width="2.50111"/>
<line x1="-75.2789" y1="229.451" x2="159.732" y2="133.211" stroke="white" stroke-width="2.50111"/>
<line x1="-75.2789" y1="238.152" x2="159.732" y2="141.912" stroke="white" stroke-width="2.50111"/>
<line x1="-75.2789" y1="246.853" x2="159.732" y2="150.614" stroke="white" stroke-width="2.50111"/>
<line x1="-75.2789" y1="255.554" x2="159.732" y2="159.314" stroke="white" stroke-width="2.50111"/>
<line x1="-75.2789" y1="264.255" x2="159.732" y2="168.015" stroke="white" stroke-width="2.50111"/>
<line x1="-75.2789" y1="272.956" x2="159.732" y2="176.716" stroke="white" stroke-width="2.50111"/>
<line x1="-75.2789" y1="281.657" x2="159.732" y2="185.417" stroke="white" stroke-width="2.50111"/>
<line x1="-75.2789" y1="290.358" x2="159.732" y2="194.118" stroke="white" stroke-width="2.50111"/>
</g>
</g>
</g>
<defs>
<clipPath id="clip0_636_26439">
<rect width="125.056" height="250.111" rx="24" fill="white"/>
</clipPath>
</defs>
</svg>
