<svg width="226" height="151" viewBox="0 0 226 151" fill="none" xmlns="http://www.w3.org/2000/svg">
<rect width="225.14" height="150.093" rx="24" fill="#E24C5E"/>
<path d="M70.7777 97.1477V91.5042L79.1228 84.1196C82.1647 81.518 84.7864 79.2766 86.9877 77.3954C89.1891 75.4742 90.8902 73.6731 92.0909 71.9921C93.2917 70.311 93.892 68.4699 93.892 66.4686C93.892 64.9477 93.5118 63.6469 92.7513 62.5662C92.0309 61.4855 91.0903 60.665 89.9296 60.1047C88.7688 59.5443 87.5681 59.2641 86.3273 59.2641C84.6063 59.2641 83.2054 59.6044 82.1247 60.2848C81.0841 60.9652 80.2836 61.7857 79.7232 62.7463C79.2029 63.7069 78.8427 64.6475 78.6425 65.5681C78.4424 66.4486 78.3424 67.109 78.3424 67.5493H70.5375C70.5375 66.6687 70.6776 65.5881 70.9578 64.3073C71.278 62.9865 71.7983 61.6256 72.5187 60.2247C73.2392 58.8239 74.1998 57.503 75.4005 56.2623C76.6013 55.0215 78.1222 54.0209 79.9634 53.2604C81.8045 52.4999 83.9859 52.1197 86.5074 52.1197C89.3092 52.1197 91.8708 52.68 94.1922 53.8007C96.5537 54.9214 98.4349 56.5224 99.8357 58.6037C101.277 60.685 101.997 63.1866 101.997 66.1084C101.997 68.7901 101.317 71.2316 99.9558 73.433C98.635 75.6343 96.8138 77.7957 94.4924 79.917C92.171 81.9983 89.5293 84.2397 86.5675 86.6412L82.8452 90.0033H102.778V97.1477H70.7777ZM126.562 97.7481C123.52 97.7481 120.958 97.2878 118.877 96.3672C116.796 95.4466 115.115 94.2659 113.834 92.825C112.593 91.3841 111.692 89.8432 111.132 88.2021C110.572 86.5611 110.292 85.0402 110.292 83.6393H117.976C117.976 84.84 118.277 86.0208 118.877 87.1815C119.517 88.3022 120.478 89.2228 121.759 89.9432C123.04 90.6236 124.621 90.9639 126.502 90.9639C128.823 90.9639 130.764 90.3635 132.325 89.1627C133.926 87.922 134.727 86.2209 134.727 84.0596C134.727 82.1384 134.046 80.5774 132.686 79.3767C131.365 78.1759 129.524 77.5755 127.162 77.5755H121.158V71.2716H127.222C129.223 71.2716 130.864 70.7113 132.145 69.5906C133.426 68.4699 134.066 67.029 134.066 65.2679C134.066 63.3467 133.326 61.8057 131.845 60.645C130.404 59.4443 128.623 58.8439 126.502 58.8439C124.781 58.8439 123.34 59.2241 122.179 59.9846C121.018 60.705 120.138 61.6456 119.537 62.8063C118.937 63.9671 118.637 65.1678 118.637 66.4086H111.132C111.132 64.9677 111.392 63.4267 111.913 61.7857C112.473 60.1447 113.354 58.6037 114.554 57.1628C115.795 55.6819 117.396 54.4812 119.357 53.5606C121.358 52.6 123.78 52.1197 126.622 52.1197C129.263 52.1197 131.745 52.62 134.066 53.6206C136.428 54.5812 138.329 56.0021 139.77 57.8833C141.251 59.7244 141.991 61.9258 141.991 64.4874C141.991 66.2085 141.651 67.7294 140.971 69.0502C140.33 70.371 139.49 71.4517 138.449 72.2922C137.448 73.1328 136.388 73.7532 135.267 74.1534V74.5136C137.348 75.2341 139.13 76.4148 140.61 78.0558C142.091 79.6969 142.832 81.8382 142.832 84.4798C142.832 87.2816 142.071 89.6831 140.55 91.6843C139.07 93.6455 137.088 95.1465 134.607 96.1871C132.125 97.2278 129.444 97.7481 126.562 97.7481Z" fill="white"/>
<path d="M180.144 93.6655L180.292 95.0179L181.644 95.1665L180.292 95.315L180.144 96.6674L179.995 95.315L178.643 95.1665L179.995 95.0179L180.144 93.6655Z" fill="white"/>
<path d="M102.906 25.749L103.055 27.1014L104.407 27.25L103.055 27.3985L102.906 28.7509L102.758 27.3985L101.405 27.25L102.758 27.1014L102.906 25.749Z" fill="white"/>
<path d="M198.83 47.0498L198.979 48.4022L200.331 48.5507L198.979 48.6993L198.83 50.0517L198.681 48.6993L197.329 48.5507L198.681 48.4022L198.83 47.0498Z" fill="white"/>
<path d="M92.1386 109.943L92.2872 111.296L93.6396 111.444L92.2872 111.593L92.1386 112.945L91.99 111.593L90.6377 111.444L91.99 111.296L92.1386 109.943Z" fill="white"/>
<path d="M52.7119 134.069L52.8605 135.421L54.2128 135.57L52.8605 135.718L52.7119 137.071L52.5633 135.718L51.2109 135.57L52.5633 135.421L52.7119 134.069Z" fill="white"/>
<path d="M14.9697 88.8513L15.1183 90.2037L16.4706 90.3523L15.1183 90.5008L14.9697 91.8532L14.8211 90.5008L13.4688 90.3523L14.8211 90.2037L14.9697 88.8513Z" fill="white"/>
<path d="M26.5195 39.877L26.6681 41.2293L28.0204 41.3779L26.6681 41.5265L26.5195 42.8788L26.3709 41.5265L25.0186 41.3779L26.3709 41.2293L26.5195 39.877Z" fill="white"/>
<path d="M77.7607 10.7656L77.9093 12.118L79.2616 12.2666L77.9093 12.4151L77.7607 13.7675L77.6121 12.4151L76.2598 12.2666L77.6121 12.118L77.7607 10.7656Z" fill="white"/>
<path d="M83.0136 34.6101L83.1622 35.9625L84.5146 36.111L83.1622 36.2596L83.0136 37.612L82.865 36.2596L81.5127 36.111L82.865 35.9625L83.0136 34.6101Z" fill="white"/>
<path d="M81.5121 127.273L81.8836 130.654L85.2644 131.025L81.8836 131.397L81.5121 134.777L81.1406 131.397L77.7598 131.025L81.1406 130.654L81.5121 127.273Z" fill="white"/>
<path d="M135.517 123.83L136.074 128.902L141.146 129.459L136.074 130.016L135.517 135.087L134.96 130.016L129.889 129.459L134.96 128.902L135.517 123.83Z" fill="white"/>
<path d="M198.831 14.4915L199.388 19.5628L204.459 20.12L199.388 20.6771L198.831 25.7485L198.274 20.6771L193.202 20.12L198.274 19.5628L198.831 14.4915Z" fill="white"/>
<path d="M30.7916 11.5024L31.3488 16.5737L36.4201 17.1309L31.3488 17.6881L30.7916 22.7594L30.2344 17.6881L25.1631 17.1309L30.2344 16.5737L30.7916 11.5024Z" fill="white"/>
<path d="M25.1622 66.3906L25.5337 69.7715L28.9146 70.143L25.5337 70.5144L25.1622 73.8953L24.7908 70.5144L21.4099 70.143L24.7908 69.7715L25.1622 66.3906Z" fill="white"/>
<path opacity="0.5" d="M60.4769 30.1067L60.8484 33.4876L64.2293 33.859L60.8484 34.2305L60.4769 37.6114L60.1055 34.2305L56.7246 33.859L60.1055 33.4876L60.4769 30.1067Z" fill="white"/>
<path opacity="0.5" d="M174.889 62.6377L175.261 66.0186L178.641 66.39L175.261 66.7615L174.889 70.1424L174.518 66.7615L171.137 66.39L174.518 66.0186L174.889 62.6377Z" fill="white"/>
<path opacity="0.5" d="M30.2848 101.964L30.5091 104.005L32.5503 104.229L30.5091 104.453L30.2848 106.495L30.0605 104.453L28.0193 104.229L30.0605 104.005L30.2848 101.964Z" fill="white"/>
<path opacity="0.5" d="M151.89 37.6111L152.114 39.6523L154.155 39.8766L152.114 40.1009L151.89 42.1421L151.665 40.1009L149.624 39.8766L151.665 39.6523L151.89 37.6111Z" fill="white"/>
<path d="M135.519 11.5024L135.744 13.5437L137.785 13.7679L135.744 13.9922L135.519 16.0335L135.295 13.9922L133.254 13.7679L135.295 13.5437L135.519 11.5024Z" fill="white"/>
<path d="M21.4103 129.538L21.6346 131.579L23.6758 131.803L21.6346 132.028L21.4103 134.069L21.186 132.028L19.1448 131.803L21.186 131.579L21.4103 129.538Z" fill="white"/>
<path opacity="0.5" d="M190.933 125.007L191.157 127.048L193.198 127.273L191.157 127.497L190.933 129.538L190.708 127.497L188.667 127.273L190.708 127.048L190.933 125.007Z" fill="white"/>
</svg>
