<svg width="103" height="205" viewBox="0 0 103 205" fill="none" xmlns="http://www.w3.org/2000/svg">
<g clip-path="url(#clip0_636_26813)">
<rect width="102.445" height="204.89" rx="24" fill="#E24C5E"/>
<path d="M42.1863 87.2541V117.578H36.6953V95.2858H30.9174V91.9666L31.8599 91.6798C33.4717 91.2153 34.783 90.6826 35.7938 90.0816C36.8045 89.4806 37.7607 88.661 38.6622 87.6229L39.031 87.2541H42.1863ZM59.6446 117.988C57.541 117.988 55.6424 117.633 53.9486 116.922C52.2822 116.185 50.9572 115.16 49.9738 113.849C48.9903 112.538 48.4985 110.994 48.4985 109.218C48.4985 107.798 48.7581 106.609 49.2771 105.653C49.8235 104.67 50.4382 103.905 51.1211 103.359C51.8314 102.785 52.4598 102.375 53.0061 102.129C53.5525 101.883 53.8393 101.76 53.8667 101.76V101.514C53.8393 101.514 53.5935 101.419 53.1291 101.228C52.6646 101.009 52.1319 100.654 51.5309 100.162C50.9299 99.6705 50.3972 99.0148 49.9328 98.1953C49.4684 97.3757 49.2361 96.3513 49.2361 95.1219C49.2361 93.4828 49.6869 92.0486 50.5884 90.8192C51.4899 89.5626 52.7193 88.5927 54.2764 87.9098C55.8609 87.1995 57.6503 86.8444 59.6446 86.8444C61.6388 86.8444 63.4145 87.1995 64.9717 87.9098C66.5562 88.5927 67.7855 89.5626 68.6597 90.8192C69.5613 92.0486 70.012 93.4691 70.012 95.0809C70.012 96.3103 69.7798 97.3484 69.3154 98.1953C68.8783 99.0148 68.3456 99.6705 67.7172 100.162C67.1162 100.654 66.5835 101.009 66.1191 101.228C65.6547 101.419 65.4225 101.514 65.4225 101.514V101.76C65.4225 101.76 65.6957 101.883 66.242 102.129C66.7884 102.375 67.4167 102.785 68.127 103.359C68.8373 103.905 69.452 104.67 69.971 105.653C70.5174 106.609 70.7906 107.798 70.7906 109.218C70.7906 110.994 70.2989 112.538 69.3154 113.849C68.3319 115.16 66.9933 116.185 65.2995 116.922C63.6331 117.633 61.7481 117.988 59.6446 117.988ZM59.6446 99.7115C61.2017 99.7115 62.4447 99.288 63.3736 98.4411C64.3024 97.5943 64.7668 96.5835 64.7668 95.4088C64.7668 94.2341 64.3024 93.2233 63.3736 92.3764C62.4447 91.5295 61.2017 91.1061 59.6446 91.1061C58.0874 91.1061 56.8444 91.5295 55.9156 92.3764C54.9867 93.2233 54.5223 94.2477 54.5223 95.4497C54.5223 96.5971 54.9867 97.5943 55.9156 98.4411C56.8444 99.288 58.0874 99.7115 59.6446 99.7115ZM59.6446 113.603C60.9285 113.603 61.994 113.371 62.8409 112.906C63.7151 112.415 64.3707 111.786 64.8078 111.021C65.2722 110.256 65.5044 109.464 65.5044 108.645C65.5044 107.825 65.2859 107.047 64.8488 106.309C64.4117 105.571 63.756 104.97 62.8818 104.506C62.0076 104.041 60.9285 103.809 59.6446 103.809C58.3333 103.809 57.2405 104.041 56.3663 104.506C55.5194 104.97 54.8775 105.571 54.4404 106.309C54.0033 107.047 53.7847 107.825 53.7847 108.645C53.7847 109.464 54.0033 110.256 54.4404 111.021C54.8775 111.786 55.5331 112.415 56.4073 112.906C57.2815 113.371 58.3606 113.603 59.6446 113.603Z" fill="white"/>
<rect x="5.30469" y="5.24365" width="92.2406" height="194.329" rx="12.2934" stroke="white" stroke-width="2.0489" stroke-linecap="round" stroke-linejoin="round" stroke-dasharray="0.26 5.12"/>
<g filter="url(#filter0_d_636_26813)">
<path d="M50.7324 51.1448C50.7324 51.1448 49.7549 54.1538 49.7765 59.9976C49.7981 65.8414 50.7324 69.4417 50.7324 69.4417" stroke="white" stroke-width="1.53668" stroke-linecap="round"/>
</g>
<g filter="url(#filter1_d_636_26813)">
<path d="M66.9971 68.8064C70.5117 64.5107 73.3867 59.7838 73.765 54.1104" stroke="white" stroke-width="1.53668" stroke-linecap="round"/>
</g>
<g filter="url(#filter2_d_636_26813)">
<path d="M34.5112 71.7066C31.7994 68.7688 30.7362 64.3496 30.4504 60.4912" stroke="white" stroke-width="1.53668" stroke-linecap="round"/>
</g>
<g filter="url(#filter3_d_636_26813)">
<path d="M21.1682 87.3694C19.1743 86.0187 15.997 84.0877 15.3672 81.5684" stroke="white" stroke-width="1.53668" stroke-linecap="round"/>
</g>
<g filter="url(#filter4_d_636_26813)">
<path d="M79.3728 89.4965C81.4971 87.5492 83.87 86.4482 86.5274 85.4358" stroke="white" stroke-width="1.53668" stroke-linecap="round"/>
</g>
<g filter="url(#filter5_d_636_26813)">
<path d="M51.9141 138.418C50.9599 145.385 50.5605 152.266 50.5605 159.302" stroke="white" stroke-width="1.53668" stroke-linecap="round"/>
</g>
<g filter="url(#filter6_d_636_26813)">
<path d="M71.4434 133.391C73.1901 133.724 74.8286 136.663 75.6545 138.01C77.4645 140.964 78.6392 144.394 79.5648 147.7" stroke="white" stroke-width="1.53668" stroke-linecap="round"/>
</g>
<g filter="url(#filter7_d_636_26813)">
<path d="M80.7256 113.087C81.9073 113.087 83.089 113.087 84.2707 113.087C86.1311 113.087 87.497 113.669 89.2338 114.248" stroke="white" stroke-width="1.53668" stroke-linecap="round"/>
</g>
<g filter="url(#filter8_d_636_26813)">
<path d="M28.517 132.618C27.2576 135.242 25.2464 137.572 23.8117 140.116C21.9965 143.335 20.7382 146.524 19.6221 150.021" stroke="white" stroke-width="1.53668" stroke-linecap="round"/>
</g>
<g filter="url(#filter9_d_636_26813)">
<path d="M25.0357 108.833C22.6725 108.833 20.615 108.723 18.4612 109.8" stroke="white" stroke-width="1.53668" stroke-linecap="round"/>
</g>
</g>
<defs>
<filter id="filter0_d_636_26813" x="32.6166" y="33.985" width="35.2756" height="52.6164" filterUnits="userSpaceOnUse" color-interpolation-filters="sRGB">
<feFlood flood-opacity="0" result="BackgroundImageFix"/>
<feColorMatrix in="SourceAlpha" type="matrix" values="0 0 0 0 0 0 0 0 0 0 0 0 0 0 0 0 0 0 127 0" result="hardAlpha"/>
<feOffset/>
<feGaussianBlur stdDeviation="8.19561"/>
<feComposite in2="hardAlpha" operator="out"/>
<feColorMatrix type="matrix" values="0 0 0 0 0 0 0 0 0 0 0 0 0 0 0 0 0 0 0.25 0"/>
<feBlend mode="normal" in2="BackgroundImageFix" result="effect1_dropShadow_636_26813"/>
<feBlend mode="normal" in="SourceGraphic" in2="effect1_dropShadow_636_26813" result="shape"/>
</filter>
<filter id="filter1_d_636_26813" x="49.8375" y="36.9508" width="41.0871" height="49.0151" filterUnits="userSpaceOnUse" color-interpolation-filters="sRGB">
<feFlood flood-opacity="0" result="BackgroundImageFix"/>
<feColorMatrix in="SourceAlpha" type="matrix" values="0 0 0 0 0 0 0 0 0 0 0 0 0 0 0 0 0 0 127 0" result="hardAlpha"/>
<feOffset/>
<feGaussianBlur stdDeviation="8.19561"/>
<feComposite in2="hardAlpha" operator="out"/>
<feColorMatrix type="matrix" values="0 0 0 0 0 0 0 0 0 0 0 0 0 0 0 0 0 0 0.25 0"/>
<feBlend mode="normal" in2="BackgroundImageFix" result="effect1_dropShadow_636_26813"/>
<feBlend mode="normal" in="SourceGraphic" in2="effect1_dropShadow_636_26813" result="shape"/>
</filter>
<filter id="filter2_d_636_26813" x="13.2909" y="43.3317" width="38.3798" height="45.5344" filterUnits="userSpaceOnUse" color-interpolation-filters="sRGB">
<feFlood flood-opacity="0" result="BackgroundImageFix"/>
<feColorMatrix in="SourceAlpha" type="matrix" values="0 0 0 0 0 0 0 0 0 0 0 0 0 0 0 0 0 0 127 0" result="hardAlpha"/>
<feOffset/>
<feGaussianBlur stdDeviation="8.19561"/>
<feComposite in2="hardAlpha" operator="out"/>
<feColorMatrix type="matrix" values="0 0 0 0 0 0 0 0 0 0 0 0 0 0 0 0 0 0 0.25 0"/>
<feBlend mode="normal" in2="BackgroundImageFix" result="effect1_dropShadow_636_26813"/>
<feBlend mode="normal" in="SourceGraphic" in2="effect1_dropShadow_636_26813" result="shape"/>
</filter>
<filter id="filter3_d_636_26813" x="-1.79258" y="64.4086" width="40.1206" height="40.1206" filterUnits="userSpaceOnUse" color-interpolation-filters="sRGB">
<feFlood flood-opacity="0" result="BackgroundImageFix"/>
<feColorMatrix in="SourceAlpha" type="matrix" values="0 0 0 0 0 0 0 0 0 0 0 0 0 0 0 0 0 0 127 0" result="hardAlpha"/>
<feOffset/>
<feGaussianBlur stdDeviation="8.19561"/>
<feComposite in2="hardAlpha" operator="out"/>
<feColorMatrix type="matrix" values="0 0 0 0 0 0 0 0 0 0 0 0 0 0 0 0 0 0 0.25 0"/>
<feBlend mode="normal" in2="BackgroundImageFix" result="effect1_dropShadow_636_26813"/>
<feBlend mode="normal" in="SourceGraphic" in2="effect1_dropShadow_636_26813" result="shape"/>
</filter>
<filter id="filter4_d_636_26813" x="62.2133" y="68.276" width="41.4738" height="38.3801" filterUnits="userSpaceOnUse" color-interpolation-filters="sRGB">
<feFlood flood-opacity="0" result="BackgroundImageFix"/>
<feColorMatrix in="SourceAlpha" type="matrix" values="0 0 0 0 0 0 0 0 0 0 0 0 0 0 0 0 0 0 127 0" result="hardAlpha"/>
<feOffset/>
<feGaussianBlur stdDeviation="8.19561"/>
<feComposite in2="hardAlpha" operator="out"/>
<feColorMatrix type="matrix" values="0 0 0 0 0 0 0 0 0 0 0 0 0 0 0 0 0 0 0.25 0"/>
<feBlend mode="normal" in2="BackgroundImageFix" result="effect1_dropShadow_636_26813"/>
<feBlend mode="normal" in="SourceGraphic" in2="effect1_dropShadow_636_26813" result="shape"/>
</filter>
<filter id="filter5_d_636_26813" x="33.401" y="121.259" width="35.6728" height="55.2028" filterUnits="userSpaceOnUse" color-interpolation-filters="sRGB">
<feFlood flood-opacity="0" result="BackgroundImageFix"/>
<feColorMatrix in="SourceAlpha" type="matrix" values="0 0 0 0 0 0 0 0 0 0 0 0 0 0 0 0 0 0 127 0" result="hardAlpha"/>
<feOffset/>
<feGaussianBlur stdDeviation="8.19561"/>
<feComposite in2="hardAlpha" operator="out"/>
<feColorMatrix type="matrix" values="0 0 0 0 0 0 0 0 0 0 0 0 0 0 0 0 0 0 0.25 0"/>
<feBlend mode="normal" in2="BackgroundImageFix" result="effect1_dropShadow_636_26813"/>
<feBlend mode="normal" in="SourceGraphic" in2="effect1_dropShadow_636_26813" result="shape"/>
</filter>
<filter id="filter6_d_636_26813" x="54.2836" y="116.231" width="42.4411" height="48.6289" filterUnits="userSpaceOnUse" color-interpolation-filters="sRGB">
<feFlood flood-opacity="0" result="BackgroundImageFix"/>
<feColorMatrix in="SourceAlpha" type="matrix" values="0 0 0 0 0 0 0 0 0 0 0 0 0 0 0 0 0 0 127 0" result="hardAlpha"/>
<feOffset/>
<feGaussianBlur stdDeviation="8.19561"/>
<feComposite in2="hardAlpha" operator="out"/>
<feColorMatrix type="matrix" values="0 0 0 0 0 0 0 0 0 0 0 0 0 0 0 0 0 0 0.25 0"/>
<feBlend mode="normal" in2="BackgroundImageFix" result="effect1_dropShadow_636_26813"/>
<feBlend mode="normal" in="SourceGraphic" in2="effect1_dropShadow_636_26813" result="shape"/>
</filter>
<filter id="filter7_d_636_26813" x="63.5661" y="95.9279" width="42.8276" height="35.4794" filterUnits="userSpaceOnUse" color-interpolation-filters="sRGB">
<feFlood flood-opacity="0" result="BackgroundImageFix"/>
<feColorMatrix in="SourceAlpha" type="matrix" values="0 0 0 0 0 0 0 0 0 0 0 0 0 0 0 0 0 0 127 0" result="hardAlpha"/>
<feOffset/>
<feGaussianBlur stdDeviation="8.19561"/>
<feComposite in2="hardAlpha" operator="out"/>
<feColorMatrix type="matrix" values="0 0 0 0 0 0 0 0 0 0 0 0 0 0 0 0 0 0 0.25 0"/>
<feBlend mode="normal" in2="BackgroundImageFix" result="effect1_dropShadow_636_26813"/>
<feBlend mode="normal" in="SourceGraphic" in2="effect1_dropShadow_636_26813" result="shape"/>
</filter>
<filter id="filter8_d_636_26813" x="2.4623" y="115.458" width="43.2146" height="51.7226" filterUnits="userSpaceOnUse" color-interpolation-filters="sRGB">
<feFlood flood-opacity="0" result="BackgroundImageFix"/>
<feColorMatrix in="SourceAlpha" type="matrix" values="0 0 0 0 0 0 0 0 0 0 0 0 0 0 0 0 0 0 127 0" result="hardAlpha"/>
<feOffset/>
<feGaussianBlur stdDeviation="8.19561"/>
<feComposite in2="hardAlpha" operator="out"/>
<feColorMatrix type="matrix" values="0 0 0 0 0 0 0 0 0 0 0 0 0 0 0 0 0 0 0.25 0"/>
<feBlend mode="normal" in2="BackgroundImageFix" result="effect1_dropShadow_636_26813"/>
<feBlend mode="normal" in="SourceGraphic" in2="effect1_dropShadow_636_26813" result="shape"/>
</filter>
<filter id="filter9_d_636_26813" x="1.30141" y="91.6698" width="40.8938" height="35.2902" filterUnits="userSpaceOnUse" color-interpolation-filters="sRGB">
<feFlood flood-opacity="0" result="BackgroundImageFix"/>
<feColorMatrix in="SourceAlpha" type="matrix" values="0 0 0 0 0 0 0 0 0 0 0 0 0 0 0 0 0 0 127 0" result="hardAlpha"/>
<feOffset/>
<feGaussianBlur stdDeviation="8.19561"/>
<feComposite in2="hardAlpha" operator="out"/>
<feColorMatrix type="matrix" values="0 0 0 0 0 0 0 0 0 0 0 0 0 0 0 0 0 0 0.25 0"/>
<feBlend mode="normal" in2="BackgroundImageFix" result="effect1_dropShadow_636_26813"/>
<feBlend mode="normal" in="SourceGraphic" in2="effect1_dropShadow_636_26813" result="shape"/>
</filter>
<clipPath id="clip0_636_26813">
<rect width="102.445" height="204.89" rx="24" fill="white"/>
</clipPath>
</defs>
</svg>
