<svg width="164" height="218" viewBox="0 0 164 218" fill="none" xmlns="http://www.w3.org/2000/svg">
<g clip-path="url(#clip0_636_25942)">
<rect width="163.133" height="217.511" rx="24" fill="#E24C5E"/>
<mask id="mask0_636_25942" style="mask-type:alpha" maskUnits="userSpaceOnUse" x="-9" y="38" width="181" height="189">
<path d="M83.4453 39.0444C84.6659 38.1286 86.4 38.7715 86.8193 40.2388C88.5402 46.2599 93.0115 60.0792 100.575 71.4663C108.006 82.6528 119.499 96.9244 124.884 103.483C126.057 104.912 125.037 107.074 123.188 107.074H115.318C111.703 107.074 109.677 111.216 111.931 114.043C124.074 129.271 138.439 146.065 144.653 153.269C145.873 154.683 144.86 156.874 142.993 156.874H136.682C133.362 156.874 131.266 160.445 132.855 163.361C135.02 167.335 136.74 170.611 137.84 172.905C144.765 187.354 163.806 208.818 171.25 216.935C172.477 218.274 171.679 220.442 169.869 220.601C152.611 222.12 89.0002 227.402 53.9824 225.994C20.2262 224.636 -1.32357 213.32 -7.74023 209.465C-8.84337 208.803 -9.03141 207.352 -8.18652 206.381C-3.03067 200.461 13.9672 181.049 29.6123 164.379C29.8531 164.123 30.0962 163.858 30.3417 163.586C32.7305 160.933 30.693 156.874 27.1236 156.874H20.6191C18.9261 156.873 17.8862 155.032 18.7754 153.591C24.2411 144.74 39.6824 120.228 50.4199 108.052C50.7584 107.668 50.4799 107.074 49.9682 107.074H34.2031C32.299 107.073 31.2899 104.788 32.5625 103.372C39.7957 95.3228 56.4056 76.1031 60.0049 65.4937C63.6474 54.7562 77.633 43.4061 83.4453 39.0444Z" fill="white"/>
</mask>
<g mask="url(#mask0_636_25942)">
<rect x="-0.111816" width="163.356" height="217.511" rx="13.0507" fill="white"/>
</g>
<path d="M83.4594 124.295V117.422L67.8421 117.378V112.201L82.0673 92.1033H89.3322V112.419H94.5524V117.422H89.3322V124.295H83.4594ZM73.6714 112.419H83.4594V98.5851L73.6714 112.419Z" fill="#E24C5E"/>
<circle cx="33.227" cy="191.218" r="7.75743" fill="#E24C5E"/>
<circle cx="107.996" cy="139.379" r="7.75743" fill="#E24C5E"/>
<circle cx="78.0801" cy="159.021" r="4.35022" fill="#E24C5E"/>
<circle cx="80.4513" cy="69.36" r="4.35022" fill="#E24C5E"/>
<circle cx="39.4217" cy="34.05" r="1.63133" fill="white"/>
<circle cx="107.998" cy="56.0229" r="1.63133" fill="white"/>
<circle cx="42.6847" cy="63.3779" r="1.63133" fill="white"/>
<circle cx="149.48" cy="75.3415" r="1.63133" fill="white"/>
<circle cx="14.5576" cy="56.0229" r="1.63133" fill="white"/>
<circle cx="8.57628" cy="169.163" r="1.63133" fill="white"/>
<circle cx="10.2081" cy="103.741" r="1.63133" fill="white"/>
<circle cx="132.078" cy="92.2781" r="1.63133" fill="white"/>
<circle cx="23.0723" cy="80.7511" r="2.71889" fill="white"/>
<circle cx="134.796" cy="53.3043" r="2.71889" fill="white"/>
<circle cx="123.551" cy="31.1618" r="2.71889" fill="white"/>
<circle cx="65.7969" cy="32.4188" r="2.71889" fill="white"/>
<circle cx="28.1885" cy="14.2416" r="2.71889" fill="white"/>
<circle cx="146.243" cy="113.671" r="1.08756" fill="white"/>
<circle cx="100.241" cy="16.9608" r="1.08756" fill="white"/>
<circle cx="141.892" cy="18.0485" r="1.08756" fill="white"/>
<circle cx="19.2657" cy="137.304" r="1.08756" fill="white"/>
<circle cx="151.112" cy="171.882" r="1.08756" fill="white"/>
<circle cx="144.067" cy="136.814" r="1.08756" fill="white"/>
<circle cx="11.8391" cy="27.3551" r="1.08756" fill="white"/>
<circle cx="59.7587" cy="7.49649" r="1.08756" fill="white"/>
<circle cx="110.61" cy="201.869" r="6.46088" fill="#E24C5E"/>
<circle cx="55.4075" cy="132.463" r="5.43778" fill="#E24C5E"/>
</g>
<defs>
<clipPath id="clip0_636_25942">
<rect width="163.133" height="217.511" rx="24" fill="white"/>
</clipPath>
</defs>
</svg>
